{
.appVersion = "3525";
.formatVersion = 3;
DisplayStrings = (
i
);
customParameters = (
{
name = panose;
value = (
2,
11,
6,
9,
3,
3,
4,
11,
2,
4
);
},
{
name = unicodeRanges;
value = (
0,
1,
2,
3,
5,
7,
31,
33,
35,
38,
45,
60
);
},
{
name = fsType;
value = (
);
},
{
name = glyphOrder;
value = (
.notdef,
.null,
CR,
space,
exclam,
quotedbl,
numbersign,
dollar,
percent,
ampersand,
quotesingle,
parenleft,
parenright,
asterisk,
plus,
comma,
hyphen,
period,
slash,
zero,
one,
two,
three,
four,
five,
six,
seven,
eight,
nine,
colon,
semicolon,
less,
equal,
greater,
question,
at,
A,
B,
C,
D,
E,
F,
G,
H,
I,
J,
K,
L,
M,
N,
O,
P,
Q,
R,
S,
T,
U,
V,
W,
X,
Y,
Z,
bracketleft,
backslash,
bracketright,
asciicircum,
underscore,
grave,
a,
b,
c,
d,
e,
f,
g,
h,
i,
j,
k,
l,
m,
n,
o,
p,
q,
r,
s,
t,
u,
v,
w,
x,
y,
z,
braceleft,
bar,
braceright,
asciitilde,
Adieresis,
Aring,
Ccedilla,
Eacute,
Ntilde,
Odieresis,
Udieresis,
aacute,
agrave,
acircumflex,
adieresis,
atilde,
aring,
ccedilla,
eacute,
egrave,
ecircumflex,
edieresis,
iacute,
igrave,
icircumflex,
idieresis,
ntilde,
oacute,
ograve,
ocircumflex,
odieresis,
otilde,
uacute,
ugrave,
ucircumflex,
udieresis,
dagger,
degree,
cent,
sterling,
section,
bullet,
paragraph,
germandbls,
registered,
copyright,
trademark,
acute,
dieresis,
notequal,
AE,
Oslash,
infinity,
plusminus,
lessequal,
greaterequal,
yen,
mu,
partialdiff,
summation,
product,
pi,
integral,
ordfeminine,
ordmasculine,
Omega,
ae,
oslash,
questiondown,
exclamdown,
logicalnot,
radical,
florin,
approxequal,
Delta,
guillemotleft,
guillemotright,
ellipsis,
nonbreakingspace,
Agrave,
Atilde,
Otilde,
OE,
oe,
endash,
emdash,
quotedblleft,
quotedblright,
quoteleft,
quoteright,
divide,
lozenge,
ydieresis,
Ydieresis,
fraction,
currency,
guilsinglleft,
guilsinglright,
fi,
fl,
daggerdbl,
periodcentered,
quotesinglbase,
quotedblbase,
perthousand,
Acircumflex,
Ecircumflex,
Aacute,
Edieresis,
Egrave,
Iacute,
Icircumflex,
Idieresis,
Igrave,
Oacute,
Ocircumflex,
Ograve,
Uacute,
Ucircumflex,
Ugrave,

glyphs = (
{
glyphname = .notdef;
lastChange = "2026-05-14 15:15:03 +0000";
layers = (
{
layerId = m01;
shapes = (
{
closed = 1;
nodes = (
(1128,1444,l),
(104,1444,l),
(104,-362,l),
(1128,-362,l)
);
},
{
closed = 1;
nodes = (
(1014,1329,l),
(1014,-248,l),
(219,-248,l),
(219,1329,l)
);
}
);
userData = {
assembly = "NPUSHB[ ]	/* 12 values pushed */
4 219 0 6 219 1 8 5 79 2 4 0
MDAP[1]	/* MoveDirectAbsPt */
MDRP[00100]	/* MoveDirectRelPt */
MDRP[10100]	/* MoveDirectRelPt */
MIRP[01100]	/* MoveIndirectRelPt */
IUP[1]	/* InterpolateUntPts */
SVTCA[0]	/* SetFreedomAndProjectionVectorToAxis */
SRP0[ ]	/* SetRefPoint0 */
MDRP[10100]	/* MoveDirectRelPt */
MIRP[01100]	/* MoveIndirectRelPt */
MDRP[10100]	/* MoveDirectRelPt */
MIRP[01100]	/* MoveIndirectRelPt */
IUP[0]	/* InterpolateUntPts */";
};
width = 1233;
}
);
note = .notdef;
},
{
glyphname = exclam;
layers = (
{
layerId = m01;
shapes = (
{
closed = 1;
nodes = (
(485,481,l),
(647,481,l),
(735,838,l),
(864,1493,l),
(662,1493,l),
(535,838,l)
);
},
{
closed = 1;
nodes = (
(573,0,l),
(623,254,l),
(420,254,l),
(371,0,l)
);
}
);
userData = {
assembly = "NPUSHB[ ]	/* 46 values pushed */
4 3 2 5 2 5 5 0 5 1 5 0 0 5 8 5 9 6 9 7 5 6 9 58 3 84 6 83 0 81 8 4 6 8 7 3 3 5 1 5 0 1 6 2 9 10
SRP0[ ]	/* SetRefPoint0 */
MDRP[10100]	/* MoveDirectRelPt */
MIRP[00100]	/* MoveIndirectRelPt */
MIRP[10100]	/* MoveIndirectRelPt */
MDRP[00100]	/* MoveDirectRelPt */
MDRP[00000]	/* MoveDirectRelPt */
SRP2[ ]	/* SetRefPoint2 */
SLOOP[ ]	/* SetLoopVariable */
IP[ ]	/* InterpolatePts */
SRP1[ ]	/* SetRefPoint1 */
IP[ ]	/* InterpolatePts */
IUP[1]	/* InterpolateUntPts */
SVTCA[0]	/* SetFreedomAndProjectionVectorToAxis */
MDAP[1]	/* MoveDirectAbsPt */
MIRP[00100]	/* MoveIndirectRelPt */
MIRP[11100]	/* MoveIndirectRelPt */
MIRP[01100]	/* MoveIndirectRelPt */
IUP[0]	/* InterpolateUntPts */
MPPEM[ ]	/* MeasurePixelPerEm */
GTEQ[ ]	/* GreaterThanOrEqual */
IF[ ]	/* If */
SPVTL[1]	/* SetPVectorToLine */
SFVTCA[1]	/* SetFVectorToAxis */
MIRP[01101]	/* MoveIndirectRelPt */
SPVTL[1]	/* SetPVectorToLine */
SRP0[ ]	/* SetRefPoint0 */
SFVTCA[1]	/* SetFVectorToAxis */
MIRP[01101]	/* MoveIndirectRelPt */
SPVTL[1]	/* SetPVectorToLine */
SRP0[ ]	/* SetRefPoint0 */
SFVTCA[1]	/* SetFVectorToAxis */
MIRP[01101]	/* MoveIndirectRelPt */
SPVTL[1]	/* SetPVectorToLine */
SRP0[ ]	/* SetRefPoint0 */
SFVTCA[1]	/* SetFVectorToAxis */
MIRP[01101]	/* MoveIndirectRelPt */
SRP1[ ]	/* SetRefPoint1 */
SLOOP[ ]	/* SetLoopVariable */
IP[ ]	/* InterpolatePts */
EIF[ ]	/* EndIf */
CLEAR[ ]	/* ClearStack */";
};
width = 1233;
}
);
note = exclam;
unicode = 33;
},
{
glyphname = quotedbl;
layers = (
{
layerId = m01;
shapes = (
{
closed = 1;
nodes = (
(721,938,l),
(895,938,l),
(895,1493,l),
(721,1493,l)
);
},
{
closed = 1;
nodes = (
(338,938,l),
(512,938,l),
(512,1493,l),
(338,1493,l)
);
}
);
userData = {
assembly = "NPUSHB[ ]	/* 14 values pushed */
5 1 85 4 0 81 8 0 6 2 6 6 4 8
SRP0[ ]	/* SetRefPoint0 */
MDRP[10100]	/* MoveDirectRelPt */
MIRP[01100]	/* MoveIndirectRelPt */
MDRP[11100]	/* MoveDirectRelPt */
MIRP[01100]	/* MoveIndirectRelPt */
IUP[1]	/* InterpolateUntPts */
SVTCA[0]	/* SetFreedomAndProjectionVectorToAxis */
SRP0[ ]	/* SetRefPoint0 */
MIRP[10100]	/* MoveIndirectRelPt */
ALIGNRP[ ]	/* AlignRelativePt */
MIRP[01100]	/* MoveIndirectRelPt */
SHP[0]	/* ShiftPointByLastPoint */
IUP[0]	/* InterpolateUntPts */";
};
width = 1233;
}
);
note = quotedbl;
unicode = 34;
},
{
glyphname = numbersign;
layers = (
{
layerId = m01;
shapes = (
{
closed = 1;
nodes = (
(449,567,l),
(532,901,l),
(778,901,l),
(694,567,l)
);
},
{
closed = 1;
nodes = (
(412,1055,l),
(154,1055,l),
(115,901,l),
(373,901,l),
(289,567,l),
(33,567,l),
(-6,414,l),
(250,414,l),
(145,0,l),
(305,0,l),
(410,414,l),
(655,414,l),
(551,0,l),
(711,0,l),
(815,414,l),
(1073,414,l),
(1112,567,l),
(854,567,l),
(938,901,l),
(1194,901,l),
(1233,1055,l),
(977,1055,l),
(1081,1470,l),
(922,1470,l),
(817,1055,l),
(571,1055,l),
(676,1470,l),
(516,1470,l)
);
}
);
userData = {
assembly = "NPUSHB[ ]	/* 53 values pushed */
27 11 0 88 29 9 5 23 19 15 88 25 13 2 7 4 21 17 31 30 29 28 27 26 25 23 22 21 20 19 18 17 16 15 14 13 12 11 9 8 7 6 5 4 3 2 1 0 30 32 10 24 32
SRP0[ ]	/* SetRefPoint0 */
MDRP[10100]	/* MoveDirectRelPt */
MDRP[01100]	/* MoveDirectRelPt */
SRP1[ ]	/* SetRefPoint1 */
SLOOP[ ]	/* SetLoopVariable */
IP[ ]	/* InterpolatePts */
IUP[1]	/* InterpolateUntPts */
SVTCA[0]	/* SetFreedomAndProjectionVectorToAxis */
MDAP[1]	/* MoveDirectAbsPt */
ALIGNRP[ ]	/* AlignRelativePt */
MDRP[00100]	/* MoveDirectRelPt */
SHP[0]	/* ShiftPointByLastPoint */
MDRP[10100]	/* MoveDirectRelPt */
ALIGNRP[ ]	/* AlignRelativePt */
ALIGNRP[ ]	/* AlignRelativePt */
MIRP[01100]	/* MoveIndirectRelPt */
SHP[0]	/* ShiftPointByLastPoint */
SHP[0]	/* ShiftPointByLastPoint */
MDRP[10100]	/* MoveDirectRelPt */
ALIGNRP[ ]	/* AlignRelativePt */
ALIGNRP[ ]	/* AlignRelativePt */
MIRP[01100]	/* MoveIndirectRelPt */
SHP[0]	/* ShiftPointByLastPoint */
SHP[0]	/* ShiftPointByLastPoint */
IUP[0]	/* InterpolateUntPts */";
};
width = 1233;
}
);
note = numbersign;
unicode = 35;
},
{
glyphname = dollar;
layers = (
{
layerId = m01;
shapes = (
{
closed = 1;
nodes = (
(831,484,o),
(831,406,qs),
(831,290,o),
(672,145,o),
(543,145,q),
(629,588,l),
(737,569,o)
);
},
{
closed = 1;
nodes = (
(373,871,o),
(373,940,qs),
(373,1039,o),
(524,1176,o),
(643,1184,q),
(563,774,l),
(457,797,o)
);
},
{
closed = 1;
nodes = (
(524,2,ls),
(740,2,o),
(1014,242,o),
(1014,426,qs),
(1014,556,o),
(836,722,o),
(662,756,q),
(743,1182,l),
(832,1174,o),
(986,1127,o),
(1051,1087,q),
(1083,1260,l),
(1011,1284,o),
(855,1315,o),
(770,1321,q),
(817,1556,l),
(717,1556,l),
(669,1321,l),
(460,1314,o),
(195,1084,o),
(195,911,qs),
(195,786,o),
(354,641,o),
(530,606,q),
(440,141,l),
(336,146,o),
(147,212,o),
(66,272,q),
(31,92,l),
(126,49,o),
(318,3,o),
(413,0,q),
(354,-301,l),
(455,-301,l),
(514,2,l)
);
}
);
userData = {
assembly = "NPUSHB[ ]	/* 64 values pushed */
40 8 0 7 41 24 4 37 20 47 48 16 23 19 1 37 87 36 90 31 8 88 30 20 87 19 90 1 88 14 33 30 16 15 27 48 32 31 14 8 7 1 0 8 23 24 30 33 40 41 47 16 8 11 4 37 36 4 7 44 11 7 27 49
SRP0[ ]	/* SetRefPoint0 */
MDRP[10100]	/* MoveDirectRelPt */
MIRP[01100]	/* MoveIndirectRelPt */
MDRP[10100]	/* MoveDirectRelPt */
MIRP[01100]	/* MoveIndirectRelPt */
MDRP[00000]	/* MoveDirectRelPt */
MDRP[00000]	/* MoveDirectRelPt */
SRP1[ ]	/* SetRefPoint1 */
SRP2[ ]	/* SetRefPoint2 */
SLOOP[ ]	/* SetLoopVariable */
IP[ ]	/* InterpolatePts */
SLOOP[ ]	/* SetLoopVariable */
IP[ ]	/* InterpolatePts */
SRP1[ ]	/* SetRefPoint1 */
IP[ ]	/* InterpolatePts */
IUP[1]	/* InterpolateUntPts */
SVTCA[0]	/* SetFreedomAndProjectionVectorToAxis */
MDAP[1]	/* MoveDirectAbsPt */
MDRP[00100]	/* MoveDirectRelPt */
SHP[0]	/* ShiftPointByLastPoint */
MDRP[00100]	/* MoveDirectRelPt */
MIRP[01100]	/* MoveIndirectRelPt */
MIRP[10100]	/* MoveIndirectRelPt */
MIRP[01100]	/* MoveIndirectRelPt */
SRP0[ ]	/* SetRefPoint0 */
MIRP[01110]	/* MoveIndirectRelPt */
MDRP[00110]	/* MoveDirectRelPt */
MIRP[10110]	/* MoveIndirectRelPt */
MIRP[01110]	/* MoveIndirectRelPt */
SRP1[ ]	/* SetRefPoint1 */
SRP2[ ]	/* SetRefPoint2 */
IP[ ]	/* InterpolatePts */
SRP1[ ]	/* SetRefPoint1 */
IP[ ]	/* InterpolatePts */
IP[ ]	/* InterpolatePts */
SRP1[ ]	/* SetRefPoint1 */
SRP2[ ]	/* SetRefPoint2 */
SLOOP[ ]	/* SetLoopVariable */
IP[ ]	/* InterpolatePts */
SRP1[ ]	/* SetRefPoint1 */
IP[ ]	/* InterpolatePts */
IUP[0]	/* InterpolateUntPts */";
};
width = 1233;
}
);
note = dollar;
unicode = 36;
},
{
glyphname = percent;
layers = (
{
layerId = m01;
shapes = (
{
closed = 1;
nodes = (
(801,504,o),
(879,504,qs),
(955,504,o),
(1063,396,o),
(1063,319,qs),
(1063,242,o),
(956,135,o),
(879,135,qs),
(801,135,o),
(696,241,o),
(696,319,qs),
(696,398,o)
);
},
{
closed = 1;
nodes = (
(743,0,o),
(879,0,qs),
(1014,0,o),
(1200,186,o),
(1200,319,qs),
(1200,382,o),
(1150,498,o),
(1104,545,qs),
(1058,591,o),
(943,639,o),
(879,639,qs),
(745,639,o),
(561,454,o),
(561,319,qs),
(561,183,o)
);
},
{
closed = 1;
nodes = (
(1128,979,l),
(86,561,l),
(121,465,l),
(1169,883,l)
);
},
{
closed = 1;
nodes = (
(275,1296,o),
(352,1296,qs),
(429,1296,o),
(537,1189,o),
(537,1112,qs),
(537,1035,o),
(429,928,o),
(352,928,qs),
(273,928,o),
(168,1033,o),
(168,1112,qs),
(168,1190,o)
);
},
{
closed = 1;
nodes = (
(217,793,o),
(352,793,qs),
(486,793,o),
(672,978,o),
(672,1112,qs),
(672,1177,o),
(623,1294,o),
(578,1339,qs),
(533,1384,o),
(416,1432,o),
(352,1432,qs),
(217,1432,o),
(33,1247,o),
(33,1112,qs),
(33,977,o)
);
}
);
userData = {
assembly = "NPUSHB[ ]	/* 47 values pushed */
30 55 29 40 34 28 15 27 3 9 93 15 34 93 55 94 40 93 46 92 15 94 3 93 24 28 27 43 31 30 29 6 9 21 10 0 9 12 37 9 52 10 31 9 43 12 58
SRP0[ ]	/* SetRefPoint0 */
MDRP[00100]	/* MoveDirectRelPt */
MDRP[10100]	/* MoveDirectRelPt */
MIRP[01100]	/* MoveIndirectRelPt */
MIRP[11100]	/* MoveIndirectRelPt */
MIRP[01100]	/* MoveIndirectRelPt */
SRP0[ ]	/* SetRefPoint0 */
MIRP[01110]	/* MoveIndirectRelPt */
MIRP[11110]	/* MoveIndirectRelPt */
MIRP[01110]	/* MoveIndirectRelPt */
IP[ ]	/* InterpolatePts */
IP[ ]	/* InterpolatePts */
SRP1[ ]	/* SetRefPoint1 */
SRP2[ ]	/* SetRefPoint2 */
IP[ ]	/* InterpolatePts */
IP[ ]	/* InterpolatePts */
IUP[1]	/* InterpolateUntPts */
SVTCA[0]	/* SetFreedomAndProjectionVectorToAxis */
MDAP[1]	/* MoveDirectAbsPt */
MIRP[01110]	/* MoveIndirectRelPt */
MIRP[01110]	/* MoveIndirectRelPt */
MIRP[10110]	/* MoveIndirectRelPt */
MIRP[01110]	/* MoveIndirectRelPt */
MIRP[11110]	/* MoveIndirectRelPt */
MIRP[01110]	/* MoveIndirectRelPt */
SRP0[ ]	/* SetRefPoint0 */
MIRP[01110]	/* MoveIndirectRelPt */
SRP1[ ]	/* SetRefPoint1 */
IP[ ]	/* InterpolatePts */
SRP1[ ]	/* SetRefPoint1 */
IP[ ]	/* InterpolatePts */
SRP1[ ]	/* SetRefPoint1 */
SRP2[ ]	/* SetRefPoint2 */
IP[ ]	/* InterpolatePts */
SRP2[ ]	/* SetRefPoint2 */
IP[ ]	/* InterpolatePts */
IUP[0]	/* InterpolateUntPts */";
};
width = 1233;
}
);
note = percent;
unicode = 37;
},
{
glyphname = ampersand;
layers = (
{
layerId = m01;
shapes = (
{
closed = 1;
nodes = (
(483,1110,o),
(483,1157,qs),
(483,1251,o),
(620,1366,o),
(733,1366,qs),
(809,1366,o),
(931,1328,o),
(973,1290,q),
(1008,1473,l),
(951,1496,o),
(827,1520,o),
(762,1520,qs),
(555,1520,o),
(309,1309,o),
(309,1135,qs),
(309,1080,o),
(338,972,o),
(367,920,q),
(179,817,o),
(-20,528,o),
(-20,360,qs),
(-20,185,o),
(215,-29,o),
(410,-29,qs),
(514,-29,o),
(714,42,o),
(809,113,q),
(868,0,l),
(1067,0,l),
(944,221,l),
(1051,323,o),
(1173,592,o),
(1190,760,q),
(1022,760,l),
(1010,621,o),
(936,416,o),
(874,350,q),
(567,907,ls),
(527,979,o)
);
},
{
closed = 1;
nodes = (
(670,186,o),
(524,129,o),
(459,129,qs),
(330,129,o),
(158,289,o),
(158,408,qs),
(158,525,o),
(297,722,o),
(432,795,q),
(741,240,l)
);
}
);
userData = {
assembly = "NPUSHB[ ]	/* 97 values pushed */
41 1 42 40 19 20 19 39 48 39 20 20 19 12 1 13 11 4 8 9 8 10 4 9 9 8 47 1 46 48 4 1 1 0 40 1 41 39 4 0 1 0 58 48 39 8 4 1 5 0 20 30 11 9 45 99 14 30 87 29 98 33 99 26 97 14 101 9 30 10 0 3 36 29 9 5 4 1 8 11 48 4 29 20 39 36 4 23 29 4 4 5 42 4 23 17 49
SRP0[ ]	/* SetRefPoint0 */
MDRP[10100]	/* MoveDirectRelPt */
MDRP[00100]	/* MoveDirectRelPt */
MIRP[01100]	/* MoveIndirectRelPt */
MDRP[10100]	/* MoveDirectRelPt */
MIRP[11100]	/* MoveIndirectRelPt */
MDRP[00100]	/* MoveDirectRelPt */
SRP0[ ]	/* SetRefPoint0 */
MIRP[01110]	/* MoveIndirectRelPt */
IP[ ]	/* InterpolatePts */
IP[ ]	/* InterpolatePts */
SRP1[ ]	/* SetRefPoint1 */
SLOOP[ ]	/* SetLoopVariable */
IP[ ]	/* InterpolatePts */
SRP1[ ]	/* SetRefPoint1 */
SRP2[ ]	/* SetRefPoint2 */
IP[ ]	/* InterpolatePts */
SRP1[ ]	/* SetRefPoint1 */
SRP2[ ]	/* SetRefPoint2 */
SLOOP[ ]	/* SetLoopVariable */
IP[ ]	/* InterpolatePts */
IUP[1]	/* InterpolateUntPts */
SVTCA[0]	/* SetFreedomAndProjectionVectorToAxis */
MDAP[1]	/* MoveDirectAbsPt */
MIRP[00100]	/* MoveIndirectRelPt */
MIRP[10110]	/* MoveIndirectRelPt */
MIRP[01110]	/* MoveIndirectRelPt */
MIRP[10110]	/* MoveIndirectRelPt */
MIRP[01110]	/* MoveIndirectRelPt */
SRP0[ ]	/* SetRefPoint0 */
MIRP[01110]	/* MoveIndirectRelPt */
SRP1[ ]	/* SetRefPoint1 */
IP[ ]	/* InterpolatePts */
SRP1[ ]	/* SetRefPoint1 */
IP[ ]	/* InterpolatePts */
IP[ ]	/* InterpolatePts */
SLOOP[ ]	/* SetLoopVariable */
IP[ ]	/* InterpolatePts */
IUP[0]	/* InterpolateUntPts */
MPPEM[ ]	/* MeasurePixelPerEm */
GTEQ[ ]	/* GreaterThanOrEqual */
IF[ ]	/* If */
SPVTL[1]	/* SetPVectorToLine */
SRP0[ ]	/* SetRefPoint0 */
SFVTPV[ ]	/* SetFVectorToPVector */
MIRP[01101]	/* MoveIndirectRelPt */
SRP1[ ]	/* SetRefPoint1 */
SLOOP[ ]	/* SetLoopVariable */
IP[ ]	/* InterpolatePts */
SPVTL[1]	/* SetPVectorToLine */
SRP0[ ]	/* SetRefPoint0 */
SFVTPV[ ]	/* SetFVectorToPVector */
MIRP[01101]	/* MoveIndirectRelPt */
SRP1[ ]	/* SetRefPoint1 */
SLOOP[ ]	/* SetLoopVariable */
IP[ ]	/* InterpolatePts */
SPVTL[1]	/* SetPVectorToLine */
SRP0[ ]	/* SetRefPoint0 */
SFVTCA[1]	/* SetFVectorToAxis */
MIRP[01101]	/* MoveIndirectRelPt */
SPVTL[1]	/* SetPVectorToLine */
SRP0[ ]	/* SetRefPoint0 */
SFVTPV[ ]	/* SetFVectorToPVector */
MIRP[01101]	/* MoveIndirectRelPt */
SRP1[ ]	/* SetRefPoint1 */
SLOOP[ ]	/* SetLoopVariable */
IP[ ]	/* InterpolatePts */
SPVTL[1]	/* SetPVectorToLine */
SRP0[ ]	/* SetRefPoint0 */
SFVTL[0]	/* SetFVectorToLine */
MDRP[01001]	/* MoveDirectRelPt */
SPVTL[1]	/* SetPVectorToLine */
SRP0[ ]	/* SetRefPoint0 */
SFVTCA[0]	/* SetFVectorToAxis */
MDRP[01001]	/* MoveDirectRelPt */
SRP1[ ]	/* SetRefPoint1 */
SLOOP[ ]	/* SetLoopVariable */
IP[ ]	/* InterpolatePts */
EIF[ ]	/* EndIf */
CLEAR[ ]	/* ClearStack */";
};
width = 1233;
}
);
note = ampersand;
unicode = 38;
},
{
glyphname = quotesingle;
lastChange = "2026-05-14 15:27:11 +0000";
layers = (
{
layerId = m01;
shapes = (
{
closed = 1;
nodes = (
(529,938,l),
(703,938,l),
(703,1493,l),
(529,1493,l)
);
}
);
userData = {
assembly = "PUSHB[ ]	/* 8 values pushed */
1 0 81 4 0 6 2 4
SRP0[ ]	/* SetRefPoint0 */
MDRP[10100]	/* MoveDirectRelPt */
MIRP[01100]	/* MoveIndirectRelPt */
IUP[1]	/* InterpolateUntPts */
SVTCA[0]	/* SetFreedomAndProjectionVectorToAxis */
SRP0[ ]	/* SetRefPoint0 */
MIRP[10100]	/* MoveIndirectRelPt */
MDRP[00100]	/* MoveDirectRelPt */
IUP[0]	/* InterpolateUntPts */";
};
width = 1233;
}
);
note = quotesingle;
unicode = 39;
},
{
glyphname = parenleft;
layers = (
{
layerId = m01;
shapes = (
{
closed = 1;
nodes = (
(631,1277,o),
(373,678,o),
(373,375,qs),
(373,233,o),
(447,-81,o),
(526,-270,q),
(686,-270,l),
(626,-108,o),
(567,194,o),
(567,340,qs),
(567,642,o),
(806,1253,o),
(1042,1554,q),
(883,1554,l)
);
}
);
userData = {
assembly = "NPUSHB[ ]	/* 14 values pushed */
6 104 0 103 14 7 10 6 13 0 3 11 10 14
SRP0[ ]	/* SetRefPoint0 */
MDRP[10100]	/* MoveDirectRelPt */
MIRP[11100]	/* MoveIndirectRelPt */
MDRP[00100]	/* MoveDirectRelPt */
IP[ ]	/* InterpolatePts */
IP[ ]	/* InterpolatePts */
SRP2[ ]	/* SetRefPoint2 */
IP[ ]	/* InterpolatePts */
IUP[1]	/* InterpolateUntPts */
SVTCA[0]	/* SetFreedomAndProjectionVectorToAxis */
SRP0[ ]	/* SetRefPoint0 */
MIRP[11100]	/* MoveIndirectRelPt */
MIRP[01100]	/* MoveIndirectRelPt */
IUP[0]	/* InterpolateUntPts */";
};
width = 1233;
}
);
note = parenleft;
unicode = 40;
},
{
glyphname = parenright;
layers = (
{
layerId = m01;
shapes = (
{
closed = 1;
nodes = (
(561,7,o),
(819,606,o),
(819,909,qs),
(819,1051,o),
(744,1366,o),
(666,1554,q),
(506,1554,l),
(566,1392,o),
(625,1090,o),
(625,944,qs),
(625,641,o),
(386,30,o),
(150,-270,q),
(309,-270,l)
);
}
);
userData = {
assembly = "NPUSHB[ ]	/* 15 values pushed */
0 104 6 103 14 7 10 6 13 0 10 11 0 3 14
SRP0[ ]	/* SetRefPoint0 */
MDRP[10100]	/* MoveDirectRelPt */
MDRP[00100]	/* MoveDirectRelPt */
MIRP[01100]	/* MoveIndirectRelPt */
SRP2[ ]	/* SetRefPoint2 */
IP[ ]	/* InterpolatePts */
IP[ ]	/* InterpolatePts */
SRP2[ ]	/* SetRefPoint2 */
IP[ ]	/* InterpolatePts */
IUP[1]	/* InterpolateUntPts */
SVTCA[0]	/* SetFreedomAndProjectionVectorToAxis */
SRP0[ ]	/* SetRefPoint0 */
MIRP[11100]	/* MoveIndirectRelPt */
MIRP[01100]	/* MoveIndirectRelPt */
IUP[0]	/* InterpolateUntPts */";
};
width = 1233;
}
);
note = parenright;
unicode = 41;
},
{
glyphname = asterisk;
lastChange = "2026-05-14 15:09:20 +0000";
layers = (
{
layerId = m01;
shapes = (
{
closed = 1;
nodes = (
(684,748,l),
(684,1190,l),
(549,1190,l),
(549,748,l),
(155,986,l),
(88,870,l),
(508,642,l),
(88,413,l),
(155,298,l),
(549,536,l),
(549,94,l),
(684,94,l),
(684,536,l),
(1078,298,l),
(1145,413,l),
(725,642,l),
(1145,870,l),
(1078,986,l)
);
}
);
userData = {
assembly = "NPUSHB[ ]	/* 44 values pushed */
16 13 11 0 4 12 9 7 4 2 4 8 3 105 5 17 12 105 10 1 14 97 18 8 12 10 3 9 6 17 3 1 3 2 0 12 15 4 11 9 12 13 6 18
SRP0[ ]	/* SetRefPoint0 */
MDRP[10100]	/* MoveDirectRelPt */
ALIGNRP[ ]	/* AlignRelativePt */
MIRP[01100]	/* MoveIndirectRelPt */
SHP[0]	/* ShiftPointByLastPoint */
MDRP[11100]	/* MoveDirectRelPt */
ALIGNRP[ ]	/* AlignRelativePt */
MIRP[01100]	/* MoveIndirectRelPt */
SHP[0]	/* ShiftPointByLastPoint */
SLOOP[ ]	/* SetLoopVariable */
IP[ ]	/* InterpolatePts */
SRP1[ ]	/* SetRefPoint1 */
SRP2[ ]	/* SetRefPoint2 */
SLOOP[ ]	/* SetLoopVariable */
IP[ ]	/* InterpolatePts */
IUP[1]	/* InterpolateUntPts */
SVTCA[0]	/* SetFreedomAndProjectionVectorToAxis */
SRP0[ ]	/* SetRefPoint0 */
MIRP[10100]	/* MoveIndirectRelPt */
MDRP[10100]	/* MoveDirectRelPt */
ALIGNRP[ ]	/* AlignRelativePt */
MIRP[01100]	/* MoveIndirectRelPt */
SHP[0]	/* ShiftPointByLastPoint */
MDRP[00100]	/* MoveDirectRelPt */
MIRP[01100]	/* MoveIndirectRelPt */
SHP[0]	/* ShiftPointByLastPoint */
SLOOP[ ]	/* SetLoopVariable */
IP[ ]	/* InterpolatePts */
SRP2[ ]	/* SetRefPoint2 */
SLOOP[ ]	/* SetLoopVariable */
IP[ ]	/* InterpolatePts */
IUP[0]	/* InterpolateUntPts */";
};
width = 1233;
}
);
note = asterisk;
unicode = 42;
},
{
glyphname = plus;
lastChange = "2026-05-14 15:09:00 +0000";
layers = (
{
layerId = m01;
shapes = (
{
closed = 1;
nodes = (
(532,727,l),
(88,727,l),
(88,557,l),
(532,557,l),
(532,113,l),
(701,113,l),
(701,557,l),
(1145,557,l),
(1145,727,l),
(701,727,l),
(701,1171,l),
(532,1171,l)
);
}
);
userData = {
assembly = "NPUSHB[ ]	/* 20 values pushed */
0 109 9 1 108 5 109 7 3 12 2 13 4 0 15 8 13 10 6 12
SRP0[ ]	/* SetRefPoint0 */
MDRP[10100]	/* MoveDirectRelPt */
ALIGNRP[ ]	/* AlignRelativePt */
MIRP[01100]	/* MoveIndirectRelPt */
MIRP[11100]	/* MoveIndirectRelPt */
ALIGNRP[ ]	/* AlignRelativePt */
MIRP[01100]	/* MoveIndirectRelPt */
IUP[1]	/* InterpolateUntPts */
SVTCA[0]	/* SetFreedomAndProjectionVectorToAxis */
SRP0[ ]	/* SetRefPoint0 */
MDRP[10100]	/* MoveDirectRelPt */
ALIGNRP[ ]	/* AlignRelativePt */
MIRP[01100]	/* MoveIndirectRelPt */
MIRP[11100]	/* MoveIndirectRelPt */
ALIGNRP[ ]	/* AlignRelativePt */
MIRP[01100]	/* MoveIndirectRelPt */
IUP[0]	/* InterpolateUntPts */";
};
width = 1233;
}
);
note = plus;
unicode = 43;
},
{
glyphname = comma;
lastChange = "2026-05-14 15:13:03 +0000";
layers = (
{
layerId = m01;
shapes = (
{
closed = 1;
nodes = (
(209,-287,l),
(362,-287,l),
(633,96,l),
(674,303,l),
(422,303,l),
(381,96,l)
);
}
);
userData = {
assembly = "NPUSHB[ ]	/* 25 values pushed */
4 3 2 5 2 16 5 0 5 1 16 0 5 58 3 111 0 110 6 1 5 2 4 0 6
SRP0[ ]	/* SetRefPoint0 */
MDRP[10100]	/* MoveDirectRelPt */
MDRP[00100]	/* MoveDirectRelPt */
MIRP[00100]	/* MoveIndirectRelPt */
MDRP[00000]	/* MoveDirectRelPt */
IUP[1]	/* InterpolateUntPts */
SVTCA[0]	/* SetFreedomAndProjectionVectorToAxis */
SRP0[ ]	/* SetRefPoint0 */
MIRP[11100]	/* MoveIndirectRelPt */
MIRP[01100]	/* MoveIndirectRelPt */
IUP[0]	/* InterpolateUntPts */
MPPEM[ ]	/* MeasurePixelPerEm */
GTEQ[ ]	/* GreaterThanOrEqual */
IF[ ]	/* If */
SPVTL[1]	/* SetPVectorToLine */
SFVTCA[1]	/* SetFVectorToAxis */
MIRP[01101]	/* MoveIndirectRelPt */
SPVTL[1]	/* SetPVectorToLine */
SRP0[ ]	/* SetRefPoint0 */
SFVTCA[1]	/* SetFVectorToAxis */
MIRP[01101]	/* MoveIndirectRelPt */
SRP1[ ]	/* SetRefPoint1 */
SLOOP[ ]	/* SetLoopVariable */
IP[ ]	/* InterpolatePts */
EIF[ ]	/* EndIf */
CLEAR[ ]	/* ClearStack */";
};
width = 1233;
}
);
note = comma;
unicode = 44;
},
{
glyphname = hyphen;
lastChange = "2026-05-14 15:09:11 +0000";
layers = (
{
layerId = m01;
shapes = (
{
closed = 1;
nodes = (
(1145,557,l),
(1145,727,l),
(88,727,l),
(88,557,l)
);
}
);
userData = {
assembly = "PUSHB[ ]	/* 8 values pushed */
2 0 4 2 0 1 3 4
SRP0[ ]	/* SetRefPoint0 */
MDRP[10100]	/* MoveDirectRelPt */
MDRP[00100]	/* MoveDirectRelPt */
IP[ ]	/* InterpolatePts */
IP[ ]	/* InterpolatePts */
IUP[1]	/* InterpolateUntPts */
SVTCA[0]	/* SetFreedomAndProjectionVectorToAxis */
SRP0[ ]	/* SetRefPoint0 */
MDRP[10100]	/* MoveDirectRelPt */
MDRP[01100]	/* MoveDirectRelPt */
IUP[0]	/* InterpolateUntPts */";
};
width = 1233;
}
);
note = hyphen;
unicode = 45;
},
{
glyphname = period;
lastChange = "2026-05-14 15:13:12 +0000";
layers = (
{
layerId = m01;
shapes = (
{
closed = 1;
nodes = (
(593,0,l),
(653,303,l),
(401,303,l),
(341,0,l)
);
}
);
userData = {
assembly = "NPUSHB[ ]	/* 21 values pushed */
2 16 3 0 3 1 16 0 0 3 58 0 110 2 2 1 0 0 2 3 4
SRP0[ ]	/* SetRefPoint0 */
MDRP[10100]	/* MoveDirectRelPt */
MIRP[00100]	/* MoveIndirectRelPt */
SRP0[ ]	/* SetRefPoint0 */
MDRP[00000]	/* MoveDirectRelPt */
IP[ ]	/* InterpolatePts */
IUP[1]	/* InterpolateUntPts */
SVTCA[0]	/* SetFreedomAndProjectionVectorToAxis */
MDAP[1]	/* MoveDirectAbsPt */
MIRP[01100]	/* MoveIndirectRelPt */
IUP[0]	/* InterpolateUntPts */
MPPEM[ ]	/* MeasurePixelPerEm */
GTEQ[ ]	/* GreaterThanOrEqual */
IF[ ]	/* If */
SPVTL[1]	/* SetPVectorToLine */
SRP0[ ]	/* SetRefPoint0 */
SFVTCA[1]	/* SetFVectorToAxis */
MIRP[01101]	/* MoveIndirectRelPt */
SPVTL[1]	/* SetPVectorToLine */
SRP0[ ]	/* SetRefPoint0 */
SFVTCA[1]	/* SetFVectorToAxis */
MIRP[01101]	/* MoveIndirectRelPt */
EIF[ ]	/* EndIf */
CLEAR[ ]	/* ClearStack */";
};
width = 1233;
}
);
note = period;
unicode = 46;
},
{
glyphname = slash;
lastChange = "2026-05-14 15:15:34 +0000";
layers = (
{
layerId = m01;
shapes = (
{
closed = 1;
nodes = (
(1091,1556,l),
(900,1556,l),
(-25,-270,l),
(164,-270,l)
);
}
);
userData = {
assembly = "NPUSHB[ ]	/* 12 values pushed */
58 0 1 81 4 2 1 3 18 1 0 4
SRP0[ ]	/* SetRefPoint0 */
MDRP[10100]	/* MoveDirectRelPt */
MDRP[00100]	/* MoveDirectRelPt */
MIRP[01100]	/* MoveIndirectRelPt */
SRP0[ ]	/* SetRefPoint0 */
MDRP[00000]	/* MoveDirectRelPt */
IUP[1]	/* InterpolateUntPts */
SVTCA[0]	/* SetFreedomAndProjectionVectorToAxis */
SRP0[ ]	/* SetRefPoint0 */
MIRP[10100]	/* MoveIndirectRelPt */
MDRP[00100]	/* MoveDirectRelPt */
IUP[0]	/* InterpolateUntPts */
MPPEM[ ]	/* MeasurePixelPerEm */
GTEQ[ ]	/* GreaterThanOrEqual */
IF[ ]	/* If */
EIF[ ]	/* EndIf */
CLEAR[ ]	/* ClearStack */";
};
width = 1233;
}
);
note = slash;
unicode = 47;
},
{
glyphname = zero;
lastChange = "2026-05-14 15:06:05 +0000";
layers = (
{
layerId = m01;
shapes = (
{
closed = 1;
nodes = (
(678,-29,o),
(824,60,o),
(936,248,cs),
(1048,432,o),
(1135,765,o),
(1135,1020,cs),
(1135,1359,o),
(1010,1520,o),
(750,1520,cs),
(554,1520,o),
(411,1434,o),
(297,1245,cs),
(183,1056,o),
(98,729,o),
(98,473,cs),
(98,132,o),
(221,-29,o),
(481,-29,cs)
);
},
{
closed = 1;
nodes = (
(423,135,o),
(365,168,o),
(332,234,c),
(931,1096,l),
(932,1085,o),
(932,1074,o),
(932,1063,cs),
(932,828,o),
(862,521,o),
(770,334,cs),
(707,205,o),
(613,135,o),
(506,135,cs)
);
},
{
closed = 1;
nodes = (
(299,666,o),
(368,974,o),
(461,1159,cs),
(525,1286,o),
(620,1356,o),
(727,1356,cs),
(812,1356,o),
(868,1325,o),
(900,1256,c),
(299,392,l),
(299,398,o),
(299,406,o),
(299,414,cs)
);
}
);
userData = {
assembly = "NPUSHB[ ]	/* 22 values pushed */
3 9 30 99 18 39 99 27 97 18 101 48 6 0 36 19 12 0 45 19 21 48
SRP0[ ]	/* SetRefPoint0 */
MDRP[10100]	/* MoveDirectRelPt */
MIRP[01100]	/* MoveIndirectRelPt */
MDRP[00100]	/* MoveDirectRelPt */
MDRP[10100]	/* MoveDirectRelPt */
MIRP[01100]	/* MoveIndirectRelPt */
SRP0[ ]	/* SetRefPoint0 */
MDRP[00110]	/* MoveDirectRelPt */
IUP[1]	/* InterpolateUntPts */
SVTCA[0]	/* SetFreedomAndProjectionVectorToAxis */
SRP0[ ]	/* SetRefPoint0 */
MIRP[00100]	/* MoveIndirectRelPt */
MIRP[10100]	/* MoveIndirectRelPt */
MIRP[01100]	/* MoveIndirectRelPt */
SRP0[ ]	/* SetRefPoint0 */
MIRP[01110]	/* MoveIndirectRelPt */
MDRP[10100]	/* MoveDirectRelPt */
MDRP[00110]	/* MoveDirectRelPt */
IUP[0]	/* InterpolateUntPts */
NPUSHB[ ]	/* 146 values pushed */
47 0 47 1 47 2 47 3 47 4 47 5 47 6 47 7 47 8 47 9 47 10 47 11 79 0 79 1 79 2 79 3 79 4 79 5 79 6 79 7 79 8 79 9 79 10 79 11 143 0 143 1 143 2 143 3 143 4 143 5 143 6 143 7 143 8 143 9 143 10 143 11 159 0 159 1 159 2 159 3 159 4 159 5 159 6 159 7 159 8 159 9 159 10 159 11 48 47 0 47 1 47 2 47 3 47 4 47 5 47 6 47 7 47 8 47 9 47 10 47 11 192 0 192 1 192 2 192 3 192 4 192 5 192 6 192 7 192 8 192 9 192 10 192 11 24
DELTAP1[ ]	/* DeltaExceptionP1 */
SVTCA[1]	/* SetFreedomAndProjectionVectorToAxis */
DELTAP1[ ]	/* DeltaExceptionP1 */";
};
width = 1233;
}
);
note = zero;
unicode = 48;
},
{
glyphname = one;
layers = (
{
layerId = m01;
shapes = (
{
closed = 1;
nodes = (
(946,0,l),
(979,170,l),
(670,170,l),
(928,1493,l),
(725,1493,l),
(373,1419,l),
(338,1235,l),
(690,1311,l),
(469,170,l),
(156,170,l),
(123,0,l)
);
}
);
userData = {
assembly = "NPUSHB[ ]	/* 42 values pushed */
9 8 2 7 5 1 2 1 6 5 2 2 1 58 3 99 4 2 99 5 81 7 0 99 9 9 6 8 2 0 4 3 3 10 7 1 8 2 2 1 10 11
SRP0[ ]	/* SetRefPoint0 */
MDRP[10100]	/* MoveDirectRelPt */
MDRP[10100]	/* MoveDirectRelPt */
MDRP[00100]	/* MoveDirectRelPt */
SRP0[ ]	/* SetRefPoint0 */
MDRP[00000]	/* MoveDirectRelPt */
SRP2[ ]	/* SetRefPoint2 */
IP[ ]	/* InterpolatePts */
SRP1[ ]	/* SetRefPoint1 */
SLOOP[ ]	/* SetLoopVariable */
IP[ ]	/* InterpolatePts */
SRP1[ ]	/* SetRefPoint1 */
SRP2[ ]	/* SetRefPoint2 */
IP[ ]	/* InterpolatePts */
IP[ ]	/* InterpolatePts */
IUP[1]	/* InterpolateUntPts */
SVTCA[0]	/* SetFreedomAndProjectionVectorToAxis */
MDAP[1]	/* MoveDirectAbsPt */
MIRP[01100]	/* MoveIndirectRelPt */
SHP[0]	/* ShiftPointByLastPoint */
MIRP[10100]	/* MoveIndirectRelPt */
MIRP[01100]	/* MoveIndirectRelPt */
MDRP[10100]	/* MoveDirectRelPt */
MIRP[01100]	/* MoveIndirectRelPt */
IUP[0]	/* InterpolateUntPts */
MPPEM[ ]	/* MeasurePixelPerEm */
GTEQ[ ]	/* GreaterThanOrEqual */
IF[ ]	/* If */
SPVTL[1]	/* SetPVectorToLine */
SRP0[ ]	/* SetRefPoint0 */
SFVTCA[1]	/* SetFVectorToAxis */
MIRP[01101]	/* MoveIndirectRelPt */
SPVTL[1]	/* SetPVectorToLine */
SRP0[ ]	/* SetRefPoint0 */
SFVTCA[1]	/* SetFVectorToAxis */
MIRP[01101]	/* MoveIndirectRelPt */
SLOOP[ ]	/* SetLoopVariable */
SHP[0]	/* ShiftPointByLastPoint */
EIF[ ]	/* EndIf */
CLEAR[ ]	/* ClearStack */";
};
width = 1233;
}
);
note = one;
unicode = 49;
},
{
glyphname = two;
layers = (
{
layerId = m01;
shapes = (
{
closed = 1;
nodes = (
(768,599,o),
(940,757,o),
(973,799,qs),
(1055,902,o),
(1126,1075,o),
(1126,1171,qs),
(1126,1326,o),
(898,1520,o),
(713,1520,qs),
(616,1520,o),
(407,1470,o),
(295,1421,q),
(254,1217,l),
(380,1285,o),
(592,1352,o),
(684,1352,qs),
(798,1352,o),
(926,1246,o),
(926,1153,qs),
(926,950,o),
(389,479,qs),
(350,444,l),
(39,170,l),
(6,0,l),
(920,0,l),
(952,170,l),
(268,170,l),
(588,444,ls)
);
}
);
userData = {
assembly = "NPUSHB[ ]	/* 49 values pushed */
0 5 5 6 5 23 24 25 26 4 22 27 5 6 6 5 58 6 11 5 27 5 0 14 15 113 11 99 18 97 4 0 99 2 1 21 14 6 2 0 4 15 27 3 8 19 21 3 28
SRP0[ ]	/* SetRefPoint0 */
MDRP[10100]	/* MoveDirectRelPt */
MDRP[10100]	/* MoveDirectRelPt */
MIRP[01100]	/* MoveIndirectRelPt */
SRP1[ ]	/* SetRefPoint1 */
IP[ ]	/* InterpolatePts */
IP[ ]	/* InterpolatePts */
SLOOP[ ]	/* SetLoopVariable */
IP[ ]	/* InterpolatePts */
SRP1[ ]	/* SetRefPoint1 */
IP[ ]	/* InterpolatePts */
IUP[1]	/* InterpolateUntPts */
SVTCA[0]	/* SetFreedomAndProjectionVectorToAxis */
MDAP[1]	/* MoveDirectAbsPt */
MIRP[01100]	/* MoveIndirectRelPt */
SHP[0]	/* ShiftPointByLastPoint */
MIRP[10100]	/* MoveIndirectRelPt */
MIRP[01100]	/* MoveIndirectRelPt */
MIRP[10100]	/* MoveIndirectRelPt */
MDRP[00100]	/* MoveDirectRelPt */
SRP1[ ]	/* SetRefPoint1 */
IP[ ]	/* InterpolatePts */
IP[ ]	/* InterpolatePts */
SRP1[ ]	/* SetRefPoint1 */
SRP2[ ]	/* SetRefPoint2 */
IP[ ]	/* InterpolatePts */
IUP[0]	/* InterpolateUntPts */
MPPEM[ ]	/* MeasurePixelPerEm */
GTEQ[ ]	/* GreaterThanOrEqual */
IF[ ]	/* If */
SPVTL[1]	/* SetPVectorToLine */
SRP0[ ]	/* SetRefPoint0 */
SFVTCA[1]	/* SetFVectorToAxis */
MIRP[01101]	/* MoveIndirectRelPt */
SRP1[ ]	/* SetRefPoint1 */
SLOOP[ ]	/* SetLoopVariable */
IP[ ]	/* InterpolatePts */
SPVTL[1]	/* SetPVectorToLine */
SRP0[ ]	/* SetRefPoint0 */
SFVTCA[1]	/* SetFVectorToAxis */
MIRP[01101]	/* MoveIndirectRelPt */
EIF[ ]	/* EndIf */
CLEAR[ ]	/* ClearStack */";
};
width = 1233;
}
);
note = two;
unicode = 50;
},
{
glyphname = three;
layers = (
{
layerId = m01;
shapes = (
{
closed = 1;
nodes = (
(1102,1039,o),
(1102,1192,qs),
(1102,1344,o),
(886,1520,o),
(698,1520,qs),
(614,1520,o),
(420,1489,o),
(297,1456,q),
(260,1270,l),
(373,1310,o),
(567,1350,o),
(649,1350,qs),
(778,1350,o),
(901,1255,o),
(901,1155,qs),
(901,1031,o),
(715,881,o),
(557,881,qs),
(403,881,l),
(371,715,l),
(524,715,ls),
(662,715,o),
(805,594,o),
(805,477,qs),
(805,328,o),
(581,141,o),
(399,141,qs),
(301,141,o),
(111,194,o),
(20,246,q),
(-18,45,l),
(76,8,o),
(281,-29,o),
(389,-29,qs),
(669,-29,o),
(1004,255,o),
(1004,489,qs),
(1004,615,o),
(876,779,o),
(762,799,q),
(923,832,o)
);
}
);
userData = {
assembly = "NPUSHB[ ]	/* 43 values pushed */
0 19 99 21 10 87 9 113 13 99 6 31 87 32 113 28 99 35 97 6 101 21 41 21 20 19 10 4 41 22 31 32 0 4 9 16 19 3 25 19 38 9 41
SRP0[ ]	/* SetRefPoint0 */
MDRP[10100]	/* MoveDirectRelPt */
MDRP[10100]	/* MoveDirectRelPt */
MIRP[01100]	/* MoveIndirectRelPt */
MDRP[10100]	/* MoveDirectRelPt */
MIRP[01100]	/* MoveIndirectRelPt */
SRP1[ ]	/* SetRefPoint1 */
SLOOP[ ]	/* SetLoopVariable */
IP[ ]	/* InterpolatePts */
SRP1[ ]	/* SetRefPoint1 */
SLOOP[ ]	/* SetLoopVariable */
IP[ ]	/* InterpolatePts */
IUP[1]	/* InterpolateUntPts */
SVTCA[0]	/* SetFreedomAndProjectionVectorToAxis */
SRP0[ ]	/* SetRefPoint0 */
MDRP[00100]	/* MoveDirectRelPt */
MIRP[00100]	/* MoveIndirectRelPt */
MIRP[10100]	/* MoveIndirectRelPt */
MIRP[01100]	/* MoveIndirectRelPt */
MIRP[10100]	/* MoveIndirectRelPt */
MIRP[01100]	/* MoveIndirectRelPt */
SRP0[ ]	/* SetRefPoint0 */
MIRP[01110]	/* MoveIndirectRelPt */
MIRP[10110]	/* MoveIndirectRelPt */
MIRP[01110]	/* MoveIndirectRelPt */
SRP0[ ]	/* SetRefPoint0 */
MIRP[01110]	/* MoveIndirectRelPt */
IP[ ]	/* InterpolatePts */
IUP[0]	/* InterpolateUntPts */";
};
width = 1233;
}
);
note = three;
unicode = 51;
},
{
glyphname = four;
layers = (
{
layerId = m01;
shapes = (
{
closed = 1;
nodes = (
(217,520,l),
(842,1282,l),
(690,520,l)
);
},
{
closed = 1;
nodes = (
(25,356,l),
(659,356,l),
(590,0,l),
(788,0,l),
(858,356,l),
(1057,356,l),
(1087,520,l),
(889,520,l),
(1079,1493,l),
(846,1493,l),
(61,547,l)
);
}
);
userData = {
assembly = "NPUSHB[ ]	/* 62 values pushed */
1 3 13 3 13 0 3 2 0 3 3 13 11 5 8 9 8 10 5 9 9 8 0 5 1 0 4 5 4 2 5 5 5 4 58 0 3 11 7 99 5 1 3 81 9 11 10 1 2 4 12 8 7 5 0 4 9 6 9 4 12 14
SRP0[ ]	/* SetRefPoint0 */
MDRP[10100]	/* MoveDirectRelPt */
MDRP[11100]	/* MoveDirectRelPt */
MDRP[00100]	/* MoveDirectRelPt */
MDRP[00000]	/* MoveDirectRelPt */
SRP2[ ]	/* SetRefPoint2 */
SLOOP[ ]	/* SetLoopVariable */
IP[ ]	/* InterpolatePts */
SRP1[ ]	/* SetRefPoint1 */
SLOOP[ ]	/* SetLoopVariable */
IP[ ]	/* InterpolatePts */
IUP[1]	/* InterpolateUntPts */
SVTCA[0]	/* SetFreedomAndProjectionVectorToAxis */
MDAP[1]	/* MoveDirectAbsPt */
MIRP[00100]	/* MoveIndirectRelPt */
MDRP[10100]	/* MoveDirectRelPt */
ALIGNRP[ ]	/* AlignRelativePt */
MIRP[01100]	/* MoveIndirectRelPt */
SHP[0]	/* ShiftPointByLastPoint */
SRP2[ ]	/* SetRefPoint2 */
IP[ ]	/* InterpolatePts */
IUP[0]	/* InterpolateUntPts */
MPPEM[ ]	/* MeasurePixelPerEm */
GTEQ[ ]	/* GreaterThanOrEqual */
IF[ ]	/* If */
SPVTL[1]	/* SetPVectorToLine */
SRP0[ ]	/* SetRefPoint0 */
SFVTCA[1]	/* SetFVectorToAxis */
MIRP[01101]	/* MoveIndirectRelPt */
SPVTL[1]	/* SetPVectorToLine */
SRP0[ ]	/* SetRefPoint0 */
SFVTL[0]	/* SetFVectorToLine */
MIRP[01101]	/* MoveIndirectRelPt */
SPVTL[1]	/* SetPVectorToLine */
SRP0[ ]	/* SetRefPoint0 */
SFVTCA[1]	/* SetFVectorToAxis */
MIRP[01101]	/* MoveIndirectRelPt */
SPVTL[1]	/* SetPVectorToLine */
SRP0[ ]	/* SetRefPoint0 */
SFVTCA[1]	/* SetFVectorToAxis */
MIRP[01101]	/* MoveIndirectRelPt */
SPVTL[1]	/* SetPVectorToLine */
SRP0[ ]	/* SetRefPoint0 */
SFVTL[0]	/* SetFVectorToLine */
MIRP[01101]	/* MoveIndirectRelPt */
SPVTL[1]	/* SetPVectorToLine */
SRP0[ ]	/* SetRefPoint0 */
SFVTCA[1]	/* SetFVectorToAxis */
MIRP[01101]	/* MoveIndirectRelPt */
EIF[ ]	/* EndIf */
CLEAR[ ]	/* ClearStack */";
};
width = 1233;
}
);
note = four;
unicode = 52;
},
{
glyphname = five;
layers = (
{
layerId = m01;
shapes = (
{
closed = 1;
nodes = (
(282,781,o),
(447,821,o),
(526,821,qs),
(668,821,o),
(829,675,o),
(829,547,qs),
(829,373,o),
(585,139,o),
(399,139,qs),
(305,139,o),
(129,189,o),
(45,240,q),
(4,35,l),
(76,4,o),
(263,-29,o),
(371,-29,qs),
(514,-29,o),
(741,51,o),
(829,131,qs),
(925,217,o),
(1030,451,o),
(1030,575,qs),
(1030,760,o),
(800,987,o),
(612,987,qs),
(568,987,o),
(479,972,o),
(432,956,q),
(504,1323,l),
(1075,1323,l),
(1108,1493,l),
(352,1493,l),
(207,743,l)
);
}
);
userData = {
assembly = "NPUSHB[ ]	/* 56 values pushed */
7 6 5 3 8 4 5 32 0 32 3 5 0 0 32 58 4 7 32 29 99 7 20 87 19 98 23 99 16 2 99 0 81 16 101 7 33 32 20 3 0 4 26 19 2 10 1 4 26 19 1 26 19 10 19 33
SRP0[ ]	/* SetRefPoint0 */
MDRP[10100]	/* MoveDirectRelPt */
MDRP[10100]	/* MoveDirectRelPt */
MIRP[01100]	/* MoveIndirectRelPt */
MDRP[00000]	/* MoveDirectRelPt */
SRP1[ ]	/* SetRefPoint1 */
SRP2[ ]	/* SetRefPoint2 */
IP[ ]	/* InterpolatePts */
SRP1[ ]	/* SetRefPoint1 */
SRP2[ ]	/* SetRefPoint2 */
IP[ ]	/* InterpolatePts */
SRP1[ ]	/* SetRefPoint1 */
SRP2[ ]	/* SetRefPoint2 */
SLOOP[ ]	/* SetLoopVariable */
IP[ ]	/* InterpolatePts */
IUP[1]	/* InterpolateUntPts */
SVTCA[0]	/* SetFreedomAndProjectionVectorToAxis */
SRP0[ ]	/* SetRefPoint0 */
MDRP[00100]	/* MoveDirectRelPt */
MIRP[00100]	/* MoveIndirectRelPt */
MIRP[10100]	/* MoveIndirectRelPt */
MIRP[01100]	/* MoveIndirectRelPt */
SRP0[ ]	/* SetRefPoint0 */
MIRP[01110]	/* MoveIndirectRelPt */
MIRP[10110]	/* MoveIndirectRelPt */
MIRP[01110]	/* MoveIndirectRelPt */
SRP0[ ]	/* SetRefPoint0 */
MIRP[11110]	/* MoveIndirectRelPt */
MDRP[00100]	/* MoveDirectRelPt */
SRP2[ ]	/* SetRefPoint2 */
IP[ ]	/* InterpolatePts */
IUP[0]	/* InterpolateUntPts */
MPPEM[ ]	/* MeasurePixelPerEm */
GTEQ[ ]	/* GreaterThanOrEqual */
IF[ ]	/* If */
SPVTL[1]	/* SetPVectorToLine */
SRP0[ ]	/* SetRefPoint0 */
SFVTCA[1]	/* SetFVectorToAxis */
MIRP[01101]	/* MoveIndirectRelPt */
SPVTL[1]	/* SetPVectorToLine */
SRP0[ ]	/* SetRefPoint0 */
SFVTCA[1]	/* SetFVectorToAxis */
MIRP[01101]	/* MoveIndirectRelPt */
SRP1[ ]	/* SetRefPoint1 */
SLOOP[ ]	/* SetLoopVariable */
IP[ ]	/* InterpolatePts */
EIF[ ]	/* EndIf */
CLEAR[ ]	/* ClearStack */";
};
width = 1233;
}
);
note = five;
unicode = 53;
},
{
glyphname = six;
layers = (
{
layerId = m01;
shapes = (
{
closed = 1;
nodes = (
(666,129,o),
(522,129,qs),
(415,129,o),
(293,266,o),
(293,387,qs),
(293,577,o),
(491,829,o),
(637,829,qs),
(744,829,o),
(860,707,o),
(860,594,qs),
(860,397,o)
);
},
{
closed = 1;
nodes = (
(923,1520,o),
(848,1520,qs),
(641,1520,o),
(336,1305,o),
(238,1090,qs),
(170,944,o),
(92,586,o),
(92,420,qs),
(92,205,o),
(313,-29,o),
(516,-29,qs),
(638,-29,o),
(837,67,o),
(915,164,qs),
(983,247,o),
(1063,485,o),
(1063,604,qs),
(1063,788,o),
(870,987,o),
(692,987,qs),
(579,987,o),
(392,882,o),
(324,780,q),
(379,1063,o),
(630,1350,o),
(823,1350,qs),
(898,1350,o),
(1034,1311,o),
(1092,1274,q),
(1128,1460,l),
(1065,1489,o)
);
}
);
userData = {
assembly = "NPUSHB[ ]	/* 32 values pushed */
9 99 31 3 99 19 22 114 16 13 87 12 98 16 99 40 97 31 101 43 19 6 0 13 12 0 19 25 6 19 34 43
SRP0[ ]	/* SetRefPoint0 */
MDRP[10100]	/* MoveDirectRelPt */
MIRP[01100]	/* MoveIndirectRelPt */
MDRP[10100]	/* MoveDirectRelPt */
MIRP[01100]	/* MoveIndirectRelPt */
MDRP[00000]	/* MoveDirectRelPt */
MDRP[00000]	/* MoveDirectRelPt */
SRP1[ ]	/* SetRefPoint1 */
SRP2[ ]	/* SetRefPoint2 */
IP[ ]	/* InterpolatePts */
IUP[1]	/* InterpolateUntPts */
SVTCA[0]	/* SetFreedomAndProjectionVectorToAxis */
SRP0[ ]	/* SetRefPoint0 */
MIRP[00100]	/* MoveIndirectRelPt */
MIRP[10100]	/* MoveIndirectRelPt */
MIRP[01100]	/* MoveIndirectRelPt */
MIRP[10100]	/* MoveIndirectRelPt */
MIRP[01100]	/* MoveIndirectRelPt */
SRP0[ ]	/* SetRefPoint0 */
MIRP[10101]	/* MoveIndirectRelPt */
MDRP[00110]	/* MoveDirectRelPt */
MIRP[01110]	/* MoveIndirectRelPt */
SRP0[ ]	/* SetRefPoint0 */
MIRP[01110]	/* MoveIndirectRelPt */
IUP[0]	/* InterpolateUntPts */";
};
width = 1233;
}
);
note = six;
unicode = 54;
},
{
glyphname = seven;
layers = (
{
layerId = m01;
shapes = (
{
closed = 1;
nodes = (
(952,1323,l),
(174,0,l),
(391,0,l),
(1196,1399,l),
(1212,1493,l),
(276,1493,l),
(244,1323,l)
);
}
);
userData = {
assembly = "NPUSHB[ ]	/* 25 values pushed */
5 5 2 3 2 3 5 4 5 4 58 5 99 0 81 3 5 3 0 3 6 1 6 4 7
SRP0[ ]	/* SetRefPoint0 */
MDRP[10100]	/* MoveDirectRelPt */
MDRP[00100]	/* MoveDirectRelPt */
MDRP[01100]	/* MoveDirectRelPt */
SRP1[ ]	/* SetRefPoint1 */
SLOOP[ ]	/* SetLoopVariable */
IP[ ]	/* InterpolatePts */
IUP[1]	/* InterpolateUntPts */
SVTCA[0]	/* SetFreedomAndProjectionVectorToAxis */
MDAP[1]	/* MoveDirectAbsPt */
MIRP[10100]	/* MoveIndirectRelPt */
MIRP[01100]	/* MoveIndirectRelPt */
IUP[0]	/* InterpolateUntPts */
MPPEM[ ]	/* MeasurePixelPerEm */
GTEQ[ ]	/* GreaterThanOrEqual */
IF[ ]	/* If */
SPVTL[1]	/* SetPVectorToLine */
SRP0[ ]	/* SetRefPoint0 */
SFVTCA[1]	/* SetFVectorToAxis */
MIRP[01101]	/* MoveIndirectRelPt */
SPVTL[1]	/* SetPVectorToLine */
SRP0[ ]	/* SetRefPoint0 */
SFVTCA[1]	/* SetFVectorToAxis */
MIRP[01101]	/* MoveIndirectRelPt */
EIF[ ]	/* EndIf */
CLEAR[ ]	/* ClearStack */";
};
width = 1233;
}
);
note = seven;
unicode = 55;
},
{
glyphname = eight;
layers = (
{
layerId = m01;
shapes = (
{
closed = 1;
nodes = (
(640,127,o),
(492,127,qs),
(380,127,o),
(246,253,o),
(246,358,qs),
(246,512,o),
(429,709,o),
(571,709,qs),
(689,709,o),
(821,577,o),
(821,461,qs),
(821,311,o)
);
},
{
closed = 1;
nodes = (
(41,520,o),
(41,354,qs),
(41,175,o),
(278,-29,o),
(485,-29,qs),
(722,-29,o),
(1026,244,o),
(1026,453,qs),
(1026,586,o),
(898,752,o),
(772,782,q),
(932,823,o),
(1126,1050,o),
(1126,1194,qs),
(1126,1338,o),
(903,1520,o),
(725,1520,qs),
(511,1520,o),
(215,1263,o),
(215,1081,qs),
(215,976,o),
(323,831,o),
(430,793,q),
(250,756,o)
);
},
{
closed = 1;
nodes = (
(926,1256,o),
(926,1165,qs),
(926,1040,o),
(758,866,o),
(635,866,qs),
(533,866,o),
(416,980,o),
(416,1079,qs),
(416,1203,o),
(580,1364,o),
(707,1364,qs),
(806,1364,o)
);
}
);
userData = {
assembly = "NPUSHB[ ]	/* 34 values pushed */
24 12 3 99 42 9 99 30 36 99 18 97 30 101 42 116 48 24 12 0 39 19 15 0 19 27 45 19 21 6 19 15 33 48
SRP0[ ]	/* SetRefPoint0 */
MDRP[10100]	/* MoveDirectRelPt */
MDRP[00100]	/* MoveDirectRelPt */
MIRP[01100]	/* MoveIndirectRelPt */
MDRP[10100]	/* MoveDirectRelPt */
MIRP[01100]	/* MoveIndirectRelPt */
MDRP[10100]	/* MoveDirectRelPt */
MIRP[01100]	/* MoveIndirectRelPt */
SRP0[ ]	/* SetRefPoint0 */
MIRP[01110]	/* MoveIndirectRelPt */
SRP1[ ]	/* SetRefPoint1 */
IP[ ]	/* InterpolatePts */
IP[ ]	/* InterpolatePts */
IUP[1]	/* InterpolateUntPts */
SVTCA[0]	/* SetFreedomAndProjectionVectorToAxis */
SRP0[ ]	/* SetRefPoint0 */
MIRP[01100]	/* MoveIndirectRelPt */
MIRP[00100]	/* MoveIndirectRelPt */
MIRP[10100]	/* MoveIndirectRelPt */
MIRP[01100]	/* MoveIndirectRelPt */
SRP0[ ]	/* SetRefPoint0 */
MIRP[01110]	/* MoveIndirectRelPt */
SRP0[ ]	/* SetRefPoint0 */
MIRP[01110]	/* MoveIndirectRelPt */
IP[ ]	/* InterpolatePts */
IP[ ]	/* InterpolatePts */
IUP[0]	/* InterpolateUntPts */";
};
width = 1233;
}
);
note = eight;
unicode = 56;
},
{
glyphname = nine;
layers = (
{
layerId = m01;
shapes = (
{
closed = 1;
nodes = (
(526,1362,o),
(670,1362,qs),
(777,1362,o),
(897,1226,o),
(897,1104,qs),
(897,914,o),
(699,662,o),
(553,662,qs),
(446,662,o),
(330,784,o),
(330,897,qs),
(330,1094,o)
);
},
{
closed = 1;
nodes = (
(267,-29,o),
(342,-29,qs),
(550,-29,o),
(856,187,o),
(954,401,qs),
(1022,547,o),
(1100,905,o),
(1100,1071,qs),
(1100,1285,o),
(877,1520,o),
(674,1520,qs),
(552,1520,o),
(352,1423,o),
(274,1327,qs),
(207,1244,o),
(127,1007,o),
(127,889,qs),
(127,704,o),
(320,504,o),
(498,504,qs),
(611,504,o),
(798,609,o),
(866,711,q),
(811,428,o),
(560,141,o),
(367,141,qs),
(292,141,o),
(156,180,o),
(98,217,q),
(63,31,l),
(127,1,o)
);
}
);
userData = {
assembly = "NPUSHB[ ]	/* 27 values pushed */
3 99 19 22 114 16 13 12 16 99 40 9 99 31 97 40 101 43 19 0 6 19 34 0 19 25 43
SRP0[ ]	/* SetRefPoint0 */
MDRP[10100]	/* MoveDirectRelPt */
MIRP[01100]	/* MoveIndirectRelPt */
MDRP[10100]	/* MoveDirectRelPt */
MIRP[01100]	/* MoveIndirectRelPt */
SRP1[ ]	/* SetRefPoint1 */
IP[ ]	/* InterpolatePts */
IUP[1]	/* InterpolateUntPts */
SVTCA[0]	/* SetFreedomAndProjectionVectorToAxis */
SRP0[ ]	/* SetRefPoint0 */
MIRP[00100]	/* MoveIndirectRelPt */
MIRP[10100]	/* MoveIndirectRelPt */
MIRP[01100]	/* MoveIndirectRelPt */
SRP0[ ]	/* SetRefPoint0 */
MIRP[01110]	/* MoveIndirectRelPt */
MDRP[10110]	/* MoveDirectRelPt */
MDRP[00110]	/* MoveDirectRelPt */
SRP0[ ]	/* SetRefPoint0 */
MIRP[10101]	/* MoveIndirectRelPt */
MDRP[00110]	/* MoveDirectRelPt */
MIRP[01110]	/* MoveIndirectRelPt */
IUP[0]	/* InterpolateUntPts */";
};
width = 1233;
}
);
note = nine;
unicode = 57;
},
{
glyphname = colon;
lastChange = "2026-05-14 15:12:42 +0000";
layers = (
{
layerId = m01;
shapes = (
{
closed = 1;
nodes = (
(752,760,l),
(812,1063,l),
(560,1063,l),
(501,760,l)
);
},
{
closed = 1;
nodes = (
(602,0,l),
(661,303,l),
(409,303,l),
(350,0,l)
);
}
);
userData = {
assembly = "NPUSHB[ ]	/* 41 values pushed */
2 16 3 0 3 1 16 0 0 3 6 16 7 4 7 5 16 4 4 7 58 2 110 0 117 4 110 6 6 5 2 3 1 3 2 0 20 4 2 7 8
SRP0[ ]	/* SetRefPoint0 */
MDRP[10100]	/* MoveDirectRelPt */
MIRP[00100]	/* MoveIndirectRelPt */
MIRP[10100]	/* MoveIndirectRelPt */
MIRP[00100]	/* MoveIndirectRelPt */
MDRP[00000]	/* MoveDirectRelPt */
SLOOP[ ]	/* SetLoopVariable */
IP[ ]	/* InterpolatePts */
IUP[1]	/* InterpolateUntPts */
SVTCA[0]	/* SetFreedomAndProjectionVectorToAxis */
MDAP[1]	/* MoveDirectAbsPt */
MIRP[01100]	/* MoveIndirectRelPt */
MIRP[10100]	/* MoveIndirectRelPt */
MIRP[01100]	/* MoveIndirectRelPt */
IUP[0]	/* InterpolateUntPts */
MPPEM[ ]	/* MeasurePixelPerEm */
GTEQ[ ]	/* GreaterThanOrEqual */
IF[ ]	/* If */
SPVTL[1]	/* SetPVectorToLine */
SRP0[ ]	/* SetRefPoint0 */
SFVTCA[1]	/* SetFVectorToAxis */
MIRP[01101]	/* MoveIndirectRelPt */
SPVTL[1]	/* SetPVectorToLine */
SRP0[ ]	/* SetRefPoint0 */
SFVTCA[1]	/* SetFVectorToAxis */
MIRP[01101]	/* MoveIndirectRelPt */
SPVTL[1]	/* SetPVectorToLine */
SRP0[ ]	/* SetRefPoint0 */
SFVTCA[1]	/* SetFVectorToAxis */
MIRP[01101]	/* MoveIndirectRelPt */
SPVTL[1]	/* SetPVectorToLine */
SRP0[ ]	/* SetRefPoint0 */
SFVTCA[1]	/* SetFVectorToAxis */
MIRP[01101]	/* MoveIndirectRelPt */
EIF[ ]	/* EndIf */
CLEAR[ ]	/* ClearStack */";
};
width = 1233;
}
);
note = colon;
unicode = 58;
},
{
glyphname = semicolon;
lastChange = "2026-05-14 15:12:53 +0000";
layers = (
{
layerId = m01;
shapes = (
{
closed = 1;
nodes = (
(209,-287,l),
(362,-287,l),
(620,96,l),
(661,303,l),
(409,303,l),
(368,96,l)
);
},
{
closed = 1;
nodes = (
(752,760,l),
(812,1063,l),
(560,1063,l),
(501,760,l)
);
}
);
userData = {
assembly = "NPUSHB[ ]	/* 46 values pushed */
8 16 9 6 9 7 16 6 6 9 4 3 2 5 2 16 5 0 5 1 16 0 0 5 58 8 110 6 3 111 0 110 6 117 10 8 1 7 9 2 6 5 2 4 0 10
SRP0[ ]	/* SetRefPoint0 */
MDRP[10100]	/* MoveDirectRelPt */
MDRP[00100]	/* MoveDirectRelPt */
MIRP[00100]	/* MoveIndirectRelPt */
MDRP[10100]	/* MoveDirectRelPt */
MIRP[00100]	/* MoveIndirectRelPt */
MDRP[00000]	/* MoveDirectRelPt */
IP[ ]	/* InterpolatePts */
IP[ ]	/* InterpolatePts */
IUP[1]	/* InterpolateUntPts */
SVTCA[0]	/* SetFreedomAndProjectionVectorToAxis */
SRP0[ ]	/* SetRefPoint0 */
MIRP[00100]	/* MoveIndirectRelPt */
MIRP[11100]	/* MoveIndirectRelPt */
MIRP[01100]	/* MoveIndirectRelPt */
SRP0[ ]	/* SetRefPoint0 */
MIRP[01110]	/* MoveIndirectRelPt */
IUP[0]	/* InterpolateUntPts */
MPPEM[ ]	/* MeasurePixelPerEm */
GTEQ[ ]	/* GreaterThanOrEqual */
IF[ ]	/* If */
SPVTL[1]	/* SetPVectorToLine */
SRP0[ ]	/* SetRefPoint0 */
SFVTCA[1]	/* SetFVectorToAxis */
MIRP[01101]	/* MoveIndirectRelPt */
SPVTL[1]	/* SetPVectorToLine */
SRP0[ ]	/* SetRefPoint0 */
SFVTCA[1]	/* SetFVectorToAxis */
MIRP[01101]	/* MoveIndirectRelPt */
SRP1[ ]	/* SetRefPoint1 */
SLOOP[ ]	/* SetLoopVariable */
IP[ ]	/* InterpolatePts */
SPVTL[1]	/* SetPVectorToLine */
SRP0[ ]	/* SetRefPoint0 */
SFVTCA[1]	/* SetFVectorToAxis */
MIRP[01101]	/* MoveIndirectRelPt */
SPVTL[1]	/* SetPVectorToLine */
SRP0[ ]	/* SetRefPoint0 */
SFVTCA[1]	/* SetFVectorToAxis */
MIRP[01101]	/* MoveIndirectRelPt */
EIF[ ]	/* EndIf */
CLEAR[ ]	/* ClearStack */";
};
width = 1233;
}
);
note = semicolon;
unicode = 59;
},
{
glyphname = less;
layers = (
{
layerId = m01;
shapes = (
{
closed = 1;
nodes = (
(88,725,l),
(88,559,l),
(1145,141,l),
(1145,324,l),
(295,641,l),
(1145,961,l),
(1145,1143,l)
);
}
);
userData = {
assembly = "NPUSHB[ ]	/* 18 values pushed */
5 4 2 1 0 5 3 119 6 118 7 1 2 0 22 4 21 7
SRP0[ ]	/* SetRefPoint0 */
MIRP[11100]	/* MoveIndirectRelPt */
MIRP[01100]	/* MoveIndirectRelPt */
SHP[0]	/* ShiftPointByLastPoint */
IP[ ]	/* InterpolatePts */
IUP[1]	/* InterpolateUntPts */
SVTCA[0]	/* SetFreedomAndProjectionVectorToAxis */
SRP0[ ]	/* SetRefPoint0 */
MIRP[10100]	/* MoveIndirectRelPt */
MIRP[01100]	/* MoveIndirectRelPt */
SLOOP[ ]	/* SetLoopVariable */
IP[ ]	/* InterpolatePts */
IUP[0]	/* InterpolateUntPts */";
};
width = 1233;
}
);
note = less;
unicode = 60;
},
{
glyphname = equal;
lastChange = "2026-05-14 15:09:56 +0000";
layers = (
{
layerId = m01;
shapes = (
{
closed = 1;
nodes = (
(1145,319,l),
(1145,489,l),
(88,489,l),
(88,319,l)
);
},
{
closed = 1;
nodes = (
(1145,795,l),
(1145,965,l),
(88,965,l),
(88,795,l)
);
}
);
userData = {
assembly = "NPUSHB[ ]	/* 12 values pushed */
4 108 6 2 108 0 8 5 1 4 0 8
SRP0[ ]	/* SetRefPoint0 */
MDRP[10100]	/* MoveDirectRelPt */
ALIGNRP[ ]	/* AlignRelativePt */
MDRP[00100]	/* MoveDirectRelPt */
SHP[0]	/* ShiftPointByLastPoint */
IUP[1]	/* InterpolateUntPts */
SVTCA[0]	/* SetFreedomAndProjectionVectorToAxis */
SRP0[ ]	/* SetRefPoint0 */
MDRP[10100]	/* MoveDirectRelPt */
MIRP[01100]	/* MoveIndirectRelPt */
MDRP[10100]	/* MoveDirectRelPt */
MIRP[01100]	/* MoveIndirectRelPt */
IUP[0]	/* InterpolateUntPts */";
};
width = 1233;
}
);
note = equal;
unicode = 61;
},
{
glyphname = greater;
layers = (
{
layerId = m01;
shapes = (
{
closed = 1;
nodes = (
(88,324,l),
(88,141,l),
(1145,559,l),
(1145,725,l),
(88,1143,l),
(88,961,l),
(938,641,l)
);
}
);
userData = {
assembly = "NPUSHB[ ]	/* 18 values pushed */
6 5 3 2 0 5 4 119 1 118 7 6 2 22 4 0 21 7
SRP0[ ]	/* SetRefPoint0 */
MIRP[11100]	/* MoveIndirectRelPt */
ALIGNRP[ ]	/* AlignRelativePt */
MIRP[01100]	/* MoveIndirectRelPt */
IP[ ]	/* InterpolatePts */
IUP[1]	/* InterpolateUntPts */
SVTCA[0]	/* SetFreedomAndProjectionVectorToAxis */
SRP0[ ]	/* SetRefPoint0 */
MIRP[10100]	/* MoveIndirectRelPt */
MIRP[01100]	/* MoveIndirectRelPt */
SLOOP[ ]	/* SetLoopVariable */
IP[ ]	/* InterpolatePts */
IUP[0]	/* InterpolateUntPts */";
};
width = 1233;
}
);
note = greater;
unicode = 62;
},
{
glyphname = question;
layers = (
{
layerId = m01;
shapes = (
{
closed = 1;
nodes = (
(644,610,o),
(704,712,o),
(788,782,qs),
(893,868,ls),
(1023,976,o),
(1120,1137,o),
(1120,1231,qs),
(1120,1357,o),
(927,1520,o),
(774,1520,qs),
(673,1520,o),
(471,1464,o),
(362,1407,q),
(326,1219,l),
(431,1285,o),
(628,1356,o),
(707,1356,qs),
(806,1356,o),
(918,1274,o),
(918,1200,qs),
(918,1144,o),
(847,1033,o),
(762,961,qs),
(655,870,ls),
(542,776,o),
(465,646,o),
(446,555,qs),
(418,401,l),
(608,401,l),
(629,524,ls)
);
},
{
closed = 1;
nodes = (
(537,0,l),
(586,254,l),
(383,254,l),
(332,0,l)
);
}
);
userData = {
assembly = "NPUSHB[ ]	/* 72 values pushed */
0 5 1 2 1 23 24 25 26 27 28 6 22 29 5 2 2 1 32 5 33 30 33 31 5 30 33 58 29 26 5 2 4 6 25 15 0 30 16 99 15 12 99 19 97 30 83 32 32 31 29 26 6 5 2 1 0 9 9 16 33 25 30 9 18 22 15 30 2 33 15 34
SRP0[ ]	/* SetRefPoint0 */
MDRP[00100]	/* MoveDirectRelPt */
MDRP[10100]	/* MoveDirectRelPt */
MIRP[00100]	/* MoveIndirectRelPt */
SRP0[ ]	/* SetRefPoint0 */
MDRP[10110]	/* MoveDirectRelPt */
MIRP[01110]	/* MoveIndirectRelPt */
SRP1[ ]	/* SetRefPoint1 */
IP[ ]	/* InterpolatePts */
SRP2[ ]	/* SetRefPoint2 */
IP[ ]	/* InterpolatePts */
SRP2[ ]	/* SetRefPoint2 */
SLOOP[ ]	/* SetLoopVariable */
IP[ ]	/* InterpolatePts */
IUP[1]	/* InterpolateUntPts */
SVTCA[0]	/* SetFreedomAndProjectionVectorToAxis */
MDAP[1]	/* MoveDirectAbsPt */
MIRP[01110]	/* MoveIndirectRelPt */
MIRP[10110]	/* MoveIndirectRelPt */
MIRP[11110]	/* MoveIndirectRelPt */
MDRP[10100]	/* MoveDirectRelPt */
MIRP[01110]	/* MoveIndirectRelPt */
SRP0[ ]	/* SetRefPoint0 */
MDRP[00101]	/* MoveDirectRelPt */
SRP1[ ]	/* SetRefPoint1 */
IP[ ]	/* InterpolatePts */
IP[ ]	/* InterpolatePts */
SLOOP[ ]	/* SetLoopVariable */
IP[ ]	/* InterpolatePts */
IUP[0]	/* InterpolateUntPts */
MPPEM[ ]	/* MeasurePixelPerEm */
GTEQ[ ]	/* GreaterThanOrEqual */
IF[ ]	/* If */
SPVTL[1]	/* SetPVectorToLine */
SFVTCA[1]	/* SetFVectorToAxis */
MIRP[01101]	/* MoveIndirectRelPt */
SPVTL[1]	/* SetPVectorToLine */
SRP0[ ]	/* SetRefPoint0 */
SFVTCA[1]	/* SetFVectorToAxis */
MIRP[01101]	/* MoveIndirectRelPt */
SPVTL[1]	/* SetPVectorToLine */
SRP0[ ]	/* SetRefPoint0 */
SFVTCA[1]	/* SetFVectorToAxis */
MIRP[01101]	/* MoveIndirectRelPt */
SRP1[ ]	/* SetRefPoint1 */
SLOOP[ ]	/* SetLoopVariable */
IP[ ]	/* InterpolatePts */
SPVTL[1]	/* SetPVectorToLine */
SRP0[ ]	/* SetRefPoint0 */
SFVTCA[1]	/* SetFVectorToAxis */
MIRP[01101]	/* MoveIndirectRelPt */
EIF[ ]	/* EndIf */
CLEAR[ ]	/* ClearStack */";
};
width = 1233;
}
);
note = question;
unicode = 63;
},
{
glyphname = at;
layers = (
{
layerId = m01;
shapes = (
{
closed = 1;
nodes = (
(524,372,o),
(524,469,qs),
(524,620,o),
(696,829,o),
(819,829,qs),
(907,829,o),
(1008,719,o),
(1008,623,qs),
(1008,471,o),
(834,260,o),
(709,260,qs),
(623,260,o)
);
},
{
closed = 1;
nodes = (
(1205,905,o),
(1214,982,o),
(1214,1012,qs),
(1214,1188,o),
(990,1397,o),
(801,1397,qs),
(642,1397,o),
(348,1255,o),
(238,1124,qs),
(114,979,o),
(-29,580,o),
(-29,379,qs),
(-29,62,o),
(318,-317,o),
(606,-317,qs),
(689,-317,o),
(831,-287,o),
(897,-256,q),
(852,-125,l),
(785,-151,o),
(665,-176,o),
(608,-176,qs),
(383,-176,o),
(125,118,o),
(125,375,qs),
(125,532,o),
(213,831,o),
(297,956,qs),
(392,1099,o),
(655,1255,o),
(797,1255,qs),
(927,1255,o),
(1073,1115,o),
(1073,989,qs),
(1073,974,o),
(1067,922,o),
(1061,887,qs),
(1053,844,l),
(1024,905,o),
(895,977,o),
(811,977,qs),
(629,977,o),
(365,664,o),
(365,444,qs),
(365,299,o),
(531,115,o),
(662,115,qs),
(743,115,o),
(885,183,o),
(936,246,q),
(915,135,l),
(1059,135,l),
(1196,858,ls)
);
}
);
userData = {
assembly = "NPUSHB[ ]	/* 53 values pushed */
46 49 42 26 64 27 23 6 14 12 0 6 120 23 0 120 12 17 45 42 120 49 23 33 120 49 58 65 64 61 27 13 12 3 4 14 26 45 46 4 30 9 24 20 30 23 61 20 39 24 61 52 65
SRP0[ ]	/* SetRefPoint0 */
MDRP[10100]	/* MoveDirectRelPt */
MDRP[00100]	/* MoveDirectRelPt */
MIRP[11100]	/* MoveIndirectRelPt */
MDRP[00100]	/* MoveDirectRelPt */
SRP0[ ]	/* SetRefPoint0 */
MIRP[01110]	/* MoveIndirectRelPt */
SRP0[ ]	/* SetRefPoint0 */
MIRP[01110]	/* MoveIndirectRelPt */
SRP1[ ]	/* SetRefPoint1 */
SLOOP[ ]	/* SetLoopVariable */
IP[ ]	/* InterpolatePts */
SLOOP[ ]	/* SetLoopVariable */
IP[ ]	/* InterpolatePts */
SRP2[ ]	/* SetRefPoint2 */
IP[ ]	/* InterpolatePts */
IUP[1]	/* InterpolateUntPts */
SVTCA[0]	/* SetFreedomAndProjectionVectorToAxis */
SRP0[ ]	/* SetRefPoint0 */
MDRP[10100]	/* MoveDirectRelPt */
MDRP[00100]	/* MoveDirectRelPt */
MIRP[11100]	/* MoveIndirectRelPt */
MDRP[00100]	/* MoveDirectRelPt */
SRP0[ ]	/* SetRefPoint0 */
MIRP[11110]	/* MoveIndirectRelPt */
MDRP[00100]	/* MoveDirectRelPt */
MDRP[10101]	/* MoveDirectRelPt */
MDRP[00100]	/* MoveDirectRelPt */
MIRP[01110]	/* MoveIndirectRelPt */
SRP0[ ]	/* SetRefPoint0 */
MIRP[01110]	/* MoveIndirectRelPt */
SRP1[ ]	/* SetRefPoint1 */
SRP2[ ]	/* SetRefPoint2 */
IP[ ]	/* InterpolatePts */
SRP1[ ]	/* SetRefPoint1 */
SRP2[ ]	/* SetRefPoint2 */
IP[ ]	/* InterpolatePts */
IP[ ]	/* InterpolatePts */
IP[ ]	/* InterpolatePts */
SRP1[ ]	/* SetRefPoint1 */
SRP2[ ]	/* SetRefPoint2 */
IP[ ]	/* InterpolatePts */
IUP[0]	/* InterpolateUntPts */
NPUSHB[ ]	/* 9 values pushed */
148 1 148 2 150 3 150 4 4
SVTCA[1]	/* SetFreedomAndProjectionVectorToAxis */
DELTAP1[ ]	/* DeltaExceptionP1 */";
};
width = 1233;
}
);
note = at;
unicode = 64;
},
{
glyphname = A;
layers = (
{
layerId = m01;
shapes = (
{
closed = 1;
nodes = (
(371,551,l),
(735,1325,l),
(801,551,l)
);
},
{
closed = 1;
nodes = (
(111,0,l),
(295,389,l),
(815,389,l),
(850,0,l),
(1051,0,l),
(885,1493,l),
(639,1493,l),
(-106,0,l)
);
}
);
userData = {
assembly = "NPUSHB[ ]	/* 66 values pushed */
2 5 5 5 4 0 5 2 0 4 5 4 7 5 5 4 6 5 5 5 4 9 5 3 10 8 5 3 10 1 5 10 3 10 0 5 2 0 3 3 10 58 0 3 7 99 1 121 3 81 9 5 9 8 7 6 4 3 2 1 0 9 11 5 10 11
SRP0[ ]	/* SetRefPoint0 */
MDRP[10100]	/* MoveDirectRelPt */
MDRP[00100]	/* MoveDirectRelPt */
SRP1[ ]	/* SetRefPoint1 */
SLOOP[ ]	/* SetLoopVariable */
IP[ ]	/* InterpolatePts */
IUP[1]	/* InterpolateUntPts */
SVTCA[0]	/* SetFreedomAndProjectionVectorToAxis */
MDAP[1]	/* MoveDirectAbsPt */
ALIGNRP[ ]	/* AlignRelativePt */
MIRP[00100]	/* MoveIndirectRelPt */
MIRP[10100]	/* MoveIndirectRelPt */
MIRP[01100]	/* MoveIndirectRelPt */
SRP2[ ]	/* SetRefPoint2 */
IP[ ]	/* InterpolatePts */
IUP[0]	/* InterpolateUntPts */
MPPEM[ ]	/* MeasurePixelPerEm */
GTEQ[ ]	/* GreaterThanOrEqual */
IF[ ]	/* If */
SPVTL[1]	/* SetPVectorToLine */
SRP0[ ]	/* SetRefPoint0 */
SFVTL[0]	/* SetFVectorToLine */
MIRP[01101]	/* MoveIndirectRelPt */
SPVTL[1]	/* SetPVectorToLine */
SRP0[ ]	/* SetRefPoint0 */
SFVTCA[1]	/* SetFVectorToAxis */
MIRP[01101]	/* MoveIndirectRelPt */
SPVTL[1]	/* SetPVectorToLine */
SFVTCA[1]	/* SetFVectorToAxis */
MIRP[01101]	/* MoveIndirectRelPt */
SPVTL[1]	/* SetPVectorToLine */
SFVTCA[1]	/* SetFVectorToAxis */
MIRP[01101]	/* MoveIndirectRelPt */
SPVTL[1]	/* SetPVectorToLine */
SRP0[ ]	/* SetRefPoint0 */
SFVTCA[1]	/* SetFVectorToAxis */
MIRP[01101]	/* MoveIndirectRelPt */
SPVTL[1]	/* SetPVectorToLine */
SFVTCA[1]	/* SetFVectorToAxis */
MIRP[01101]	/* MoveIndirectRelPt */
SPVTL[1]	/* SetPVectorToLine */
SRP0[ ]	/* SetRefPoint0 */
SFVTL[0]	/* SetFVectorToLine */
MIRP[01101]	/* MoveIndirectRelPt */
SPVTL[1]	/* SetPVectorToLine */
SRP0[ ]	/* SetRefPoint0 */
SFVTCA[1]	/* SetFVectorToAxis */
MIRP[01101]	/* MoveIndirectRelPt */
EIF[ ]	/* EndIf */
CLEAR[ ]	/* ClearStack */";
};
width = 1233;
}
);
note = A;
unicode = 65;
},
{
glyphname = B;
layers = (
{
layerId = m01;
shapes = (
{
closed = 1;
nodes = (
(749,713,o),
(885,611,o),
(885,504,qs),
(885,340,o),
(690,166,o),
(506,166,qs),
(258,166,l),
(365,713,l),
(606,713,ls)
);
},
{
closed = 1;
nodes = (
(852,1327,o),
(963,1243,o),
(963,1149,qs),
(963,1022,o),
(790,877,o),
(639,877,qs),
(395,877,l),
(483,1327,l),
(727,1327,ls)
);
},
{
closed = 1;
nodes = (
(475,0,ls),
(766,0,o),
(1085,260,o),
(1085,494,qs),
(1085,618,o),
(952,776,o),
(827,799,q),
(983,819,o),
(1167,1026,o),
(1167,1180,qs),
(1167,1334,o),
(959,1493,o),
(756,1493,qs),
(313,1493,l),
(23,0,l)
);
}
);
userData = {
assembly = "NPUSHB[ ]	/* 64 values pushed */
0 5 18 18 32 1 5 32 18 32 11 1 12 10 5 18 32 17 1 16 9 5 18 18 32 58 25 0 99 10 9 99 18 81 1 99 10 122 31 1 32 10 9 8 2 0 5 11 17 19 25 31 5 18 5 18 28 14 25 22 18 1 32 33
SRP0[ ]	/* SetRefPoint0 */
MDRP[10100]	/* MoveDirectRelPt */
MIRP[00100]	/* MoveIndirectRelPt */
MDRP[10100]	/* MoveDirectRelPt */
MIRP[01100]	/* MoveIndirectRelPt */
MDRP[10100]	/* MoveDirectRelPt */
MIRP[01100]	/* MoveIndirectRelPt */
SRP1[ ]	/* SetRefPoint1 */
SLOOP[ ]	/* SetLoopVariable */
IP[ ]	/* InterpolatePts */
SLOOP[ ]	/* SetLoopVariable */
IP[ ]	/* InterpolatePts */
SRP2[ ]	/* SetRefPoint2 */
IP[ ]	/* InterpolatePts */
IUP[1]	/* InterpolateUntPts */
SVTCA[0]	/* SetFreedomAndProjectionVectorToAxis */
MDAP[1]	/* MoveDirectAbsPt */
MIRP[01100]	/* MoveIndirectRelPt */
MIRP[01100]	/* MoveIndirectRelPt */
MIRP[10100]	/* MoveIndirectRelPt */
MIRP[01100]	/* MoveIndirectRelPt */
SRP0[ ]	/* SetRefPoint0 */
MIRP[01110]	/* MoveIndirectRelPt */
IP[ ]	/* InterpolatePts */
IUP[0]	/* InterpolateUntPts */
MPPEM[ ]	/* MeasurePixelPerEm */
GTEQ[ ]	/* GreaterThanOrEqual */
IF[ ]	/* If */
SPVTL[1]	/* SetPVectorToLine */
SRP0[ ]	/* SetRefPoint0 */
SFVTCA[1]	/* SetFVectorToAxis */
MIRP[01101]	/* MoveIndirectRelPt */
SRP1[ ]	/* SetRefPoint1 */
SLOOP[ ]	/* SetLoopVariable */
IP[ ]	/* InterpolatePts */
SPVTL[1]	/* SetPVectorToLine */
SFVTCA[1]	/* SetFVectorToAxis */
MIRP[01101]	/* MoveIndirectRelPt */
SRP1[ ]	/* SetRefPoint1 */
SLOOP[ ]	/* SetLoopVariable */
IP[ ]	/* InterpolatePts */
SPVTL[1]	/* SetPVectorToLine */
SRP0[ ]	/* SetRefPoint0 */
SFVTCA[1]	/* SetFVectorToAxis */
MIRP[01101]	/* MoveIndirectRelPt */
SPVTL[1]	/* SetPVectorToLine */
SRP0[ ]	/* SetRefPoint0 */
SFVTCA[1]	/* SetFVectorToAxis */
MIRP[01101]	/* MoveIndirectRelPt */
EIF[ ]	/* EndIf */
CLEAR[ ]	/* ClearStack */";
};
width = 1233;
}
);
note = B;
unicode = 66;
},
{
glyphname = C;
layers = (
{
layerId = m01;
shapes = (
{
closed = 1;
nodes = (
(895,199,o),
(714,135,o),
(629,135,qs),
(482,135,o),
(326,319,o),
(326,492,qs),
(326,685,o),
(453,1069,o),
(557,1192,qs),
(628,1275,o),
(790,1356,o),
(885,1356,qs),
(965,1356,o),
(1107,1294,o),
(1171,1231,q),
(1212,1438,l),
(1137,1478,o),
(979,1520,o),
(899,1520,qs),
(734,1520,o),
(476,1396,o),
(369,1266,qs),
(255,1129,o),
(115,697,o),
(115,477,qs),
(115,237,o),
(368,-29,o),
(598,-29,qs),
(689,-29,o),
(860,12,o),
(944,53,q),
(983,260,l)
);
}
);
userData = {
assembly = "NPUSHB[ ]	/* 27 values pushed */
31 124 0 123 28 99 3 16 124 15 123 19 99 12 97 3 101 32 31 16 0 15 25 25 15 6 32
SRP0[ ]	/* SetRefPoint0 */
MDRP[10100]	/* MoveDirectRelPt */
MDRP[00100]	/* MoveDirectRelPt */
MIRP[01100]	/* MoveIndirectRelPt */
SRP1[ ]	/* SetRefPoint1 */
IP[ ]	/* InterpolatePts */
IP[ ]	/* InterpolatePts */
IP[ ]	/* InterpolatePts */
IUP[1]	/* InterpolateUntPts */
SVTCA[0]	/* SetFreedomAndProjectionVectorToAxis */
SRP0[ ]	/* SetRefPoint0 */
MIRP[00100]	/* MoveIndirectRelPt */
MIRP[10100]	/* MoveIndirectRelPt */
MIRP[01100]	/* MoveIndirectRelPt */
MIRP[10100]	/* MoveIndirectRelPt */
MIRP[01100]	/* MoveIndirectRelPt */
SRP0[ ]	/* SetRefPoint0 */
MIRP[01110]	/* MoveIndirectRelPt */
MIRP[10110]	/* MoveIndirectRelPt */
MIRP[01110]	/* MoveIndirectRelPt */
IUP[0]	/* InterpolateUntPts */";
};
width = 1233;
}
);
note = C;
unicode = 67;
},
{
glyphname = D;
layers = (
{
layerId = m01;
shapes = (
{
closed = 1;
nodes = (
(453,1327,l),
(567,1327,ls),
(760,1327,o),
(924,1175,o),
(924,999,qs),
(924,866,o),
(855,547,o),
(801,432,qs),
(733,291,o),
(509,166,o),
(324,166,qs),
(227,166,l)
);
},
{
closed = 1;
nodes = (
(-8,0,l),
(295,0,ls),
(560,0,o),
(871,163,o),
(975,354,qs),
(1046,487,o),
(1130,831,o),
(1130,993,qs),
(1130,1245,o),
(859,1493,o),
(586,1493,qs),
(283,1493,l)
);
}
);
userData = {
assembly = "NPUSHB[ ]	/* 40 values pushed */
0 1 1 11 5 22 23 22 9 1 8 10 5 23 23 22 58 9 99 12 81 0 99 21 11 24 10 9 0 3 21 12 23 6 25 15 23 1 22 24
SRP0[ ]	/* SetRefPoint0 */
MDRP[10100]	/* MoveDirectRelPt */
MIRP[00100]	/* MoveIndirectRelPt */
MDRP[10100]	/* MoveDirectRelPt */
MIRP[01100]	/* MoveIndirectRelPt */
SRP1[ ]	/* SetRefPoint1 */
IP[ ]	/* InterpolatePts */
IP[ ]	/* InterpolatePts */
SLOOP[ ]	/* SetLoopVariable */
IP[ ]	/* InterpolatePts */
SRP2[ ]	/* SetRefPoint2 */
IP[ ]	/* InterpolatePts */
IUP[1]	/* InterpolateUntPts */
SVTCA[0]	/* SetFreedomAndProjectionVectorToAxis */
MDAP[1]	/* MoveDirectAbsPt */
MIRP[01100]	/* MoveIndirectRelPt */
MIRP[10100]	/* MoveIndirectRelPt */
MIRP[01100]	/* MoveIndirectRelPt */
IUP[0]	/* InterpolateUntPts */
MPPEM[ ]	/* MeasurePixelPerEm */
GTEQ[ ]	/* GreaterThanOrEqual */
IF[ ]	/* If */
SPVTL[1]	/* SetPVectorToLine */
SRP0[ ]	/* SetRefPoint0 */
SFVTCA[1]	/* SetFVectorToAxis */
MIRP[01101]	/* MoveIndirectRelPt */
SRP1[ ]	/* SetRefPoint1 */
SLOOP[ ]	/* SetLoopVariable */
IP[ ]	/* InterpolatePts */
SPVTL[1]	/* SetPVectorToLine */
SRP0[ ]	/* SetRefPoint0 */
SFVTCA[1]	/* SetFVectorToAxis */
MIRP[01101]	/* MoveIndirectRelPt */
SRP1[ ]	/* SetRefPoint1 */
SLOOP[ ]	/* SetLoopVariable */
IP[ ]	/* InterpolatePts */
EIF[ ]	/* EndIf */
CLEAR[ ]	/* ClearStack */";
};
width = 1233;
}
);
note = D;
unicode = 68;
},
{
glyphname = E;
layers = (
{
layerId = m01;
shapes = (
{
closed = 1;
nodes = (
(958,0,l),
(991,170,l),
(289,170,l),
(393,711,l),
(1047,711,l),
(1079,881,l),
(426,881,l),
(512,1323,l),
(1196,1323,l),
(1229,1493,l),
(344,1493,l),
(53,0,l)
);
}
);
userData = {
assembly = "NPUSHB[ ]	/* 48 values pushed */
8 5 11 0 11 7 5 0 11 4 5 0 11 3 5 0 0 11 58 6 99 4 2 99 0 81 8 99 4 122 10 8 11 10 9 7 6 5 4 3 2 8 0 1 0 1 11 12
SRP0[ ]	/* SetRefPoint0 */
MDRP[10100]	/* MoveDirectRelPt */
MIRP[00100]	/* MoveIndirectRelPt */
MDRP[00100]	/* MoveDirectRelPt */
SRP1[ ]	/* SetRefPoint1 */
SLOOP[ ]	/* SetLoopVariable */
IP[ ]	/* InterpolatePts */
SRP2[ ]	/* SetRefPoint2 */
IP[ ]	/* InterpolatePts */
IUP[1]	/* InterpolateUntPts */
SVTCA[0]	/* SetFreedomAndProjectionVectorToAxis */
MDAP[1]	/* MoveDirectAbsPt */
MIRP[01100]	/* MoveIndirectRelPt */
MIRP[01100]	/* MoveIndirectRelPt */
MIRP[10100]	/* MoveIndirectRelPt */
MIRP[01100]	/* MoveIndirectRelPt */
SRP0[ ]	/* SetRefPoint0 */
MIRP[01110]	/* MoveIndirectRelPt */
IUP[0]	/* InterpolateUntPts */
MPPEM[ ]	/* MeasurePixelPerEm */
GTEQ[ ]	/* GreaterThanOrEqual */
IF[ ]	/* If */
SPVTL[1]	/* SetPVectorToLine */
SRP0[ ]	/* SetRefPoint0 */
SFVTCA[1]	/* SetFVectorToAxis */
MIRP[01101]	/* MoveIndirectRelPt */
SPVTL[1]	/* SetPVectorToLine */
SFVTCA[1]	/* SetFVectorToAxis */
MIRP[01101]	/* MoveIndirectRelPt */
SPVTL[1]	/* SetPVectorToLine */
SFVTCA[1]	/* SetFVectorToAxis */
MIRP[01101]	/* MoveIndirectRelPt */
SPVTL[1]	/* SetPVectorToLine */
SRP0[ ]	/* SetRefPoint0 */
SFVTCA[1]	/* SetFVectorToAxis */
MIRP[01101]	/* MoveIndirectRelPt */
EIF[ ]	/* EndIf */
CLEAR[ ]	/* ClearStack */";
};
width = 1233;
}
);
note = E;
unicode = 69;
},
{
glyphname = F;
layers = (
{
layerId = m01;
shapes = (
{
closed = 1;
nodes = (
(295,0,l),
(434,713,l),
(1047,713,l),
(1079,883,l),
(467,883,l),
(553,1323,l),
(1229,1323,l),
(1262,1493,l),
(383,1493,l),
(92,0,l)
);
}
);
userData = {
assembly = "NPUSHB[ ]	/* 44 values pushed */
8 5 9 0 9 7 5 0 9 4 5 0 9 3 5 0 0 9 58 6 99 4 2 99 0 81 4 122 8 8 9 7 6 5 4 3 2 6 0 1 0 1 9 10
SRP0[ ]	/* SetRefPoint0 */
MDRP[10100]	/* MoveDirectRelPt */
MIRP[00100]	/* MoveIndirectRelPt */
MDRP[00100]	/* MoveDirectRelPt */
SRP1[ ]	/* SetRefPoint1 */
SLOOP[ ]	/* SetLoopVariable */
IP[ ]	/* InterpolatePts */
SRP2[ ]	/* SetRefPoint2 */
IP[ ]	/* InterpolatePts */
IUP[1]	/* InterpolateUntPts */
SVTCA[0]	/* SetFreedomAndProjectionVectorToAxis */
MDAP[1]	/* MoveDirectAbsPt */
MIRP[01100]	/* MoveIndirectRelPt */
MIRP[10100]	/* MoveIndirectRelPt */
MIRP[01100]	/* MoveIndirectRelPt */
SRP0[ ]	/* SetRefPoint0 */
MIRP[01110]	/* MoveIndirectRelPt */
IUP[0]	/* InterpolateUntPts */
MPPEM[ ]	/* MeasurePixelPerEm */
GTEQ[ ]	/* GreaterThanOrEqual */
IF[ ]	/* If */
SPVTL[1]	/* SetPVectorToLine */
SRP0[ ]	/* SetRefPoint0 */
SFVTCA[1]	/* SetFVectorToAxis */
MIRP[01101]	/* MoveIndirectRelPt */
SPVTL[1]	/* SetPVectorToLine */
SFVTCA[1]	/* SetFVectorToAxis */
MIRP[01101]	/* MoveIndirectRelPt */
SPVTL[1]	/* SetPVectorToLine */
SFVTCA[1]	/* SetFVectorToAxis */
MIRP[01101]	/* MoveIndirectRelPt */
SPVTL[1]	/* SetPVectorToLine */
SRP0[ ]	/* SetRefPoint0 */
SFVTCA[1]	/* SetFVectorToAxis */
MIRP[01101]	/* MoveIndirectRelPt */
EIF[ ]	/* EndIf */
CLEAR[ ]	/* ClearStack */";
};
width = 1233;
}
);
note = F;
unicode = 70;
},
{
glyphname = G;
layers = (
{
layerId = m01;
shapes = (
{
closed = 1;
nodes = (
(692,766,l),
(662,600,l),
(879,600,l),
(803,207,l),
(766,172,o),
(658,135,o),
(590,135,qs),
(445,135,o),
(287,321,o),
(287,492,qs),
(287,573,o),
(322,773,o),
(356,887,qs),
(386,984,o),
(464,1140,o),
(508,1192,qs),
(576,1273,o),
(748,1356,o),
(846,1356,qs),
(927,1356,o),
(1070,1294,o),
(1135,1231,q),
(1176,1438,l),
(1099,1478,o),
(940,1520,o),
(860,1520,qs),
(694,1520,o),
(435,1396,o),
(328,1266,qs),
(272,1199,o),
(178,1010,o),
(143,893,qs),
(111,782,o),
(78,579,o),
(78,489,qs),
(78,240,o),
(327,-29,o),
(559,-29,qs),
(676,-29,o),
(882,34,o),
(969,96,q),
(1102,766,l)
);
}
);
userData = {
assembly = "NPUSHB[ ]	/* 51 values pushed */
38 5 41 0 41 35 36 2 34 37 5 0 0 41 58 37 38 0 34 3 38 99 40 34 99 3 19 124 18 123 22 99 15 97 3 101 42 40 39 38 37 4 0 31 19 41 18 31 25 6 42
SRP0[ ]	/* SetRefPoint0 */
MDRP[10100]	/* MoveDirectRelPt */
MIRP[01100]	/* MoveIndirectRelPt */
MDRP[10100]	/* MoveDirectRelPt */
MDRP[00100]	/* MoveDirectRelPt */
IP[ ]	/* InterpolatePts */
SRP1[ ]	/* SetRefPoint1 */
IP[ ]	/* InterpolatePts */
SLOOP[ ]	/* SetLoopVariable */
IP[ ]	/* InterpolatePts */
IUP[1]	/* InterpolateUntPts */
SVTCA[0]	/* SetFreedomAndProjectionVectorToAxis */
SRP0[ ]	/* SetRefPoint0 */
MIRP[00100]	/* MoveIndirectRelPt */
MIRP[10100]	/* MoveIndirectRelPt */
MIRP[01100]	/* MoveIndirectRelPt */
MIRP[10100]	/* MoveIndirectRelPt */
MIRP[01100]	/* MoveIndirectRelPt */
SRP0[ ]	/* SetRefPoint0 */
MIRP[11110]	/* MoveIndirectRelPt */
MDRP[10100]	/* MoveDirectRelPt */
MIRP[01110]	/* MoveIndirectRelPt */
SRP1[ ]	/* SetRefPoint1 */
SRP2[ ]	/* SetRefPoint2 */
IP[ ]	/* InterpolatePts */
SRP1[ ]	/* SetRefPoint1 */
IP[ ]	/* InterpolatePts */
IUP[0]	/* InterpolateUntPts */
MPPEM[ ]	/* MeasurePixelPerEm */
GTEQ[ ]	/* GreaterThanOrEqual */
IF[ ]	/* If */
SPVTL[1]	/* SetPVectorToLine */
SRP0[ ]	/* SetRefPoint0 */
SFVTCA[1]	/* SetFVectorToAxis */
MIRP[01101]	/* MoveIndirectRelPt */
SRP1[ ]	/* SetRefPoint1 */
SLOOP[ ]	/* SetLoopVariable */
IP[ ]	/* InterpolatePts */
SPVTL[1]	/* SetPVectorToLine */
SRP0[ ]	/* SetRefPoint0 */
SFVTCA[1]	/* SetFVectorToAxis */
MIRP[01101]	/* MoveIndirectRelPt */
EIF[ ]	/* EndIf */
CLEAR[ ]	/* ClearStack */";
};
width = 1233;
}
);
note = G;
unicode = 71;
},
{
glyphname = H;
layers = (
{
layerId = m01;
shapes = (
{
closed = 1;
nodes = (
(195,0,l),
(332,711,l),
(887,711,l),
(748,0,l),
(950,0,l),
(1241,1493,l),
(1038,1493,l),
(920,881,l),
(367,881,l),
(485,1493,l),
(283,1493,l),
(-8,0,l)
);
}
);
userData = {
assembly = "NPUSHB[ ]	/* 66 values pushed */
8 5 6 5 7 5 6 6 5 4 5 6 5 3 5 5 6 5 10 5 11 0 11 9 5 0 11 2 5 0 11 1 5 0 0 11 58 8 99 2 122 4 0 81 10 6 4 6 5 10 12 9 8 7 3 2 1 6 0 6 1 5 0 1 11 12
SRP0[ ]	/* SetRefPoint0 */
MDRP[10100]	/* MoveDirectRelPt */
MIRP[00100]	/* MoveIndirectRelPt */
MDRP[10100]	/* MoveDirectRelPt */
MIRP[00100]	/* MoveIndirectRelPt */
SRP1[ ]	/* SetRefPoint1 */
SLOOP[ ]	/* SetLoopVariable */
IP[ ]	/* InterpolatePts */
SRP2[ ]	/* SetRefPoint2 */
IP[ ]	/* InterpolatePts */
SRP1[ ]	/* SetRefPoint1 */
SRP2[ ]	/* SetRefPoint2 */
IP[ ]	/* InterpolatePts */
IUP[1]	/* InterpolateUntPts */
SVTCA[0]	/* SetFreedomAndProjectionVectorToAxis */
MDAP[1]	/* MoveDirectAbsPt */
ALIGNRP[ ]	/* AlignRelativePt */
MIRP[00100]	/* MoveIndirectRelPt */
SHP[0]	/* ShiftPointByLastPoint */
MIRP[11100]	/* MoveIndirectRelPt */
MIRP[01100]	/* MoveIndirectRelPt */
IUP[0]	/* InterpolateUntPts */
MPPEM[ ]	/* MeasurePixelPerEm */
GTEQ[ ]	/* GreaterThanOrEqual */
IF[ ]	/* If */
SPVTL[1]	/* SetPVectorToLine */
SRP0[ ]	/* SetRefPoint0 */
SFVTCA[1]	/* SetFVectorToAxis */
MIRP[01101]	/* MoveIndirectRelPt */
SPVTL[1]	/* SetPVectorToLine */
SFVTCA[1]	/* SetFVectorToAxis */
MIRP[01101]	/* MoveIndirectRelPt */
SPVTL[1]	/* SetPVectorToLine */
SFVTCA[1]	/* SetFVectorToAxis */
MIRP[01101]	/* MoveIndirectRelPt */
SPVTL[1]	/* SetPVectorToLine */
SRP0[ ]	/* SetRefPoint0 */
SFVTCA[1]	/* SetFVectorToAxis */
MIRP[01101]	/* MoveIndirectRelPt */
SPVTL[1]	/* SetPVectorToLine */
SRP0[ ]	/* SetRefPoint0 */
SFVTCA[1]	/* SetFVectorToAxis */
MIRP[01101]	/* MoveIndirectRelPt */
SPVTL[1]	/* SetPVectorToLine */
SFVTCA[1]	/* SetFVectorToAxis */
MIRP[01101]	/* MoveIndirectRelPt */
SPVTL[1]	/* SetPVectorToLine */
SRP0[ ]	/* SetRefPoint0 */
SFVTCA[1]	/* SetFVectorToAxis */
MIRP[01101]	/* MoveIndirectRelPt */
SPVTL[1]	/* SetPVectorToLine */
SFVTCA[1]	/* SetFVectorToAxis */
MIRP[01101]	/* MoveIndirectRelPt */
EIF[ ]	/* EndIf */
CLEAR[ ]	/* ClearStack */";
};
width = 1233;
}
);
note = H;
unicode = 72;
},
{
glyphname = I;
layers = (
{
layerId = m01;
shapes = (
{
closed = 1;
nodes = (
(627,1323,l),
(403,170,l),
(90,170,l),
(57,0,l),
(887,0,l),
(920,170,l),
(606,170,l),
(829,1323,l),
(1143,1323,l),
(1176,1493,l),
(346,1493,l),
(313,1323,l)
);
}
);
userData = {
assembly = "NPUSHB[ ]	/* 34 values pushed */
4 5 9 10 9 3 5 10 10 9 58 10 2 99 0 81 8 4 99 6 11 10 9 8 6 5 4 3 2 0 10 1 7 12
SRP0[ ]	/* SetRefPoint0 */
MDRP[10100]	/* MoveDirectRelPt */
MDRP[00100]	/* MoveDirectRelPt */
SLOOP[ ]	/* SetLoopVariable */
IP[ ]	/* InterpolatePts */
IUP[1]	/* InterpolateUntPts */
SVTCA[0]	/* SetFreedomAndProjectionVectorToAxis */
MDAP[1]	/* MoveDirectAbsPt */
MIRP[01100]	/* MoveIndirectRelPt */
SHP[0]	/* ShiftPointByLastPoint */
MIRP[10100]	/* MoveIndirectRelPt */
MIRP[01100]	/* MoveIndirectRelPt */
SHP[0]	/* ShiftPointByLastPoint */
IUP[0]	/* InterpolateUntPts */
MPPEM[ ]	/* MeasurePixelPerEm */
GTEQ[ ]	/* GreaterThanOrEqual */
IF[ ]	/* If */
SPVTL[1]	/* SetPVectorToLine */
SRP0[ ]	/* SetRefPoint0 */
SFVTCA[1]	/* SetFVectorToAxis */
MIRP[01101]	/* MoveIndirectRelPt */
SPVTL[1]	/* SetPVectorToLine */
SRP0[ ]	/* SetRefPoint0 */
SFVTCA[1]	/* SetFVectorToAxis */
MIRP[01101]	/* MoveIndirectRelPt */
EIF[ ]	/* EndIf */
CLEAR[ ]	/* ClearStack */";
};
width = 1233;
}
);
note = I;
unicode = 73;
},
{
glyphname = J;
layers = (
{
layerId = m01;
shapes = (
{
closed = 1;
nodes = (
(274,-29,o),
(371,-29,qs),
(609,-29,o),
(849,198,o),
(905,487,qs),
(1102,1493,l),
(518,1493,l),
(485,1323,l),
(866,1323,l),
(702,487,ls),
(662,281,o),
(521,135,o),
(379,135,qs),
(276,135,o),
(92,218,o),
(20,297,q),
(-25,61,l),
(74,17,o)
);
}
);
userData = {
assembly = "NPUSHB[ ]	/* 46 values pushed */
8 5 11 12 11 1 2 3 4 5 6 6 0 7 5 12 12 11 58 12 7 8 1 0 123 4 99 15 8 99 10 81 15 101 18 10 9 8 7 1 5 18 12 11 0 18
SRP0[ ]	/* SetRefPoint0 */
MDRP[10100]	/* MoveDirectRelPt */
MDRP[01100]	/* MoveDirectRelPt */
IP[ ]	/* InterpolatePts */
SRP1[ ]	/* SetRefPoint1 */
SLOOP[ ]	/* SetLoopVariable */
IP[ ]	/* InterpolatePts */
IUP[1]	/* InterpolateUntPts */
SVTCA[0]	/* SetFreedomAndProjectionVectorToAxis */
SRP0[ ]	/* SetRefPoint0 */
MIRP[00100]	/* MoveIndirectRelPt */
MIRP[10100]	/* MoveIndirectRelPt */
MIRP[01100]	/* MoveIndirectRelPt */
SRP0[ ]	/* SetRefPoint0 */
MIRP[01110]	/* MoveIndirectRelPt */
MIRP[10110]	/* MoveIndirectRelPt */
MDRP[00110]	/* MoveDirectRelPt */
SRP1[ ]	/* SetRefPoint1 */
IP[ ]	/* InterpolatePts */
IP[ ]	/* InterpolatePts */
IUP[0]	/* InterpolateUntPts */
MPPEM[ ]	/* MeasurePixelPerEm */
GTEQ[ ]	/* GreaterThanOrEqual */
IF[ ]	/* If */
SPVTL[1]	/* SetPVectorToLine */
SRP0[ ]	/* SetRefPoint0 */
SFVTCA[1]	/* SetFVectorToAxis */
MIRP[01101]	/* MoveIndirectRelPt */
SRP1[ ]	/* SetRefPoint1 */
SLOOP[ ]	/* SetLoopVariable */
IP[ ]	/* InterpolatePts */
SPVTL[1]	/* SetPVectorToLine */
SRP0[ ]	/* SetRefPoint0 */
SFVTCA[1]	/* SetFVectorToAxis */
MIRP[01101]	/* MoveIndirectRelPt */
EIF[ ]	/* EndIf */
CLEAR[ ]	/* ClearStack */";
};
width = 1233;
}
);
note = J;
unicode = 74;
},
{
glyphname = K;
layers = (
{
layerId = m01;
shapes = (
{
closed = 1;
nodes = (
(195,0,l),
(307,573,l),
(500,741,l),
(860,0,l),
(1079,0,l),
(651,874,l),
(1354,1493,l),
(1100,1493,l),
(358,846,l),
(485,1493,l),
(283,1493,l),
(-8,0,l)
);
}
);
userData = {
assembly = "NPUSHB[ ]	/* 59 values pushed */
8 5 9 8 5 6 5 7 5 6 6 5 10 5 0 11 9 5 8 9 11 0 11 2 5 3 2 0 11 1 5 0 0 11 58 8 5 2 3 3 0 125 10 6 10 12 8 7 6 5 2 1 6 0 4 0 1 11 12
SRP0[ ]	/* SetRefPoint0 */
MDRP[10100]	/* MoveDirectRelPt */
MIRP[00100]	/* MoveIndirectRelPt */
MDRP[01100]	/* MoveDirectRelPt */
SRP1[ ]	/* SetRefPoint1 */
SLOOP[ ]	/* SetLoopVariable */
IP[ ]	/* InterpolatePts */
SRP2[ ]	/* SetRefPoint2 */
IP[ ]	/* InterpolatePts */
IUP[1]	/* InterpolateUntPts */
SVTCA[0]	/* SetFreedomAndProjectionVectorToAxis */
MDAP[1]	/* MoveDirectAbsPt */
ALIGNRP[ ]	/* AlignRelativePt */
MIRP[01100]	/* MoveIndirectRelPt */
SHP[0]	/* ShiftPointByLastPoint */
SLOOP[ ]	/* SetLoopVariable */
IP[ ]	/* InterpolatePts */
IUP[0]	/* InterpolateUntPts */
MPPEM[ ]	/* MeasurePixelPerEm */
GTEQ[ ]	/* GreaterThanOrEqual */
IF[ ]	/* If */
SPVTL[1]	/* SetPVectorToLine */
SRP0[ ]	/* SetRefPoint0 */
SFVTCA[1]	/* SetFVectorToAxis */
MIRP[01101]	/* MoveIndirectRelPt */
SPVTL[1]	/* SetPVectorToLine */
SFVTL[0]	/* SetFVectorToLine */
MIRP[01101]	/* MoveIndirectRelPt */
SPVTL[1]	/* SetPVectorToLine */
SRP0[ ]	/* SetRefPoint0 */
SFVTL[0]	/* SetFVectorToLine */
MIRP[01101]	/* MoveIndirectRelPt */
SPVTL[1]	/* SetPVectorToLine */
SFVTCA[1]	/* SetFVectorToAxis */
MIRP[01101]	/* MoveIndirectRelPt */
SPVTL[1]	/* SetPVectorToLine */
SRP0[ ]	/* SetRefPoint0 */
SFVTCA[1]	/* SetFVectorToAxis */
MIRP[01101]	/* MoveIndirectRelPt */
SPVTL[1]	/* SetPVectorToLine */
SRP0[ ]	/* SetRefPoint0 */
SFVTL[0]	/* SetFVectorToLine */
MIRP[01101]	/* MoveIndirectRelPt */
EIF[ ]	/* EndIf */
CLEAR[ ]	/* ClearStack */";
};
width = 1233;
}
);
note = K;
unicode = 75;
},
{
glyphname = L;
layers = (
{
layerId = m01;
shapes = (
{
closed = 1;
nodes = (
(1001,0,l),
(1034,170,l),
(313,170,l),
(571,1493,l),
(369,1493,l),
(78,0,l)
);
}
);
userData = {
assembly = "NPUSHB[ ]	/* 26 values pushed */
2 5 5 0 5 1 5 0 0 5 58 2 99 0 81 4 2 5 4 1 0 3 0 1 5 6
SRP0[ ]	/* SetRefPoint0 */
MDRP[10100]	/* MoveDirectRelPt */
MIRP[00100]	/* MoveIndirectRelPt */
MDRP[00100]	/* MoveDirectRelPt */
SRP1[ ]	/* SetRefPoint1 */
IP[ ]	/* InterpolatePts */
IP[ ]	/* InterpolatePts */
SRP2[ ]	/* SetRefPoint2 */
IP[ ]	/* InterpolatePts */
IUP[1]	/* InterpolateUntPts */
SVTCA[0]	/* SetFreedomAndProjectionVectorToAxis */
MDAP[1]	/* MoveDirectAbsPt */
MIRP[00100]	/* MoveIndirectRelPt */
MIRP[01100]	/* MoveIndirectRelPt */
IUP[0]	/* InterpolateUntPts */
MPPEM[ ]	/* MeasurePixelPerEm */
GTEQ[ ]	/* GreaterThanOrEqual */
IF[ ]	/* If */
SPVTL[1]	/* SetPVectorToLine */
SRP0[ ]	/* SetRefPoint0 */
SFVTCA[1]	/* SetFVectorToAxis */
MIRP[01101]	/* MoveIndirectRelPt */
SPVTL[1]	/* SetPVectorToLine */
SRP0[ ]	/* SetRefPoint0 */
SFVTCA[1]	/* SetFVectorToAxis */
MIRP[01101]	/* MoveIndirectRelPt */
EIF[ ]	/* EndIf */
CLEAR[ ]	/* ClearStack */";
};
width = 1233;
}
);
note = L;
unicode = 76;
},
{
glyphname = M;
layers = (
{
layerId = m01;
shapes = (
{
closed = 1;
nodes = (
(127,0,l),
(383,1327,l),
(498,532,l),
(639,532,l),
(1073,1327,l),
(815,0,l),
(1001,0,l),
(1292,1493,l),
(1022,1493,l),
(608,737,l),
(498,1493,l),
(229,1493,l),
(-59,0,l)
);
}
);
userData = {
assembly = "NPUSHB[ ]	/* 68 values pushed */
10 1 2 1 9 2 1 8 2 3 2 7 3 3 2 7 5 4 5 4 6 5 5 5 4 11 5 12 0 12 10 5 0 0 12 58 10 7 2 3 0 8 3 0 125 11 5 7 3 5 4 11 13 10 9 8 6 2 1 6 0 5 1 4 0 1 12 13
SRP0[ ]	/* SetRefPoint0 */
MDRP[10100]	/* MoveDirectRelPt */
MIRP[00100]	/* MoveIndirectRelPt */
MDRP[11100]	/* MoveDirectRelPt */
MIRP[00100]	/* MoveIndirectRelPt */
SRP1[ ]	/* SetRefPoint1 */
SLOOP[ ]	/* SetLoopVariable */
IP[ ]	/* InterpolatePts */
SRP2[ ]	/* SetRefPoint2 */
IP[ ]	/* InterpolatePts */
SRP1[ ]	/* SetRefPoint1 */
SRP2[ ]	/* SetRefPoint2 */
IP[ ]	/* InterpolatePts */
IP[ ]	/* InterpolatePts */
IUP[1]	/* InterpolateUntPts */
SVTCA[0]	/* SetFreedomAndProjectionVectorToAxis */
MDAP[1]	/* MoveDirectAbsPt */
ALIGNRP[ ]	/* AlignRelativePt */
MIRP[01100]	/* MoveIndirectRelPt */
SHP[0]	/* ShiftPointByLastPoint */
MDRP[00100]	/* MoveDirectRelPt */
SRP1[ ]	/* SetRefPoint1 */
SLOOP[ ]	/* SetLoopVariable */
IP[ ]	/* InterpolatePts */
IUP[0]	/* InterpolateUntPts */
MPPEM[ ]	/* MeasurePixelPerEm */
GTEQ[ ]	/* GreaterThanOrEqual */
IF[ ]	/* If */
SPVTL[1]	/* SetPVectorToLine */
SRP0[ ]	/* SetRefPoint0 */
SFVTCA[1]	/* SetFVectorToAxis */
MIRP[01101]	/* MoveIndirectRelPt */
SPVTL[1]	/* SetPVectorToLine */
SRP0[ ]	/* SetRefPoint0 */
SFVTCA[1]	/* SetFVectorToAxis */
MIRP[01101]	/* MoveIndirectRelPt */
SPVTL[1]	/* SetPVectorToLine */
SRP0[ ]	/* SetRefPoint0 */
SFVTCA[1]	/* SetFVectorToAxis */
MIRP[01101]	/* MoveIndirectRelPt */
SPVTL[1]	/* SetPVectorToLine */
SRP0[ ]	/* SetRefPoint0 */
SFVTCA[1]	/* SetFVectorToAxis */
MIRP[01101]	/* MoveIndirectRelPt */
SPVTL[1]	/* SetPVectorToLine */
SRP0[ ]	/* SetRefPoint0 */
SFVTCA[1]	/* SetFVectorToAxis */
MDRP[01001]	/* MoveDirectRelPt */
SPVTL[1]	/* SetPVectorToLine */
SRP0[ ]	/* SetRefPoint0 */
SFVTCA[1]	/* SetFVectorToAxis */
MDRP[01001]	/* MoveDirectRelPt */
SPVTL[1]	/* SetPVectorToLine */
SFVTCA[1]	/* SetFVectorToAxis */
MDRP[01001]	/* MoveDirectRelPt */
SPVTL[1]	/* SetPVectorToLine */
SRP0[ ]	/* SetRefPoint0 */
SFVTCA[1]	/* SetFVectorToAxis */
MDRP[01001]	/* MoveDirectRelPt */
EIF[ ]	/* EndIf */
CLEAR[ ]	/* ClearStack */
PUSHB[ ]	/* 3 values pushed */
0 8 1
SVTCA[1]	/* SetFreedomAndProjectionVectorToAxis */
DELTAP1[ ]	/* DeltaExceptionP1 */
NPUSHB[ ]	/* 38 values pushed */
20 7 1 4 2 0 3 0 4 0 5 0 6 4 7 0 7 8 10 19 1 16 3 16 4 16 5 16 6 19 7 16 7 22 8 26 9 17
DELTAP1[ ]	/* DeltaExceptionP1 */
SVTCA[0]	/* SetFreedomAndProjectionVectorToAxis */
DELTAP1[ ]	/* DeltaExceptionP1 */";
};
width = 1233;
}
);
note = M;
unicode = 77;
},
{
glyphname = N;
layers = (
{
layerId = m01;
shapes = (
{
closed = 1;
nodes = (
(188,0,l),
(428,1229,l),
(692,0,l),
(948,0,l),
(1239,1493,l),
(1044,1493,l),
(805,264,l),
(541,1493,l),
(285,1493,l),
(-6,0,l)
);
}
);
userData = {
assembly = "NPUSHB[ ]	/* 60 values pushed */
6 3 2 2 1 1 3 7 7 6 3 5 4 5 4 2 5 1 2 5 5 4 8 5 9 0 9 7 5 6 7 0 0 9 58 7 2 3 0 125 8 5 3 5 4 8 10 7 6 2 1 4 0 5 1 4 0 1 9 10
SRP0[ ]	/* SetRefPoint0 */
MDRP[10100]	/* MoveDirectRelPt */
MIRP[00100]	/* MoveIndirectRelPt */
MDRP[10100]	/* MoveDirectRelPt */
MIRP[00100]	/* MoveIndirectRelPt */
SRP1[ ]	/* SetRefPoint1 */
SLOOP[ ]	/* SetLoopVariable */
IP[ ]	/* InterpolatePts */
SRP2[ ]	/* SetRefPoint2 */
IP[ ]	/* InterpolatePts */
SRP1[ ]	/* SetRefPoint1 */
SRP2[ ]	/* SetRefPoint2 */
IP[ ]	/* InterpolatePts */
IUP[1]	/* InterpolateUntPts */
SVTCA[0]	/* SetFreedomAndProjectionVectorToAxis */
MDAP[1]	/* MoveDirectAbsPt */
ALIGNRP[ ]	/* AlignRelativePt */
MIRP[01100]	/* MoveIndirectRelPt */
SHP[0]	/* ShiftPointByLastPoint */
IP[ ]	/* InterpolatePts */
IP[ ]	/* InterpolatePts */
IUP[0]	/* InterpolateUntPts */
MPPEM[ ]	/* MeasurePixelPerEm */
GTEQ[ ]	/* GreaterThanOrEqual */
IF[ ]	/* If */
SPVTL[1]	/* SetPVectorToLine */
SRP0[ ]	/* SetRefPoint0 */
SFVTL[0]	/* SetFVectorToLine */
MIRP[01101]	/* MoveIndirectRelPt */
SPVTL[1]	/* SetPVectorToLine */
SRP0[ ]	/* SetRefPoint0 */
SFVTCA[1]	/* SetFVectorToAxis */
MIRP[01101]	/* MoveIndirectRelPt */
SPVTL[1]	/* SetPVectorToLine */
SRP0[ ]	/* SetRefPoint0 */
SFVTL[0]	/* SetFVectorToLine */
MIRP[01101]	/* MoveIndirectRelPt */
SPVTL[1]	/* SetPVectorToLine */
SRP0[ ]	/* SetRefPoint0 */
SFVTCA[1]	/* SetFVectorToAxis */
MIRP[01101]	/* MoveIndirectRelPt */
SPVTL[1]	/* SetPVectorToLine */
SRP0[ ]	/* SetRefPoint0 */
SFVTCA[1]	/* SetFVectorToAxis */
MIRP[01101]	/* MoveIndirectRelPt */
SPVTL[1]	/* SetPVectorToLine */
SRP0[ ]	/* SetRefPoint0 */
SFVTCA[1]	/* SetFVectorToAxis */
MIRP[01101]	/* MoveIndirectRelPt */
EIF[ ]	/* EndIf */
CLEAR[ ]	/* ClearStack */
PUSHB[ ]	/* 3 values pushed */
8 6 1
SVTCA[1]	/* SetFreedomAndProjectionVectorToAxis */
DELTAP1[ ]	/* DeltaExceptionP1 */
NPUSHB[ ]	/* 11 values pushed */
5 1 11 6 21 1 26 6 41 6 5
DELTAP1[ ]	/* DeltaExceptionP1 */";
};
width = 1233;
}
);
note = N;
unicode = 78;
},
{
glyphname = O;
layers = (
{
layerId = m01;
shapes = (
{
closed = 1;
nodes = (
(287,271,o),
(287,414,qs),
(287,604,o),
(379,1012,o),
(455,1159,qs),
(502,1254,o),
(644,1356,o),
(729,1356,qs),
(839,1356,o),
(944,1221,o),
(944,1079,qs),
(944,889,o),
(852,477,o),
(778,332,qs),
(731,237,o),
(587,135,o),
(502,135,qs),
(392,135,o)
);
},
{
closed = 1;
nodes = (
(956,1520,o),
(754,1520,qs),
(609,1520,o),
(391,1399,o),
(303,1272,qs),
(264,1213,o),
(197,1067,o),
(168,975,qs),
(125,839,o),
(82,584,o),
(82,473,qs),
(82,217,o),
(276,-29,o),
(477,-29,qs),
(622,-29,o),
(840,92,o),
(928,219,qs),
(967,278,o),
(1034,424,o),
(1063,516,qs),
(1106,652,o),
(1151,910,o),
(1151,1020,qs),
(1151,1275,o)
);
}
);
userData = {
assembly = "NPUSHB[ ]	/* 17 values pushed */
0 99 27 9 99 39 97 27 101 42 6 25 18 15 25 30 42
SRP0[ ]	/* SetRefPoint0 */
MDRP[10100]	/* MoveDirectRelPt */
MIRP[01100]	/* MoveIndirectRelPt */
MDRP[10100]	/* MoveDirectRelPt */
MIRP[01100]	/* MoveIndirectRelPt */
IUP[1]	/* InterpolateUntPts */
SVTCA[0]	/* SetFreedomAndProjectionVectorToAxis */
SRP0[ ]	/* SetRefPoint0 */
MIRP[00100]	/* MoveIndirectRelPt */
MIRP[10100]	/* MoveIndirectRelPt */
MIRP[01100]	/* MoveIndirectRelPt */
SRP0[ ]	/* SetRefPoint0 */
MIRP[01110]	/* MoveIndirectRelPt */
IUP[0]	/* InterpolateUntPts */";
};
width = 1233;
}
);
note = O;
unicode = 79;
},
{
glyphname = P;
layers = (
{
layerId = m01;
shapes = (
{
closed = 1;
nodes = (
(875,1327,o),
(999,1224,o),
(999,1116,qs),
(999,957,o),
(802,766,o),
(637,766,qs),
(403,766,l),
(512,1327,l),
(745,1327,ls)
);
},
{
closed = 1;
nodes = (
(254,0,l),
(371,600,l),
(604,600,ls),
(884,600,o),
(1204,886,o),
(1204,1135,qs),
(1204,1309,o),
(988,1493,o),
(782,1493,qs),
(342,1493,l),
(51,0,l)
);
}
);
userData = {
assembly = "NPUSHB[ ]	/* 54 values pushed */
18 5 9 19 16 1 15 17 5 19 9 19 2 1 3 1 5 9 19 8 1 7 0 5 9 9 19 58 1 99 16 0 99 9 81 18 18 19 17 8 2 1 0 5 10 16 9 5 25 13 9 1 19 20
SRP0[ ]	/* SetRefPoint0 */
MDRP[10100]	/* MoveDirectRelPt */
MIRP[00100]	/* MoveIndirectRelPt */
MDRP[10100]	/* MoveDirectRelPt */
MIRP[01100]	/* MoveIndirectRelPt */
SRP1[ ]	/* SetRefPoint1 */
IP[ ]	/* InterpolatePts */
IP[ ]	/* InterpolatePts */
SLOOP[ ]	/* SetLoopVariable */
IP[ ]	/* InterpolatePts */
SRP2[ ]	/* SetRefPoint2 */
IP[ ]	/* InterpolatePts */
IUP[1]	/* InterpolateUntPts */
SVTCA[0]	/* SetFreedomAndProjectionVectorToAxis */
MDAP[1]	/* MoveDirectAbsPt */
MIRP[10100]	/* MoveIndirectRelPt */
MIRP[01100]	/* MoveIndirectRelPt */
MDRP[10100]	/* MoveDirectRelPt */
MIRP[01100]	/* MoveIndirectRelPt */
IUP[0]	/* InterpolateUntPts */
MPPEM[ ]	/* MeasurePixelPerEm */
GTEQ[ ]	/* GreaterThanOrEqual */
IF[ ]	/* If */
SPVTL[1]	/* SetPVectorToLine */
SRP0[ ]	/* SetRefPoint0 */
SFVTCA[1]	/* SetFVectorToAxis */
MIRP[01101]	/* MoveIndirectRelPt */
SRP1[ ]	/* SetRefPoint1 */
SLOOP[ ]	/* SetLoopVariable */
IP[ ]	/* InterpolatePts */
SPVTL[1]	/* SetPVectorToLine */
SFVTCA[1]	/* SetFVectorToAxis */
MIRP[01101]	/* MoveIndirectRelPt */
SRP1[ ]	/* SetRefPoint1 */
SLOOP[ ]	/* SetLoopVariable */
IP[ ]	/* InterpolatePts */
SPVTL[1]	/* SetPVectorToLine */
SRP0[ ]	/* SetRefPoint0 */
SFVTCA[1]	/* SetFVectorToAxis */
MIRP[01101]	/* MoveIndirectRelPt */
SRP1[ ]	/* SetRefPoint1 */
SLOOP[ ]	/* SetLoopVariable */
IP[ ]	/* InterpolatePts */
SPVTL[1]	/* SetPVectorToLine */
SFVTCA[1]	/* SetFVectorToAxis */
MIRP[01101]	/* MoveIndirectRelPt */
EIF[ ]	/* EndIf */
CLEAR[ ]	/* ClearStack */";
};
width = 1233;
}
);
note = P;
unicode = 80;
},
{
glyphname = Q;
layers = (
{
layerId = m01;
shapes = (
{
closed = 1;
nodes = (
(844,-178,l),
(690,10,l),
(769,43,o),
(909,179,o),
(963,274,qs),
(1000,341,o),
(1064,513,o),
(1094,629,qs),
(1122,740,o),
(1151,937,o),
(1151,1020,qs),
(1151,1275,o),
(956,1520,o),
(754,1520,qs),
(609,1520,o),
(391,1399,o),
(303,1272,qs),
(264,1213,o),
(197,1067,o),
(168,975,qs),
(125,839,o),
(82,584,o),
(82,473,qs),
(82,211,o),
(279,-27,o),
(494,-27,qs),
(504,-27,l),
(690,-270,l)
);
},
{
closed = 1;
nodes = (
(287,271,o),
(287,414,qs),
(287,604,o),
(379,1012,o),
(455,1159,qs),
(502,1254,o),
(644,1356,o),
(729,1356,qs),
(839,1356,o),
(944,1221,o),
(944,1079,qs),
(944,889,o),
(852,477,o),
(778,332,qs),
(731,237,o),
(587,135,o),
(502,135,qs),
(392,135,o)
);
}
);
userData = {
assembly = "NPUSHB[ ]	/* 27 values pushed */
26 27 25 28 99 0 37 99 13 97 0 101 27 46 26 1 27 25 3 43 34 25 16 43 25 4 46
SRP0[ ]	/* SetRefPoint0 */
MDRP[10100]	/* MoveDirectRelPt */
MIRP[01100]	/* MoveIndirectRelPt */
MDRP[10100]	/* MoveDirectRelPt */
MIRP[01100]	/* MoveIndirectRelPt */
SRP1[ ]	/* SetRefPoint1 */
SLOOP[ ]	/* SetLoopVariable */
IP[ ]	/* InterpolatePts */
IP[ ]	/* InterpolatePts */
IUP[1]	/* InterpolateUntPts */
SVTCA[0]	/* SetFreedomAndProjectionVectorToAxis */
SRP0[ ]	/* SetRefPoint0 */
MDRP[00100]	/* MoveDirectRelPt */
MIRP[00100]	/* MoveIndirectRelPt */
MIRP[10100]	/* MoveIndirectRelPt */
MIRP[01100]	/* MoveIndirectRelPt */
SRP0[ ]	/* SetRefPoint0 */
MIRP[01110]	/* MoveIndirectRelPt */
IP[ ]	/* InterpolatePts */
SRP2[ ]	/* SetRefPoint2 */
IP[ ]	/* InterpolatePts */
IUP[0]	/* InterpolateUntPts */";
};
width = 1233;
}
);
note = Q;
unicode = 81;
},
{
glyphname = R;
layers = (
{
layerId = m01;
shapes = (
{
closed = 1;
nodes = (
(1151,968,o),
(1151,1151,qs),
(1151,1314,o),
(924,1493,o),
(717,1493,qs),
(301,1493,l),
(12,0,l),
(215,0,l),
(338,631,l),
(530,631,ls),
(640,631,o),
(749,533,o),
(793,377,qs),
(899,0,l),
(1100,0,l),
(979,408,ls),
(925,585,o),
(838,691,o),
(766,705,q),
(944,728,o)
);
},
{
closed = 1;
nodes = (
(822,1327,o),
(948,1222,o),
(948,1110,qs),
(948,968,o),
(753,797,o),
(590,797,qs),
(371,797,l),
(473,1327,l),
(686,1327,ls)
);
}
);
userData = {
assembly = "NPUSHB[ ]	/* 82 values pushed */
9 8 7 3 10 6 5 3 4 3 5 5 4 4 3 11 5 13 12 10 5 12 13 12 22 1 23 21 5 13 12 28 1 27 20 5 13 13 12 58 6 4 0 21 3 4 21 99 9 20 99 13 81 11 4 4 17 28 22 21 20 5 10 9 6 8 25 11 13 12 3 17 14 0 13 25 25 17 13 1 12 29
SRP0[ ]	/* SetRefPoint0 */
MDRP[10100]	/* MoveDirectRelPt */
MIRP[00100]	/* MoveIndirectRelPt */
MDRP[10100]	/* MoveDirectRelPt */
MIRP[01100]	/* MoveIndirectRelPt */
SRP1[ ]	/* SetRefPoint1 */
IP[ ]	/* InterpolatePts */
IP[ ]	/* InterpolatePts */
SRP1[ ]	/* SetRefPoint1 */
IP[ ]	/* InterpolatePts */
SRP1[ ]	/* SetRefPoint1 */
SRP2[ ]	/* SetRefPoint2 */
IP[ ]	/* InterpolatePts */
SRP1[ ]	/* SetRefPoint1 */
SLOOP[ ]	/* SetLoopVariable */
IP[ ]	/* InterpolatePts */
SRP2[ ]	/* SetRefPoint2 */
IP[ ]	/* InterpolatePts */
IUP[1]	/* InterpolateUntPts */
SVTCA[0]	/* SetFreedomAndProjectionVectorToAxis */
MDAP[1]	/* MoveDirectAbsPt */
ALIGNRP[ ]	/* AlignRelativePt */
MIRP[10100]	/* MoveIndirectRelPt */
MIRP[01100]	/* MoveIndirectRelPt */
MDRP[10100]	/* MoveDirectRelPt */
MIRP[01100]	/* MoveIndirectRelPt */
SRP2[ ]	/* SetRefPoint2 */
IP[ ]	/* InterpolatePts */
SRP2[ ]	/* SetRefPoint2 */
IP[ ]	/* InterpolatePts */
SRP2[ ]	/* SetRefPoint2 */
IP[ ]	/* InterpolatePts */
IUP[0]	/* InterpolateUntPts */
MPPEM[ ]	/* MeasurePixelPerEm */
GTEQ[ ]	/* GreaterThanOrEqual */
IF[ ]	/* If */
SPVTL[1]	/* SetPVectorToLine */
SRP0[ ]	/* SetRefPoint0 */
SFVTCA[1]	/* SetFVectorToAxis */
MIRP[01101]	/* MoveIndirectRelPt */
SRP1[ ]	/* SetRefPoint1 */
SLOOP[ ]	/* SetLoopVariable */
IP[ ]	/* InterpolatePts */
SPVTL[1]	/* SetPVectorToLine */
SFVTCA[1]	/* SetFVectorToAxis */
MIRP[01101]	/* MoveIndirectRelPt */
SRP1[ ]	/* SetRefPoint1 */
SLOOP[ ]	/* SetLoopVariable */
IP[ ]	/* InterpolatePts */
SPVTL[1]	/* SetPVectorToLine */
SRP0[ ]	/* SetRefPoint0 */
SFVTCA[1]	/* SetFVectorToAxis */
MIRP[01101]	/* MoveIndirectRelPt */
SPVTL[1]	/* SetPVectorToLine */
SFVTCA[1]	/* SetFVectorToAxis */
MIRP[01101]	/* MoveIndirectRelPt */
SPVTL[1]	/* SetPVectorToLine */
SRP0[ ]	/* SetRefPoint0 */
SFVTCA[1]	/* SetFVectorToAxis */
MIRP[01101]	/* MoveIndirectRelPt */
SPVTL[1]	/* SetPVectorToLine */
SRP0[ ]	/* SetRefPoint0 */
SFVTCA[1]	/* SetFVectorToAxis */
MIRP[01101]	/* MoveIndirectRelPt */
SRP1[ ]	/* SetRefPoint1 */
SLOOP[ ]	/* SetLoopVariable */
IP[ ]	/* InterpolatePts */
EIF[ ]	/* EndIf */
CLEAR[ ]	/* ClearStack */";
};
width = 1233;
}
);
note = R;
unicode = 82;
},
{
glyphname = S;
layers = (
{
layerId = m01;
shapes = (
{
closed = 1;
nodes = (
(871,1520,o),
(791,1520,qs),
(525,1520,o),
(195,1239,o),
(195,1018,qs),
(195,897,o),
(342,750,o),
(526,692,qs),
(627,659,ls),
(760,618,o),
(848,528,o),
(848,446,qs),
(848,311,o),
(642,135,o),
(477,135,qs),
(365,135,o),
(164,201,o),
(66,270,q),
(25,61,l),
(125,16,o),
(326,-29,o),
(430,-29,qs),
(717,-29,o),
(1049,246,o),
(1049,481,qs),
(1049,610,o),
(898,777,o),
(735,827,qs),
(614,866,ls),
(485,906,o),
(387,994,o),
(387,1065,qs),
(387,1192,o),
(595,1356,o),
(760,1356,qs),
(853,1356,o),
(1027,1296,o),
(1108,1237,q),
(1147,1442,l),
(1052,1480,o)
);
}
);
userData = {
assembly = "NPUSHB[ ]	/* 58 values pushed */
13 12 2 14 11 17 30 31 30 8 9 2 7 10 17 31 31 30 58 10 11 30 31 4 1 21 124 20 113 24 99 17 1 124 0 113 4 99 37 97 17 101 40 30 10 31 11 27 7 1 0 27 18 14 7 18 34 40
SRP0[ ]	/* SetRefPoint0 */
MDRP[10100]	/* MoveDirectRelPt */
MIRP[01100]	/* MoveIndirectRelPt */
MDRP[10100]	/* MoveDirectRelPt */
MIRP[01100]	/* MoveIndirectRelPt */
MDRP[00000]	/* MoveDirectRelPt */
MDRP[00000]	/* MoveDirectRelPt */
SRP1[ ]	/* SetRefPoint1 */
SRP2[ ]	/* SetRefPoint2 */
IP[ ]	/* InterpolatePts */
IP[ ]	/* InterpolatePts */
IP[ ]	/* InterpolatePts */
IP[ ]	/* InterpolatePts */
IUP[1]	/* InterpolateUntPts */
SVTCA[0]	/* SetFreedomAndProjectionVectorToAxis */
SRP0[ ]	/* SetRefPoint0 */
MIRP[00100]	/* MoveIndirectRelPt */
MIRP[10100]	/* MoveIndirectRelPt */
MIRP[01100]	/* MoveIndirectRelPt */
MIRP[10100]	/* MoveIndirectRelPt */
MIRP[01100]	/* MoveIndirectRelPt */
SRP0[ ]	/* SetRefPoint0 */
MIRP[01110]	/* MoveIndirectRelPt */
MIRP[10110]	/* MoveIndirectRelPt */
MIRP[01110]	/* MoveIndirectRelPt */
SRP1[ ]	/* SetRefPoint1 */
SLOOP[ ]	/* SetLoopVariable */
IP[ ]	/* InterpolatePts */
IUP[0]	/* InterpolateUntPts */
MPPEM[ ]	/* MeasurePixelPerEm */
GTEQ[ ]	/* GreaterThanOrEqual */
IF[ ]	/* If */
SPVTL[1]	/* SetPVectorToLine */
SRP0[ ]	/* SetRefPoint0 */
SFVTPV[ ]	/* SetFVectorToPVector */
MIRP[01101]	/* MoveIndirectRelPt */
SRP1[ ]	/* SetRefPoint1 */
SLOOP[ ]	/* SetLoopVariable */
IP[ ]	/* InterpolatePts */
SPVTL[1]	/* SetPVectorToLine */
SRP0[ ]	/* SetRefPoint0 */
SFVTPV[ ]	/* SetFVectorToPVector */
MIRP[01101]	/* MoveIndirectRelPt */
SRP1[ ]	/* SetRefPoint1 */
SLOOP[ ]	/* SetLoopVariable */
IP[ ]	/* InterpolatePts */
EIF[ ]	/* EndIf */
CLEAR[ ]	/* ClearStack */
PUSHB[ ]	/* 3 values pushed */
56 2 1
SVTCA[1]	/* SetFreedomAndProjectionVectorToAxis */
DELTAP1[ ]	/* DeltaExceptionP1 */
NPUSHB[ ]	/* 60 values pushed */
39 0 39 1 39 2 41 19 41 20 41 21 41 22 55 0 55 1 55 2 10 10 0 10 1 10 2 25 0 25 1 25 2 40 0 40 1 40 2 37 19 37 20 37 21 37 22 56 0 56 1 86 19 86 20 86 21 86 22 19
DELTAP1[ ]	/* DeltaExceptionP1 */
SVTCA[0]	/* SetFreedomAndProjectionVectorToAxis */
DELTAP1[ ]	/* DeltaExceptionP1 */";
};
width = 1233;
}
);
note = S;
unicode = 83;
},
{
glyphname = T;
layers = (
{
layerId = m01;
shapes = (
{
closed = 1;
nodes = (
(629,1323,l),
(371,0,l),
(575,0,l),
(831,1323,l),
(1300,1323,l),
(1333,1493,l),
(193,1493,l),
(160,1323,l)
);
}
);
userData = {
assembly = "NPUSHB[ ]	/* 30 values pushed */
4 5 5 6 5 3 5 6 6 5 58 6 2 99 0 81 4 0 7 4 5 3 2 6 1 7 6 1 5 8
SRP0[ ]	/* SetRefPoint0 */
MDRP[10100]	/* MoveDirectRelPt */
MIRP[10100]	/* MoveIndirectRelPt */
MDRP[10100]	/* MoveDirectRelPt */
MDRP[00100]	/* MoveDirectRelPt */
SRP1[ ]	/* SetRefPoint1 */
IP[ ]	/* InterpolatePts */
IP[ ]	/* InterpolatePts */
SRP2[ ]	/* SetRefPoint2 */
IP[ ]	/* InterpolatePts */
SRP1[ ]	/* SetRefPoint1 */
IP[ ]	/* InterpolatePts */
IUP[1]	/* InterpolateUntPts */
SVTCA[0]	/* SetFreedomAndProjectionVectorToAxis */
MDAP[1]	/* MoveDirectAbsPt */
MIRP[10100]	/* MoveIndirectRelPt */
MIRP[01100]	/* MoveIndirectRelPt */
SHP[0]	/* ShiftPointByLastPoint */
IUP[0]	/* InterpolateUntPts */
MPPEM[ ]	/* MeasurePixelPerEm */
GTEQ[ ]	/* GreaterThanOrEqual */
IF[ ]	/* If */
SPVTL[1]	/* SetPVectorToLine */
SRP0[ ]	/* SetRefPoint0 */
SFVTCA[1]	/* SetFVectorToAxis */
MIRP[01101]	/* MoveIndirectRelPt */
SPVTL[1]	/* SetPVectorToLine */
SRP0[ ]	/* SetRefPoint0 */
SFVTCA[1]	/* SetFVectorToAxis */
MIRP[01101]	/* MoveIndirectRelPt */
EIF[ ]	/* EndIf */
CLEAR[ ]	/* ClearStack */";
};
width = 1233;
}
);
note = T;
unicode = 84;
},
{
glyphname = U;
layers = (
{
layerId = m01;
shapes = (
{
closed = 1;
nodes = (
(80,354,o),
(80,317,qs),
(80,151,o),
(287,-29,o),
(479,-29,qs),
(585,-29,o),
(767,30,o),
(838,86,qs),
(916,149,o),
(1011,354,o),
(1053,573,qs),
(1231,1493,l),
(1028,1493,l),
(850,573,ls),
(823,436,o),
(778,285,o),
(756,254,qs),
(711,192,o),
(587,135,o),
(498,135,qs),
(388,135,o),
(279,227,o),
(279,319,qs),
(279,378,o),
(309,532,qs),
(315,560,o),
(317,573,qs),
(496,1493,l),
(293,1493,l),
(115,573,ls),
(97,480,o)
);
}
);
userData = {
assembly = "NPUSHB[ ]	/* 75 values pushed */
17 5 18 19 18 8 9 10 11 12 13 14 15 8 7 16 5 19 19 18 15 14 13 12 11 10 9 8 7 6 5 4 12 16 3 5 0 1 0 2 5 1 1 0 58 19 16 3 0 4 1 10 99 25 101 17 1 81 31 0 28 17 16 3 2 1 5 18 19 18 7 7 25 28 31
SRP0[ ]	/* SetRefPoint0 */
MDRP[10100]	/* MoveDirectRelPt */
MIRP[01100]	/* MoveIndirectRelPt */
SRP0[ ]	/* SetRefPoint0 */
MDRP[00000]	/* MoveDirectRelPt */
MDRP[00000]	/* MoveDirectRelPt */
SRP2[ ]	/* SetRefPoint2 */
SLOOP[ ]	/* SetLoopVariable */
IP[ ]	/* InterpolatePts */
SRP2[ ]	/* SetRefPoint2 */
IP[ ]	/* InterpolatePts */
IUP[1]	/* InterpolateUntPts */
SVTCA[0]	/* SetFreedomAndProjectionVectorToAxis */
SRP0[ ]	/* SetRefPoint0 */
MIRP[00100]	/* MoveIndirectRelPt */
SHP[0]	/* ShiftPointByLastPoint */
MIRP[10100]	/* MoveIndirectRelPt */
MIRP[01100]	/* MoveIndirectRelPt */
SRP1[ ]	/* SetRefPoint1 */
SLOOP[ ]	/* SetLoopVariable */
IP[ ]	/* InterpolatePts */
IUP[0]	/* InterpolateUntPts */
MPPEM[ ]	/* MeasurePixelPerEm */
GTEQ[ ]	/* GreaterThanOrEqual */
IF[ ]	/* If */
SPVTL[1]	/* SetPVectorToLine */
SRP0[ ]	/* SetRefPoint0 */
SFVTCA[1]	/* SetFVectorToAxis */
MIRP[01101]	/* MoveIndirectRelPt */
SPVTL[1]	/* SetPVectorToLine */
SRP0[ ]	/* SetRefPoint0 */
SFVTCA[1]	/* SetFVectorToAxis */
MIRP[01101]	/* MoveIndirectRelPt */
SRP1[ ]	/* SetRefPoint1 */
SLOOP[ ]	/* SetLoopVariable */
IP[ ]	/* InterpolatePts */
SPVTL[1]	/* SetPVectorToLine */
SRP0[ ]	/* SetRefPoint0 */
SFVTCA[1]	/* SetFVectorToAxis */
MIRP[01101]	/* MoveIndirectRelPt */
SRP1[ ]	/* SetRefPoint1 */
SLOOP[ ]	/* SetLoopVariable */
IP[ ]	/* InterpolatePts */
SPVTL[1]	/* SetPVectorToLine */
SRP0[ ]	/* SetRefPoint0 */
SFVTCA[1]	/* SetFVectorToAxis */
MIRP[01101]	/* MoveIndirectRelPt */
EIF[ ]	/* EndIf */
CLEAR[ ]	/* ClearStack */";
};
width = 1233;
}
);
note = U;
unicode = 85;
},
{
glyphname = V;
layers = (
{
layerId = m01;
shapes = (
{
closed = 1;
nodes = (
(199,1493,l),
(346,0,l),
(604,0,l),
(1323,1493,l),
(1108,1493,l),
(510,190,l),
(397,1493,l)
);
}
);
userData = {
assembly = "NPUSHB[ ]	/* 39 values pushed */
1 5 2 3 2 0 5 6 0 3 3 2 0 5 1 0 4 5 4 6 5 5 5 4 58 0 5 1 125 3 6 4 3 1 0 5 2 5 7
SRP0[ ]	/* SetRefPoint0 */
MDRP[10100]	/* MoveDirectRelPt */
MDRP[00100]	/* MoveDirectRelPt */
SLOOP[ ]	/* SetLoopVariable */
IP[ ]	/* InterpolatePts */
IUP[1]	/* InterpolateUntPts */
SVTCA[0]	/* SetFreedomAndProjectionVectorToAxis */
MDAP[1]	/* MoveDirectAbsPt */
MIRP[01100]	/* MoveIndirectRelPt */
SHP[0]	/* ShiftPointByLastPoint */
IP[ ]	/* InterpolatePts */
IUP[0]	/* InterpolateUntPts */
MPPEM[ ]	/* MeasurePixelPerEm */
GTEQ[ ]	/* GreaterThanOrEqual */
IF[ ]	/* If */
SPVTL[1]	/* SetPVectorToLine */
SRP0[ ]	/* SetRefPoint0 */
SFVTCA[1]	/* SetFVectorToAxis */
MIRP[01101]	/* MoveIndirectRelPt */
SPVTL[1]	/* SetPVectorToLine */
SRP0[ ]	/* SetRefPoint0 */
SFVTL[0]	/* SetFVectorToLine */
MIRP[01101]	/* MoveIndirectRelPt */
SPVTL[1]	/* SetPVectorToLine */
SRP0[ ]	/* SetRefPoint0 */
SFVTL[0]	/* SetFVectorToLine */
MIRP[01101]	/* MoveIndirectRelPt */
SPVTL[1]	/* SetPVectorToLine */
SRP0[ ]	/* SetRefPoint0 */
SFVTCA[1]	/* SetFVectorToAxis */
MIRP[01101]	/* MoveIndirectRelPt */
EIF[ ]	/* EndIf */
CLEAR[ ]	/* ClearStack */";
};
width = 1233;
}
);
note = V;
unicode = 86;
},
{
glyphname = W;
layers = (
{
layerId = m01;
shapes = (
{
closed = 1;
nodes = (
(270,0,l),
(641,870,l),
(672,0,l),
(866,0,l),
(1376,1493,l),
(1178,1493,l),
(801,281,l),
(786,1083,l),
(575,1083,l),
(246,283,l),
(336,1493,l),
(145,1493,l),
(82,0,l)
);
}
);
userData = {
assembly = "NPUSHB[ ]	/* 74 values pushed */
11 27 2 3 2 10 27 9 10 3 3 2 10 27 11 10 4 5 4 9 27 5 5 4 6 4 7 8 7 5 4 4 5 8 8 7 2 4 3 2 12 0 12 1 4 0 12 58 10 5 2 3 8 3 6 0 125 11 8 11 10 9 8 6 5 4 3 2 1 0 11 7 12 13
SRP0[ ]	/* SetRefPoint0 */
MDRP[10100]	/* MoveDirectRelPt */
MDRP[00100]	/* MoveDirectRelPt */
SLOOP[ ]	/* SetLoopVariable */
IP[ ]	/* InterpolatePts */
IUP[1]	/* InterpolateUntPts */
SVTCA[0]	/* SetFreedomAndProjectionVectorToAxis */
MDAP[1]	/* MoveDirectAbsPt */
ALIGNRP[ ]	/* AlignRelativePt */
MIRP[11100]	/* MoveIndirectRelPt */
ALIGNRP[ ]	/* AlignRelativePt */
MDRP[00100]	/* MoveDirectRelPt */
SRP1[ ]	/* SetRefPoint1 */
SLOOP[ ]	/* SetLoopVariable */
IP[ ]	/* InterpolatePts */
IUP[0]	/* InterpolateUntPts */
MPPEM[ ]	/* MeasurePixelPerEm */
GTEQ[ ]	/* GreaterThanOrEqual */
IF[ ]	/* If */
SPVTL[1]	/* SetPVectorToLine */
SFVTCA[1]	/* SetFVectorToAxis */
MIRP[01101]	/* MoveIndirectRelPt */
SPVTL[1]	/* SetPVectorToLine */
SRP0[ ]	/* SetRefPoint0 */
SFVTL[0]	/* SetFVectorToLine */
MIRP[01101]	/* MoveIndirectRelPt */
SPVTL[1]	/* SetPVectorToLine */
SRP0[ ]	/* SetRefPoint0 */
SFVTL[0]	/* SetFVectorToLine */
MIRP[01101]	/* MoveIndirectRelPt */
SPVTL[1]	/* SetPVectorToLine */
SRP0[ ]	/* SetRefPoint0 */
SFVTCA[1]	/* SetFVectorToAxis */
MIRP[01101]	/* MoveIndirectRelPt */
SPVTL[1]	/* SetPVectorToLine */
SRP0[ ]	/* SetRefPoint0 */
SFVTCA[1]	/* SetFVectorToAxis */
MIRP[01101]	/* MoveIndirectRelPt */
SPVTL[1]	/* SetPVectorToLine */
SRP0[ ]	/* SetRefPoint0 */
SFVTL[0]	/* SetFVectorToLine */
MIRP[01101]	/* MoveIndirectRelPt */
SPVTL[1]	/* SetPVectorToLine */
SRP0[ ]	/* SetRefPoint0 */
SFVTL[0]	/* SetFVectorToLine */
MIRP[01101]	/* MoveIndirectRelPt */
SPVTL[1]	/* SetPVectorToLine */
SRP0[ ]	/* SetRefPoint0 */
SFVTCA[1]	/* SetFVectorToAxis */
MIRP[01101]	/* MoveIndirectRelPt */
EIF[ ]	/* EndIf */
CLEAR[ ]	/* ClearStack */
PUSHB[ ]	/* 3 values pushed */
7 11 1
SVTCA[1]	/* SetFreedomAndProjectionVectorToAxis */
DELTAP1[ ]	/* DeltaExceptionP1 */
NPUSHB[ ]	/* 92 values pushed */
15 10 31 10 59 5 117 10 143 10 143 10 159 10 159 10 8 11 9 5 11 27 9 24 10 20 11 41 3 37 8 38 11 56 3 54 4 55 5 51 8 54 11 70 4 70 5 67 8 69 11 90 3 86 5 84 8 85 11 107 3 102 5 99 8 104 10 101 11 122 3 118 4 118 8 121 9 117 11 132 8 137 10 131 11 147 8 153 10 148 11 37
DELTAP1[ ]	/* DeltaExceptionP1 */
SVTCA[0]	/* SetFreedomAndProjectionVectorToAxis */
DELTAP1[ ]	/* DeltaExceptionP1 */";
};
width = 1233;
}
);
note = W;
unicode = 87;
},
{
glyphname = X;
layers = (
{
layerId = m01;
shapes = (
{
closed = 1;
nodes = (
(-127,0,l),
(104,0,l),
(610,612,l),
(864,0,l),
(1065,0,l),
(741,774,l),
(1337,1493,l),
(1106,1493,l),
(666,961,l),
(442,1493,l),
(242,1493,l),
(530,797,l)
);
}
);
userData = {
assembly = "NPUSHB[ ]	/* 72 values pushed */
9 5 10 11 10 8 5 7 8 11 11 10 8 5 9 8 5 6 5 7 5 6 6 5 3 5 4 5 4 2 5 1 2 5 5 4 2 5 3 2 11 0 11 1 5 0 0 11 58 11 8 5 2 4 3 0 125 9 6 11 8 7 6 5 2 1 0 8 12 4 10 12
SRP0[ ]	/* SetRefPoint0 */
MDRP[10100]	/* MoveDirectRelPt */
MDRP[01100]	/* MoveDirectRelPt */
SRP1[ ]	/* SetRefPoint1 */
SLOOP[ ]	/* SetLoopVariable */
IP[ ]	/* InterpolatePts */
IUP[1]	/* InterpolateUntPts */
SVTCA[0]	/* SetFreedomAndProjectionVectorToAxis */
MDAP[1]	/* MoveDirectAbsPt */
ALIGNRP[ ]	/* AlignRelativePt */
MIRP[01100]	/* MoveIndirectRelPt */
SHP[0]	/* ShiftPointByLastPoint */
SLOOP[ ]	/* SetLoopVariable */
IP[ ]	/* InterpolatePts */
IUP[0]	/* InterpolateUntPts */
MPPEM[ ]	/* MeasurePixelPerEm */
GTEQ[ ]	/* GreaterThanOrEqual */
IF[ ]	/* If */
SPVTL[1]	/* SetPVectorToLine */
SRP0[ ]	/* SetRefPoint0 */
SFVTCA[1]	/* SetFVectorToAxis */
MIRP[01101]	/* MoveIndirectRelPt */
SPVTL[1]	/* SetPVectorToLine */
SRP0[ ]	/* SetRefPoint0 */
SFVTL[0]	/* SetFVectorToLine */
MIRP[01101]	/* MoveIndirectRelPt */
SPVTL[1]	/* SetPVectorToLine */
SRP0[ ]	/* SetRefPoint0 */
SFVTL[0]	/* SetFVectorToLine */
MIRP[01101]	/* MoveIndirectRelPt */
SPVTL[1]	/* SetPVectorToLine */
SRP0[ ]	/* SetRefPoint0 */
SFVTCA[1]	/* SetFVectorToAxis */
MIRP[01101]	/* MoveIndirectRelPt */
SPVTL[1]	/* SetPVectorToLine */
SRP0[ ]	/* SetRefPoint0 */
SFVTCA[1]	/* SetFVectorToAxis */
MIRP[01101]	/* MoveIndirectRelPt */
SPVTL[1]	/* SetPVectorToLine */
SRP0[ ]	/* SetRefPoint0 */
SFVTL[0]	/* SetFVectorToLine */
MIRP[01101]	/* MoveIndirectRelPt */
SPVTL[1]	/* SetPVectorToLine */
SRP0[ ]	/* SetRefPoint0 */
SFVTL[0]	/* SetFVectorToLine */
MIRP[01101]	/* MoveIndirectRelPt */
SPVTL[1]	/* SetPVectorToLine */
SRP0[ ]	/* SetRefPoint0 */
SFVTCA[1]	/* SetFVectorToAxis */
MIRP[01101]	/* MoveIndirectRelPt */
EIF[ ]	/* EndIf */
CLEAR[ ]	/* ClearStack */";
};
width = 1233;
}
);
note = X;
unicode = 88;
},
{
glyphname = Y;
layers = (
{
layerId = m01;
shapes = (
{
closed = 1;
nodes = (
(377,0,l),
(584,0,l),
(713,670,l),
(1348,1493,l),
(1130,1493,l),
(633,842,l),
(397,1493,l),
(195,1493,l),
(508,670,l)
);
}
);
userData = {
assembly = "NPUSHB[ ]	/* 53 values pushed */
3 5 4 5 4 2 5 1 2 5 5 4 2 5 3 2 8 0 8 1 5 0 0 8 6 5 7 8 7 5 5 4 5 8 8 7 58 2 3 0 125 6 1 7 6 2 8 4 0 8 4 7 9
SRP0[ ]	/* SetRefPoint0 */
MDRP[10100]	/* MoveDirectRelPt */
MDRP[00100]	/* MoveDirectRelPt */
MDRP[00100]	/* MoveDirectRelPt */
MDRP[00100]	/* MoveDirectRelPt */
SRP1[ ]	/* SetRefPoint1 */
SRP2[ ]	/* SetRefPoint2 */
IP[ ]	/* InterpolatePts */
IP[ ]	/* InterpolatePts */
SRP1[ ]	/* SetRefPoint1 */
IP[ ]	/* InterpolatePts */
IUP[1]	/* InterpolateUntPts */
SVTCA[0]	/* SetFreedomAndProjectionVectorToAxis */
MDAP[1]	/* MoveDirectAbsPt */
MIRP[01100]	/* MoveIndirectRelPt */
SHP[0]	/* ShiftPointByLastPoint */
IP[ ]	/* InterpolatePts */
IUP[0]	/* InterpolateUntPts */
MPPEM[ ]	/* MeasurePixelPerEm */
GTEQ[ ]	/* GreaterThanOrEqual */
IF[ ]	/* If */
SPVTL[1]	/* SetPVectorToLine */
SRP0[ ]	/* SetRefPoint0 */
SFVTL[0]	/* SetFVectorToLine */
MIRP[01101]	/* MoveIndirectRelPt */
SPVTL[1]	/* SetPVectorToLine */
SRP0[ ]	/* SetRefPoint0 */
SFVTCA[1]	/* SetFVectorToAxis */
MIRP[01101]	/* MoveIndirectRelPt */
SPVTL[1]	/* SetPVectorToLine */
SRP0[ ]	/* SetRefPoint0 */
SFVTCA[1]	/* SetFVectorToAxis */
MIRP[01101]	/* MoveIndirectRelPt */
SPVTL[1]	/* SetPVectorToLine */
SRP0[ ]	/* SetRefPoint0 */
SFVTL[0]	/* SetFVectorToLine */
MIRP[01101]	/* MoveIndirectRelPt */
SPVTL[1]	/* SetPVectorToLine */
SRP0[ ]	/* SetRefPoint0 */
SFVTL[0]	/* SetFVectorToLine */
MIRP[01101]	/* MoveIndirectRelPt */
SPVTL[1]	/* SetPVectorToLine */
SRP0[ ]	/* SetRefPoint0 */
SFVTCA[1]	/* SetFVectorToAxis */
MIRP[01101]	/* MoveIndirectRelPt */
EIF[ ]	/* EndIf */
CLEAR[ ]	/* ClearStack */";
};
width = 1233;
}
);
note = Y;
unicode = 89;
},
{
glyphname = Z;
layers = (
{
layerId = m01;
shapes = (
{
closed = 1;
nodes = (
(999,1323,l),
(23,154,l),
(-6,0,l),
(1006,0,l),
(1040,170,l),
(266,170,l),
(1245,1339,l),
(1274,1493,l),
(305,1493,l),
(272,1323,l)
);
}
);
userData = {
assembly = "NPUSHB[ ]	/* 29 values pushed */
8 5 2 3 2 3 5 7 8 7 58 8 99 0 81 3 99 5 9 8 5 4 3 0 6 10 1 6 10
SRP0[ ]	/* SetRefPoint0 */
MDRP[10100]	/* MoveDirectRelPt */
MDRP[00100]	/* MoveDirectRelPt */
SRP1[ ]	/* SetRefPoint1 */
SLOOP[ ]	/* SetLoopVariable */
IP[ ]	/* InterpolatePts */
IUP[1]	/* InterpolateUntPts */
SVTCA[0]	/* SetFreedomAndProjectionVectorToAxis */
MDAP[1]	/* MoveDirectAbsPt */
MIRP[01100]	/* MoveIndirectRelPt */
MIRP[10100]	/* MoveIndirectRelPt */
MIRP[01100]	/* MoveIndirectRelPt */
IUP[0]	/* InterpolateUntPts */
MPPEM[ ]	/* MeasurePixelPerEm */
GTEQ[ ]	/* GreaterThanOrEqual */
IF[ ]	/* If */
SPVTL[1]	/* SetPVectorToLine */
SRP0[ ]	/* SetRefPoint0 */
SFVTCA[1]	/* SetFVectorToAxis */
MIRP[01101]	/* MoveIndirectRelPt */
SPVTL[1]	/* SetPVectorToLine */
SRP0[ ]	/* SetRefPoint0 */
SFVTCA[1]	/* SetFVectorToAxis */
MIRP[01101]	/* MoveIndirectRelPt */
EIF[ ]	/* EndIf */
CLEAR[ ]	/* ClearStack */";
};
width = 1233;
}
);
note = Z;
unicode = 90;
},
{
glyphname = bracketleft;
layers = (
{
layerId = m01;
shapes = (
{
closed = 1;
nodes = (
(690,-270,l),
(717,-127,l),
(477,-127,l),
(776,1413,l),
(1016,1413,l),
(1044,1556,l),
(621,1556,l),
(264,-270,l)
);
}
);
userData = {
assembly = "NPUSHB[ ]	/* 34 values pushed */
4 5 7 0 7 3 5 0 0 7 58 4 126 6 127 2 126 0 103 8 3 5 2 4 7 0 5 6 2 1 0 6 7 8
SRP0[ ]	/* SetRefPoint0 */
MDRP[10100]	/* MoveDirectRelPt */
MDRP[00100]	/* MoveDirectRelPt */
MDRP[10100]	/* MoveDirectRelPt */
MDRP[10100]	/* MoveDirectRelPt */
MDRP[00100]	/* MoveDirectRelPt */
SRP0[ ]	/* SetRefPoint0 */
MDRP[00110]	/* MoveDirectRelPt */
SRP1[ ]	/* SetRefPoint1 */
SRP2[ ]	/* SetRefPoint2 */
IP[ ]	/* InterpolatePts */
SRP1[ ]	/* SetRefPoint1 */
SRP2[ ]	/* SetRefPoint2 */
IP[ ]	/* InterpolatePts */
IUP[1]	/* InterpolateUntPts */
SVTCA[0]	/* SetFreedomAndProjectionVectorToAxis */
SRP0[ ]	/* SetRefPoint0 */
MIRP[11100]	/* MoveIndirectRelPt */
MIRP[01100]	/* MoveIndirectRelPt */
MIRP[10100]	/* MoveIndirectRelPt */
MIRP[01100]	/* MoveIndirectRelPt */
IUP[0]	/* InterpolateUntPts */
MPPEM[ ]	/* MeasurePixelPerEm */
GTEQ[ ]	/* GreaterThanOrEqual */
IF[ ]	/* If */
SPVTL[1]	/* SetPVectorToLine */
SRP0[ ]	/* SetRefPoint0 */
SFVTCA[1]	/* SetFVectorToAxis */
MIRP[01101]	/* MoveIndirectRelPt */
SPVTL[1]	/* SetPVectorToLine */
SRP0[ ]	/* SetRefPoint0 */
SFVTCA[1]	/* SetFVectorToAxis */
MIRP[01101]	/* MoveIndirectRelPt */
EIF[ ]	/* EndIf */
CLEAR[ ]	/* ClearStack */";
};
width = 1233;
}
);
note = bracketleft;
unicode = 91;
},
{
glyphname = backslash;
lastChange = "2026-05-14 15:15:45 +0000";
layers = (
{
layerId = m01;
shapes = (
{
closed = 1;
nodes = (
(349,1556,l),
(565,-270,l),
(735,-270,l),
(519,1556,l)
);
}
);
userData = {
assembly = "NPUSHB[ ]	/* 21 values pushed */
0 5 1 2 1 3 5 2 1 58 0 2 81 4 3 2 0 1 1 2 4
SRP0[ ]	/* SetRefPoint0 */
MDRP[10100]	/* MoveDirectRelPt */
MDRP[00100]	/* MoveDirectRelPt */
SRP0[ ]	/* SetRefPoint0 */
MDRP[00000]	/* MoveDirectRelPt */
SRP2[ ]	/* SetRefPoint2 */
IP[ ]	/* InterpolatePts */
IUP[1]	/* InterpolateUntPts */
SVTCA[0]	/* SetFreedomAndProjectionVectorToAxis */
SRP0[ ]	/* SetRefPoint0 */
MIRP[10100]	/* MoveIndirectRelPt */
MDRP[00100]	/* MoveDirectRelPt */
IUP[0]	/* InterpolateUntPts */
MPPEM[ ]	/* MeasurePixelPerEm */
GTEQ[ ]	/* GreaterThanOrEqual */
IF[ ]	/* If */
SPVTL[1]	/* SetPVectorToLine */
SFVTCA[1]	/* SetFVectorToAxis */
MIRP[01101]	/* MoveIndirectRelPt */
SPVTL[1]	/* SetPVectorToLine */
SRP0[ ]	/* SetRefPoint0 */
SFVTCA[1]	/* SetFVectorToAxis */
MIRP[01101]	/* MoveIndirectRelPt */
EIF[ ]	/* EndIf */
CLEAR[ ]	/* ClearStack */";
};
width = 1233;
}
);
note = backslash;
unicode = 92;
},
{
glyphname = bracketright;
layers = (
{
layerId = m01;
shapes = (
{
closed = 1;
nodes = (
(475,1413,l),
(715,1413,l),
(416,-127,l),
(176,-127,l),
(147,-270,l),
(571,-270,l),
(928,1556,l),
(504,1556,l)
);
}
);
userData = {
assembly = "NPUSHB[ ]	/* 32 values pushed */
5 5 0 1 0 4 5 1 0 58 3 126 1 127 5 126 0 103 8 4 6 3 5 1 0 7 6 0 1 3 2 8
SRP0[ ]	/* SetRefPoint0 */
MDRP[10100]	/* MoveDirectRelPt */
MDRP[00100]	/* MoveDirectRelPt */
MDRP[10100]	/* MoveDirectRelPt */
MDRP[10100]	/* MoveDirectRelPt */
MDRP[10100]	/* MoveDirectRelPt */
MDRP[00100]	/* MoveDirectRelPt */
SRP1[ ]	/* SetRefPoint1 */
SRP2[ ]	/* SetRefPoint2 */
IP[ ]	/* InterpolatePts */
SRP1[ ]	/* SetRefPoint1 */
SRP2[ ]	/* SetRefPoint2 */
IP[ ]	/* InterpolatePts */
IUP[1]	/* InterpolateUntPts */
SVTCA[0]	/* SetFreedomAndProjectionVectorToAxis */
SRP0[ ]	/* SetRefPoint0 */
MIRP[11100]	/* MoveIndirectRelPt */
MIRP[01100]	/* MoveIndirectRelPt */
MIRP[10100]	/* MoveIndirectRelPt */
MIRP[01100]	/* MoveIndirectRelPt */
IUP[0]	/* InterpolateUntPts */
MPPEM[ ]	/* MeasurePixelPerEm */
GTEQ[ ]	/* GreaterThanOrEqual */
IF[ ]	/* If */
SPVTL[1]	/* SetPVectorToLine */
SFVTCA[1]	/* SetFVectorToAxis */
MIRP[01101]	/* MoveIndirectRelPt */
SPVTL[1]	/* SetPVectorToLine */
SRP0[ ]	/* SetRefPoint0 */
SFVTCA[1]	/* SetFVectorToAxis */
MIRP[01101]	/* MoveIndirectRelPt */
EIF[ ]	/* EndIf */
CLEAR[ ]	/* ClearStack */";
};
width = 1233;
}
);
note = bracketright;
unicode = 93;
},
{
glyphname = asciicircum;
layers = (
{
layerId = m01;
shapes = (
{
closed = 1;
nodes = (
(72,936,l),
(250,936,l),
(616,1331,l),
(983,936,l),
(1161,936,l),
(705,1493,l),
(528,1493,l)
);
}
);
userData = {
assembly = "NPUSHB[ ]	/* 10 values pushed */
3 4 1 0 81 7 3 1 5 7
SRP0[ ]	/* SetRefPoint0 */
MDRP[10100]	/* MoveDirectRelPt */
MDRP[01100]	/* MoveDirectRelPt */
IP[ ]	/* InterpolatePts */
IUP[1]	/* InterpolateUntPts */
SVTCA[0]	/* SetFreedomAndProjectionVectorToAxis */
SRP0[ ]	/* SetRefPoint0 */
MIRP[10100]	/* MoveIndirectRelPt */
MDRP[01100]	/* MoveDirectRelPt */
SHP[0]	/* ShiftPointByLastPoint */
IP[ ]	/* InterpolatePts */
IUP[0]	/* InterpolateUntPts */";
};
width = 1233;
}
);
note = asciicircum;
unicode = 94;
},
{
glyphname = underscore;
lastChange = "2026-05-14 15:07:26 +0000";
layers = (
{
layerId = m01;
shapes = (
{
closed = 1;
nodes = (
(-127,-255,l),
(1106,-255,l),
(1106,-85,l),
(-127,-85,l)
);
}
);
userData = {
assembly = "PUSHB[ ]	/* 6 values pushed */
0 128 1 4 0 2
MDAP[1]	/* MoveDirectAbsPt */
MDRP[01100]	/* MoveDirectRelPt */
IUP[1]	/* InterpolateUntPts */
SVTCA[0]	/* SetFreedomAndProjectionVectorToAxis */
SRP0[ ]	/* SetRefPoint0 */
MDRP[10100]	/* MoveDirectRelPt */
MIRP[01100]	/* MoveIndirectRelPt */
IUP[0]	/* InterpolateUntPts */";
};
width = 1233;
}
);
note = underscore;
unicode = 95;
},
{
glyphname = grave;
layers = (
{
layerId = m01;
shapes = (
{
closed = 1;
nodes = (
(705,1262,l),
(848,1262,l),
(651,1638,l),
(453,1638,l)
);
}
);
userData = {
assembly = "NPUSHB[ ]	/* 9 values pushed */
1 130 0 129 4 0 1 3 4
SRP0[ ]	/* SetRefPoint0 */
MDRP[10100]	/* MoveDirectRelPt */
MDRP[01100]	/* MoveDirectRelPt */
IP[ ]	/* InterpolatePts */
IUP[1]	/* InterpolateUntPts */
SVTCA[0]	/* SetFreedomAndProjectionVectorToAxis */
SRP0[ ]	/* SetRefPoint0 */
MIRP[10100]	/* MoveIndirectRelPt */
MIRP[01100]	/* MoveIndirectRelPt */
IUP[0]	/* InterpolateUntPts */
SVTCA[0]	/* SetFreedomAndProjectionVectorToAxis */
MPPEM[ ]	/* MeasurePixelPerEm */
PUSHB[ ]	/* 1 value pushed */
9
EQ[ ]	/* Equal */
MPPEM[ ]	/* MeasurePixelPerEm */
PUSHB[ ]	/* 1 value pushed */
14
EQ[ ]	/* Equal */
OR[ ]	/* LogicalOr */
IF[ ]	/* If */
PUSHW[ ]	/* 6 values pushed */
4 -64 1 4 4 64
SHPIX[ ]	/* ShiftZoneByPixel */
SRP1[ ]	/* SetRefPoint1 */
SHZ[1]	/* ShiftZoneByLastPoint */
SHPIX[ ]	/* ShiftZoneByPixel */
EIF[ ]	/* EndIf */";
};
width = 1233;
}
);
note = grave;
unicode = 96;
},
{
glyphname = a;
layers = (
{
layerId = m01;
shapes = (
{
closed = 1;
nodes = (
(856,522,ls),
(818,337,o),
(603,125,o),
(455,125,qs),
(367,125,o),
(264,224,o),
(264,307,qs),
(264,380,o),
(346,503,o),
(414,530,qs),
(457,548,o),
(573,563,o),
(692,563,qs),
(864,563,l)
);
},
{
closed = 1;
nodes = (
(1087,806,o),
(1087,838,qs),
(1087,983,o),
(880,1147,o),
(694,1147,qs),
(605,1147,o),
(411,1108,o),
(303,1069,q),
(268,889,l),
(379,940,o),
(578,991,o),
(664,991,qs),
(781,991,o),
(907,900,o),
(907,815,qs),
(907,797,o),
(905,777,o),
(903,768,qs),
(891,707,l),
(645,707,ls),
(381,707,o),
(72,472,o),
(72,276,qs),
(72,138,o),
(255,-29,o),
(408,-29,qs),
(518,-29,o),
(714,72,o),
(786,166,q),
(754,0,l),
(938,0,l),
(1063,639,ls),
(1075,702,o)
);
}
);
userData = {
assembly = "NPUSHB[ ]	/* 97 values pushed */
33 32 31 30 29 5 34 28 5 15 14 0 26 27 5 15 14 0 1 1 13 5 15 14 10 11 2 9 12 5 14 15 14 19 18 2 20 17 5 15 14 16 5 15 15 14 58 12 9 0 28 37 14 26 17 9 0 137 26 9 135 20 38 87 37 136 34 135 41 134 20 101 26 15 15 14 44 37 28 27 16 13 12 0 7 17 26 38 3 6 31 7 44 6 7 23 47
SRP0[ ]	/* SetRefPoint0 */
MDRP[10100]	/* MoveDirectRelPt */
MIRP[01100]	/* MoveIndirectRelPt */
MDRP[10100]	/* MoveDirectRelPt */
MIRP[01100]	/* MoveIndirectRelPt */
SRP1[ ]	/* SetRefPoint1 */
SLOOP[ ]	/* SetLoopVariable */
IP[ ]	/* InterpolatePts */
SLOOP[ ]	/* SetLoopVariable */
IP[ ]	/* InterpolatePts */
SRP1[ ]	/* SetRefPoint1 */
IP[ ]	/* InterpolatePts */
IP[ ]	/* InterpolatePts */
IUP[1]	/* InterpolateUntPts */
SVTCA[0]	/* SetFreedomAndProjectionVectorToAxis */
MDAP[1]	/* MoveDirectAbsPt */
MDRP[00100]	/* MoveDirectRelPt */
MIRP[00100]	/* MoveIndirectRelPt */
MIRP[10100]	/* MoveIndirectRelPt */
MIRP[11100]	/* MoveIndirectRelPt */
MIRP[10100]	/* MoveIndirectRelPt */
MIRP[01100]	/* MoveIndirectRelPt */
SRP0[ ]	/* SetRefPoint0 */
MIRP[01110]	/* MoveIndirectRelPt */
SRP0[ ]	/* SetRefPoint0 */
MIRP[01110]	/* MoveIndirectRelPt */
SRP1[ ]	/* SetRefPoint1 */
IP[ ]	/* InterpolatePts */
SRP1[ ]	/* SetRefPoint1 */
IP[ ]	/* InterpolatePts */
SRP2[ ]	/* SetRefPoint2 */
IP[ ]	/* InterpolatePts */
SRP1[ ]	/* SetRefPoint1 */
SRP2[ ]	/* SetRefPoint2 */
IP[ ]	/* InterpolatePts */
IUP[0]	/* InterpolateUntPts */
MPPEM[ ]	/* MeasurePixelPerEm */
GTEQ[ ]	/* GreaterThanOrEqual */
IF[ ]	/* If */
SPVTL[1]	/* SetPVectorToLine */
SRP0[ ]	/* SetRefPoint0 */
SFVTCA[1]	/* SetFVectorToAxis */
MIRP[01101]	/* MoveIndirectRelPt */
SPVTL[1]	/* SetPVectorToLine */
SFVTCA[1]	/* SetFVectorToAxis */
MIRP[01101]	/* MoveIndirectRelPt */
SRP1[ ]	/* SetRefPoint1 */
SLOOP[ ]	/* SetLoopVariable */
IP[ ]	/* InterpolatePts */
SPVTL[1]	/* SetPVectorToLine */
SRP0[ ]	/* SetRefPoint0 */
SFVTCA[1]	/* SetFVectorToAxis */
MIRP[01101]	/* MoveIndirectRelPt */
SRP1[ ]	/* SetRefPoint1 */
SLOOP[ ]	/* SetLoopVariable */
IP[ ]	/* InterpolatePts */
SPVTL[1]	/* SetPVectorToLine */
SFVTCA[1]	/* SetFVectorToAxis */
MIRP[01101]	/* MoveIndirectRelPt */
SRP1[ ]	/* SetRefPoint1 */
SLOOP[ ]	/* SetLoopVariable */
IP[ ]	/* InterpolatePts */
SPVTL[1]	/* SetPVectorToLine */
SFVTCA[1]	/* SetFVectorToAxis */
MIRP[01101]	/* MoveIndirectRelPt */
SRP1[ ]	/* SetRefPoint1 */
SLOOP[ ]	/* SetLoopVariable */
IP[ ]	/* InterpolatePts */
SPVTL[1]	/* SetPVectorToLine */
SFVTCA[1]	/* SetFVectorToAxis */
MIRP[01101]	/* MoveIndirectRelPt */
SRP1[ ]	/* SetRefPoint1 */
SLOOP[ ]	/* SetLoopVariable */
IP[ ]	/* InterpolatePts */
EIF[ ]	/* EndIf */
CLEAR[ ]	/* ClearStack */
PUSHB[ ]	/* 3 values pushed */
160 39 1
SVTCA[1]	/* SetFreedomAndProjectionVectorToAxis */
DELTAP1[ ]	/* DeltaExceptionP1 */
NPUSHB[ ]	/* 54 values pushed */
53 36 48 37 48 38 53 39 160 0 160 1 160 2 160 3 160 4 160 12 160 13 165 24 160 25 160 26 160 27 15 166 0 166 1 166 2 166 3 166 4 166 12 166 13 168 25 166 26 166 27 175 39 11
DELTAP1[ ]	/* DeltaExceptionP1 */
SVTCA[0]	/* SetFreedomAndProjectionVectorToAxis */
DELTAP1[ ]	/* DeltaExceptionP1 */";
};
width = 1233;
}
);
note = a;
unicode = 97;
},
{
glyphname = b;
layers = (
{
layerId = m01;
shapes = (
{
closed = 1;
nodes = (
(332,260,o),
(332,383,qs),
(332,494,o),
(390,727,o),
(438,813,qs),
(489,901,o),
(626,993,o),
(709,993,qs),
(810,993,o),
(911,865,o),
(911,737,qs),
(911,629,o),
(854,397,o),
(805,303,qs),
(759,217,o),
(623,127,o),
(539,127,qs),
(439,127,o)
);
},
{
closed = 1;
nodes = (
(362,1556,l),
(59,0,l),
(244,0,l),
(270,141,l),
(304,57,o),
(437,-29,o),
(535,-29,qs),
(659,-29,o),
(878,98,o),
(954,213,qs),
(1026,321,o),
(1108,609,o),
(1108,754,qs),
(1108,940,o),
(926,1147,o),
(762,1147,qs),
(660,1147,o),
(496,1061,o),
(434,977,q),
(547,1556,l)
);
}
);
userData = {
assembly = "NPUSHB[ ]	/* 76 values pushed */
17 16 2 0 15 5 36 35 10 11 12 13 4 9 14 5 36 35 34 5 36 35 31 32 2 30 33 5 35 36 35 20 19 2 21 18 5 36 35 37 5 36 36 35 58 33 18 0 9 135 21 0 135 30 101 21 134 36 139 34 34 35 37 6 15 33 35 18 36 6 11 24 36 29 35 38
SRP0[ ]	/* SetRefPoint0 */
MDRP[10100]	/* MoveDirectRelPt */
MIRP[00100]	/* MoveIndirectRelPt */
MDRP[10100]	/* MoveDirectRelPt */
MIRP[01100]	/* MoveIndirectRelPt */
SRP1[ ]	/* SetRefPoint1 */
IP[ ]	/* InterpolatePts */
SRP2[ ]	/* SetRefPoint2 */
IP[ ]	/* InterpolatePts */
IP[ ]	/* InterpolatePts */
SRP2[ ]	/* SetRefPoint2 */
IP[ ]	/* InterpolatePts */
SRP2[ ]	/* SetRefPoint2 */
IP[ ]	/* InterpolatePts */
IUP[1]	/* InterpolateUntPts */
SVTCA[0]	/* SetFreedomAndProjectionVectorToAxis */
MDAP[1]	/* MoveDirectAbsPt */
MIRP[01100]	/* MoveIndirectRelPt */
MIRP[00100]	/* MoveIndirectRelPt */
MIRP[10100]	/* MoveIndirectRelPt */
MIRP[01100]	/* MoveIndirectRelPt */
SRP0[ ]	/* SetRefPoint0 */
MIRP[01110]	/* MoveIndirectRelPt */
SRP1[ ]	/* SetRefPoint1 */
IP[ ]	/* InterpolatePts */
IP[ ]	/* InterpolatePts */
IUP[0]	/* InterpolateUntPts */
MPPEM[ ]	/* MeasurePixelPerEm */
GTEQ[ ]	/* GreaterThanOrEqual */
IF[ ]	/* If */
SPVTL[1]	/* SetPVectorToLine */
SRP0[ ]	/* SetRefPoint0 */
SFVTCA[1]	/* SetFVectorToAxis */
MIRP[01101]	/* MoveIndirectRelPt */
SPVTL[1]	/* SetPVectorToLine */
SFVTCA[1]	/* SetFVectorToAxis */
MIRP[01101]	/* MoveIndirectRelPt */
SRP1[ ]	/* SetRefPoint1 */
SLOOP[ ]	/* SetLoopVariable */
IP[ ]	/* InterpolatePts */
SPVTL[1]	/* SetPVectorToLine */
SRP0[ ]	/* SetRefPoint0 */
SFVTCA[1]	/* SetFVectorToAxis */
MIRP[01101]	/* MoveIndirectRelPt */
SRP1[ ]	/* SetRefPoint1 */
SLOOP[ ]	/* SetLoopVariable */
IP[ ]	/* InterpolatePts */
SPVTL[1]	/* SetPVectorToLine */
SFVTCA[1]	/* SetFVectorToAxis */
MIRP[01101]	/* MoveIndirectRelPt */
SPVTL[1]	/* SetPVectorToLine */
SFVTCA[1]	/* SetFVectorToAxis */
MIRP[01101]	/* MoveIndirectRelPt */
SRP1[ ]	/* SetRefPoint1 */
SLOOP[ ]	/* SetLoopVariable */
IP[ ]	/* InterpolatePts */
SPVTL[1]	/* SetPVectorToLine */
SFVTCA[1]	/* SetFVectorToAxis */
MIRP[01101]	/* MoveIndirectRelPt */
SRP1[ ]	/* SetRefPoint1 */
SLOOP[ ]	/* SetLoopVariable */
IP[ ]	/* InterpolatePts */
EIF[ ]	/* EndIf */
CLEAR[ ]	/* ClearStack */";
};
width = 1233;
}
);
note = b;
unicode = 98;
},
{
glyphname = c;
layers = (
{
layerId = m01;
shapes = (
{
closed = 1;
nodes = (
(896,189,o),
(719,127,o),
(623,127,qs),
(487,127,o),
(350,272,o),
(350,416,qs),
(350,520,o),
(413,731,o),
(469,813,qs),
(529,902,o),
(699,991,o),
(809,991,qs),
(894,991,o),
(1034,937,o),
(1100,879,q),
(1137,1061,l),
(1058,1104,o),
(892,1147,o),
(803,1147,qs),
(670,1147,o),
(447,1049,o),
(354,950,qs),
(263,852,o),
(156,565,o),
(156,416,qs),
(156,196,o),
(386,-29,o),
(610,-29,qs),
(700,-29,o),
(867,12,o),
(940,51,q),
(979,252,l)
);
}
);
userData = {
assembly = "NPUSHB[ ]	/* 28 values pushed */
15 87 16 90 19 0 87 31 90 28 135 3 19 135 12 134 3 101 32 31 16 0 15 25 11 15 6 32
SRP0[ ]	/* SetRefPoint0 */
MDRP[10100]	/* MoveDirectRelPt */
MDRP[00100]	/* MoveDirectRelPt */
MIRP[01100]	/* MoveIndirectRelPt */
SRP1[ ]	/* SetRefPoint1 */
IP[ ]	/* InterpolatePts */
IP[ ]	/* InterpolatePts */
IP[ ]	/* InterpolatePts */
IUP[1]	/* InterpolateUntPts */
SVTCA[0]	/* SetFreedomAndProjectionVectorToAxis */
SRP0[ ]	/* SetRefPoint0 */
MIRP[00100]	/* MoveIndirectRelPt */
MIRP[10100]	/* MoveIndirectRelPt */
MIRP[01100]	/* MoveIndirectRelPt */
SRP0[ ]	/* SetRefPoint0 */
MIRP[11110]	/* MoveIndirectRelPt */
MIRP[10100]	/* MoveIndirectRelPt */
MIRP[01110]	/* MoveIndirectRelPt */
SRP0[ ]	/* SetRefPoint0 */
MIRP[10101]	/* MoveIndirectRelPt */
MIRP[01110]	/* MoveIndirectRelPt */
IUP[0]	/* InterpolateUntPts */";
};
width = 1233;
}
);
note = c;
unicode = 99;
},
{
glyphname = d;
layers = (
{
layerId = m01;
shapes = (
{
closed = 1;
nodes = (
(893,857,o),
(893,737,qs),
(893,623,o),
(837,392,o),
(788,305,qs),
(740,217,o),
(603,127,o),
(518,127,qs),
(417,127,o),
(315,255,o),
(315,383,qs),
(315,498,o),
(369,727,o),
(418,817,qs),
(464,904,o),
(598,991,o),
(686,991,qs),
(784,991,o)
);
},
{
closed = 1;
nodes = (
(767,1147,o),
(670,1147,qs),
(546,1147,o),
(343,1027,o),
(268,909,qs),
(199,801,o),
(119,512,o),
(119,369,qs),
(119,181,o),
(300,-29,o),
(463,-29,qs),
(563,-29,o),
(728,57,o),
(793,141,q),
(766,0,l),
(950,0,l),
(1253,1556,l),
(1069,1556,l),
(954,977,l),
(913,1060,o)
);
}
);
userData = {
assembly = "NPUSHB[ ]	/* 76 values pushed */
17 16 15 3 0 14 5 21 20 10 11 12 3 9 13 5 21 20 25 24 2 26 23 5 21 20 22 5 21 21 20 19 5 21 20 36 37 2 35 18 5 20 21 20 58 23 18 9 0 135 35 9 135 26 101 35 134 19 139 21 19 20 22 15 6 18 20 23 6 21 29 20 6 11 29 38
SRP0[ ]	/* SetRefPoint0 */
MDRP[10100]	/* MoveDirectRelPt */
MIRP[01100]	/* MoveIndirectRelPt */
MDRP[10100]	/* MoveDirectRelPt */
MIRP[00100]	/* MoveIndirectRelPt */
SRP1[ ]	/* SetRefPoint1 */
IP[ ]	/* InterpolatePts */
SRP1[ ]	/* SetRefPoint1 */
IP[ ]	/* InterpolatePts */
SRP1[ ]	/* SetRefPoint1 */
IP[ ]	/* InterpolatePts */
IP[ ]	/* InterpolatePts */
SRP1[ ]	/* SetRefPoint1 */
IP[ ]	/* InterpolatePts */
IUP[1]	/* InterpolateUntPts */
SVTCA[0]	/* SetFreedomAndProjectionVectorToAxis */
MDAP[1]	/* MoveDirectAbsPt */
MIRP[01100]	/* MoveIndirectRelPt */
MIRP[00100]	/* MoveIndirectRelPt */
MIRP[10100]	/* MoveIndirectRelPt */
MIRP[01100]	/* MoveIndirectRelPt */
SRP0[ ]	/* SetRefPoint0 */
MIRP[01110]	/* MoveIndirectRelPt */
SRP1[ ]	/* SetRefPoint1 */
IP[ ]	/* InterpolatePts */
IP[ ]	/* InterpolatePts */
IUP[0]	/* InterpolateUntPts */
MPPEM[ ]	/* MeasurePixelPerEm */
GTEQ[ ]	/* GreaterThanOrEqual */
IF[ ]	/* If */
SPVTL[1]	/* SetPVectorToLine */
SRP0[ ]	/* SetRefPoint0 */
SFVTCA[1]	/* SetFVectorToAxis */
MIRP[01101]	/* MoveIndirectRelPt */
SRP1[ ]	/* SetRefPoint1 */
SLOOP[ ]	/* SetLoopVariable */
IP[ ]	/* InterpolatePts */
SPVTL[1]	/* SetPVectorToLine */
SFVTCA[1]	/* SetFVectorToAxis */
MIRP[01101]	/* MoveIndirectRelPt */
SPVTL[1]	/* SetPVectorToLine */
SRP0[ ]	/* SetRefPoint0 */
SFVTCA[1]	/* SetFVectorToAxis */
MIRP[01101]	/* MoveIndirectRelPt */
SPVTL[1]	/* SetPVectorToLine */
SFVTCA[1]	/* SetFVectorToAxis */
MIRP[01101]	/* MoveIndirectRelPt */
SRP1[ ]	/* SetRefPoint1 */
SLOOP[ ]	/* SetLoopVariable */
IP[ ]	/* InterpolatePts */
SPVTL[1]	/* SetPVectorToLine */
SFVTCA[1]	/* SetFVectorToAxis */
MIRP[01101]	/* MoveIndirectRelPt */
SRP1[ ]	/* SetRefPoint1 */
SLOOP[ ]	/* SetLoopVariable */
IP[ ]	/* InterpolatePts */
SPVTL[1]	/* SetPVectorToLine */
SFVTCA[1]	/* SetFVectorToAxis */
MIRP[01101]	/* MoveIndirectRelPt */
SRP1[ ]	/* SetRefPoint1 */
SLOOP[ ]	/* SetLoopVariable */
IP[ ]	/* InterpolatePts */
EIF[ ]	/* EndIf */
CLEAR[ ]	/* ClearStack */";
};
width = 1233;
}
);
note = d;
unicode = 100;
},
{
glyphname = e;
layers = (
{
layerId = m01;
shapes = (
{
closed = 1;
nodes = (
(376,811,o),
(579,991,o),
(702,991,qs),
(818,991,o),
(948,857,o),
(948,737,qs),
(948,721,o),
(944,686,o),
(938,659,q),
(332,659,l)
);
},
{
closed = 1;
nodes = (
(883,184,o),
(674,127,o),
(586,127,qs),
(439,127,o),
(285,273,o),
(285,412,qs),
(285,432,o),
(291,484,o),
(297,516,q),
(1104,516,l),
(1116,594,o),
(1126,695,o),
(1126,729,qs),
(1126,920,o),
(903,1149,o),
(717,1149,qs),
(608,1149,o),
(407,1059,o),
(324,973,qs),
(218,864,o),
(98,564,o),
(98,408,qs),
(98,194,o),
(330,-29,o),
(553,-29,qs),
(656,-29,o),
(856,14,o),
(961,57,q),
(997,240,l)
);
}
);
userData = {
assembly = "NPUSHB[ ]	/* 34 values pushed */
0 137 28 10 87 38 89 35 135 13 28 140 6 135 22 134 13 101 39 29 0 9 3 32 28 38 10 3 7 25 32 7 16 39
SRP0[ ]	/* SetRefPoint0 */
MDRP[10100]	/* MoveDirectRelPt */
MIRP[01100]	/* MoveIndirectRelPt */
MDRP[10100]	/* MoveDirectRelPt */
MIRP[01100]	/* MoveIndirectRelPt */
IP[ ]	/* InterpolatePts */
IP[ ]	/* InterpolatePts */
IP[ ]	/* InterpolatePts */
SRP1[ ]	/* SetRefPoint1 */
SLOOP[ ]	/* SetLoopVariable */
IP[ ]	/* InterpolatePts */
IUP[1]	/* InterpolateUntPts */
SVTCA[0]	/* SetFreedomAndProjectionVectorToAxis */
SRP0[ ]	/* SetRefPoint0 */
MIRP[00100]	/* MoveIndirectRelPt */
MIRP[10100]	/* MoveIndirectRelPt */
MIRP[01100]	/* MoveIndirectRelPt */
MIRP[00100]	/* MoveIndirectRelPt */
SRP0[ ]	/* SetRefPoint0 */
MIRP[11110]	/* MoveIndirectRelPt */
MIRP[10100]	/* MoveIndirectRelPt */
MIRP[01110]	/* MoveIndirectRelPt */
SRP0[ ]	/* SetRefPoint0 */
MIRP[01110]	/* MoveIndirectRelPt */
IUP[0]	/* InterpolateUntPts */
NPUSHB[ ]	/* 26 values pushed */
104 9 104 29 2 111 0 111 1 111 2 111 3 111 9 111 25 111 26 111 27 111 28 111 29 10
DELTAP1[ ]	/* DeltaExceptionP1 */
SVTCA[1]	/* SetFreedomAndProjectionVectorToAxis */
DELTAP1[ ]	/* DeltaExceptionP1 */";
};
width = 1233;
}
);
note = e;
unicode = 101;
},
{
glyphname = f;
layers = (
{
layerId = m01;
shapes = (
{
closed = 1;
nodes = (
(837,1556,o),
(644,1391,o),
(606,1198,qs),
(590,1120,l),
(293,1120,l),
(264,977,l),
(563,977,l),
(373,0,l),
(557,0,l),
(748,977,l),
(1133,977,l),
(1159,1120,l),
(774,1120,l),
(795,1219,ls),
(815,1320,o),
(911,1403,o),
(1006,1403,qs),
(1214,1403,l),
(1245,1556,l),
(1024,1556,ls)
);
}
);
userData = {
assembly = "NPUSHB[ ]	/* 57 values pushed */
6 5 16 11 5 5 16 16 11 10 5 11 15 11 9 5 15 15 11 58 5 16 1 12 8 137 6 1 135 0 139 14 6 141 10 14 13 20 12 10 11 19 16 9 8 7 6 5 2 1 9 0 15 20 0 11 20
SRP0[ ]	/* SetRefPoint0 */
MDRP[10100]	/* MoveDirectRelPt */
MDRP[00100]	/* MoveDirectRelPt */
MIRP[00100]	/* MoveIndirectRelPt */
SRP1[ ]	/* SetRefPoint1 */
SLOOP[ ]	/* SetLoopVariable */
IP[ ]	/* InterpolatePts */
SRP1[ ]	/* SetRefPoint1 */
IP[ ]	/* InterpolatePts */
IP[ ]	/* InterpolatePts */
SRP2[ ]	/* SetRefPoint2 */
IP[ ]	/* InterpolatePts */
IP[ ]	/* InterpolatePts */
IUP[1]	/* InterpolateUntPts */
SVTCA[0]	/* SetFreedomAndProjectionVectorToAxis */
MDAP[1]	/* MoveDirectAbsPt */
MIRP[00100]	/* MoveIndirectRelPt */
SHP[0]	/* ShiftPointByLastPoint */
MIRP[11100]	/* MoveIndirectRelPt */
MIRP[01100]	/* MoveIndirectRelPt */
SRP0[ ]	/* SetRefPoint0 */
MIRP[01110]	/* MoveIndirectRelPt */
SHP[0]	/* ShiftPointByLastPoint */
SRP2[ ]	/* SetRefPoint2 */
IP[ ]	/* InterpolatePts */
IP[ ]	/* InterpolatePts */
IUP[0]	/* InterpolateUntPts */
MPPEM[ ]	/* MeasurePixelPerEm */
GTEQ[ ]	/* GreaterThanOrEqual */
IF[ ]	/* If */
SPVTL[1]	/* SetPVectorToLine */
SRP0[ ]	/* SetRefPoint0 */
SFVTCA[1]	/* SetFVectorToAxis */
MIRP[01101]	/* MoveIndirectRelPt */
SPVTL[1]	/* SetPVectorToLine */
SRP0[ ]	/* SetRefPoint0 */
SFVTCA[1]	/* SetFVectorToAxis */
MIRP[01101]	/* MoveIndirectRelPt */
SPVTL[1]	/* SetPVectorToLine */
SRP0[ ]	/* SetRefPoint0 */
SFVTCA[1]	/* SetFVectorToAxis */
MIRP[01101]	/* MoveIndirectRelPt */
SPVTL[1]	/* SetPVectorToLine */
SFVTCA[1]	/* SetFVectorToAxis */
MIRP[01101]	/* MoveIndirectRelPt */
EIF[ ]	/* EndIf */
CLEAR[ ]	/* ClearStack */";
};
width = 1233;
}
);
note = f;
unicode = 102;
},
{
glyphname = g;
layers = (
{
layerId = m01;
shapes = (
{
closed = 1;
nodes = (
(297,280,o),
(297,399,qs),
(297,654,o),
(508,991,o),
(662,991,qs),
(762,991,o),
(874,858,o),
(874,739,qs),
(874,633,o),
(819,409,o),
(770,319,qs),
(724,235,o),
(591,145,o),
(512,145,qs),
(411,145,o)
);
},
{
closed = 1;
nodes = (
(961,1116,l),
(934,965,l),
(900,1050,o),
(748,1147,o),
(647,1147,qs),
(536,1147,o),
(328,1023,o),
(254,911,qs),
(182,805,o),
(102,530,o),
(102,391,qs),
(102,207,o),
(284,-8,o),
(438,-8,qs),
(548,-8,o),
(722,83,o),
(780,170,q),
(756,53,ls),
(719,-133,o),
(555,-293,o),
(406,-293,qs),
(326,-293,o),
(169,-247,o),
(96,-203,q),
(59,-385,l),
(134,-412,o),
(293,-440,o),
(375,-440,qs),
(622,-440,o),
(889,-199,o),
(942,72,qs),
(1145,1116,l)
);
}
);
userData = {
assembly = "NPUSHB[ ]	/* 91 values pushed */
8 7 6 3 9 5 5 46 15 46 1 2 3 3 0 4 5 15 46 31 30 2 32 29 5 15 46 26 27 2 25 28 5 15 15 46 45 5 15 46 41 42 43 3 40 44 5 46 15 46 58 28 15 32 29 44 9 0 21 87 22 25 0 135 32 25 135 18 9 135 41 134 32 18 142 45 141 47 45 6 28 29 44 15 4 46 12 11 46 35 47
SRP0[ ]	/* SetRefPoint0 */
MDRP[10100]	/* MoveDirectRelPt */
MDRP[00100]	/* MoveDirectRelPt */
MIRP[01100]	/* MoveIndirectRelPt */
SRP1[ ]	/* SetRefPoint1 */
SLOOP[ ]	/* SetLoopVariable */
IP[ ]	/* InterpolatePts */
IP[ ]	/* InterpolatePts */
IP[ ]	/* InterpolatePts */
IUP[1]	/* InterpolateUntPts */
SVTCA[0]	/* SetFreedomAndProjectionVectorToAxis */
SRP0[ ]	/* SetRefPoint0 */
MIRP[00100]	/* MoveIndirectRelPt */
MIRP[00100]	/* MoveIndirectRelPt */
MDRP[00100]	/* MoveDirectRelPt */
MIRP[10100]	/* MoveIndirectRelPt */
MIRP[01100]	/* MoveIndirectRelPt */
SRP0[ ]	/* SetRefPoint0 */
MIRP[01110]	/* MoveIndirectRelPt */
SRP0[ ]	/* SetRefPoint0 */
MIRP[01110]	/* MoveIndirectRelPt */
SRP0[ ]	/* SetRefPoint0 */
MDRP[10101]	/* MoveDirectRelPt */
MIRP[01110]	/* MoveIndirectRelPt */
SRP1[ ]	/* SetRefPoint1 */
SRP2[ ]	/* SetRefPoint2 */
IP[ ]	/* InterpolatePts */
IP[ ]	/* InterpolatePts */
SRP2[ ]	/* SetRefPoint2 */
IP[ ]	/* InterpolatePts */
IP[ ]	/* InterpolatePts */
IUP[0]	/* InterpolateUntPts */
MPPEM[ ]	/* MeasurePixelPerEm */
GTEQ[ ]	/* GreaterThanOrEqual */
IF[ ]	/* If */
SPVTL[1]	/* SetPVectorToLine */
SRP0[ ]	/* SetRefPoint0 */
SFVTCA[1]	/* SetFVectorToAxis */
MIRP[01101]	/* MoveIndirectRelPt */
SRP1[ ]	/* SetRefPoint1 */
SLOOP[ ]	/* SetLoopVariable */
IP[ ]	/* InterpolatePts */
SPVTL[1]	/* SetPVectorToLine */
SFVTCA[1]	/* SetFVectorToAxis */
MIRP[01101]	/* MoveIndirectRelPt */
SPVTL[1]	/* SetPVectorToLine */
SRP0[ ]	/* SetRefPoint0 */
SFVTCA[1]	/* SetFVectorToAxis */
MIRP[01101]	/* MoveIndirectRelPt */
SRP1[ ]	/* SetRefPoint1 */
SLOOP[ ]	/* SetLoopVariable */
IP[ ]	/* InterpolatePts */
SPVTL[1]	/* SetPVectorToLine */
SFVTCA[1]	/* SetFVectorToAxis */
MIRP[01101]	/* MoveIndirectRelPt */
SRP1[ ]	/* SetRefPoint1 */
SLOOP[ ]	/* SetLoopVariable */
IP[ ]	/* InterpolatePts */
SPVTL[1]	/* SetPVectorToLine */
SFVTCA[1]	/* SetFVectorToAxis */
MIRP[01101]	/* MoveIndirectRelPt */
SRP1[ ]	/* SetRefPoint1 */
SLOOP[ ]	/* SetLoopVariable */
IP[ ]	/* InterpolatePts */
SPVTL[1]	/* SetPVectorToLine */
SRP0[ ]	/* SetRefPoint0 */
SFVTCA[1]	/* SetFVectorToAxis */
MIRP[01101]	/* MoveIndirectRelPt */
SRP1[ ]	/* SetRefPoint1 */
SLOOP[ ]	/* SetLoopVariable */
IP[ ]	/* InterpolatePts */
EIF[ ]	/* EndIf */
CLEAR[ ]	/* ClearStack */";
};
width = 1233;
}
);
note = g;
unicode = 103;
},
{
glyphname = h;
layers = (
{
layerId = m01;
shapes = (
{
closed = 1;
nodes = (
(1096,840,o),
(1096,872,qs),
(1096,1002,o),
(942,1147,o),
(803,1147,qs),
(705,1147,o),
(530,1049,o),
(455,952,q),
(571,1556,l),
(387,1556,l),
(84,0,l),
(268,0,l),
(391,633,ls),
(424,801,o),
(602,987,o),
(729,987,qs),
(816,987,o),
(909,900,o),
(909,819,qs),
(909,780,o),
(894,709,qs),
(892,699,o),
(891,695,qs),
(756,0,l),
(940,0,l),
(1075,694,ls),
(1085,746,o)
);
}
);
userData = {
assembly = "NPUSHB[ ]	/* 82 values pushed */
10 9 8 7 6 5 4 7 11 3 5 0 1 0 2 5 1 1 0 14 5 16 15 10 11 12 3 9 13 5 15 16 15 21 20 19 3 22 18 5 16 15 17 5 16 16 15 58 13 18 3 0 3 1 10 135 21 134 16 139 14 1 14 16 15 0 24 17 13 7 3 2 5 18 16 1 31 24 16 1 15 27
SRP0[ ]	/* SetRefPoint0 */
MDRP[10100]	/* MoveDirectRelPt */
MIRP[00100]	/* MoveIndirectRelPt */
MDRP[10100]	/* MoveDirectRelPt */
MIRP[01100]	/* MoveIndirectRelPt */
SRP1[ ]	/* SetRefPoint1 */
IP[ ]	/* InterpolatePts */
SLOOP[ ]	/* SetLoopVariable */
IP[ ]	/* InterpolatePts */
SRP1[ ]	/* SetRefPoint1 */
IP[ ]	/* InterpolatePts */
SRP1[ ]	/* SetRefPoint1 */
SRP2[ ]	/* SetRefPoint2 */
IP[ ]	/* InterpolatePts */
IUP[1]	/* InterpolateUntPts */
SVTCA[0]	/* SetFreedomAndProjectionVectorToAxis */
MDAP[1]	/* MoveDirectAbsPt */
ALIGNRP[ ]	/* AlignRelativePt */
MIRP[01100]	/* MoveIndirectRelPt */
MIRP[10100]	/* MoveIndirectRelPt */
MIRP[01100]	/* MoveIndirectRelPt */
SRP1[ ]	/* SetRefPoint1 */
SLOOP[ ]	/* SetLoopVariable */
IP[ ]	/* InterpolatePts */
IP[ ]	/* InterpolatePts */
IUP[0]	/* InterpolateUntPts */
MPPEM[ ]	/* MeasurePixelPerEm */
GTEQ[ ]	/* GreaterThanOrEqual */
IF[ ]	/* If */
SPVTL[1]	/* SetPVectorToLine */
SRP0[ ]	/* SetRefPoint0 */
SFVTCA[1]	/* SetFVectorToAxis */
MIRP[01101]	/* MoveIndirectRelPt */
SPVTL[1]	/* SetPVectorToLine */
SFVTCA[1]	/* SetFVectorToAxis */
MIRP[01101]	/* MoveIndirectRelPt */
SRP1[ ]	/* SetRefPoint1 */
SLOOP[ ]	/* SetLoopVariable */
IP[ ]	/* InterpolatePts */
SPVTL[1]	/* SetPVectorToLine */
SRP0[ ]	/* SetRefPoint0 */
SFVTCA[1]	/* SetFVectorToAxis */
MIRP[01101]	/* MoveIndirectRelPt */
SRP1[ ]	/* SetRefPoint1 */
SLOOP[ ]	/* SetLoopVariable */
IP[ ]	/* InterpolatePts */
SPVTL[1]	/* SetPVectorToLine */
SFVTCA[1]	/* SetFVectorToAxis */
MIRP[01101]	/* MoveIndirectRelPt */
SPVTL[1]	/* SetPVectorToLine */
SRP0[ ]	/* SetRefPoint0 */
SFVTCA[1]	/* SetFVectorToAxis */
MIRP[01101]	/* MoveIndirectRelPt */
SPVTL[1]	/* SetPVectorToLine */
SRP0[ ]	/* SetRefPoint0 */
SFVTCA[1]	/* SetFVectorToAxis */
MIRP[01101]	/* MoveIndirectRelPt */
SRP1[ ]	/* SetRefPoint1 */
SLOOP[ ]	/* SetLoopVariable */
IP[ ]	/* InterpolatePts */
EIF[ ]	/* EndIf */
CLEAR[ ]	/* ClearStack */";
};
width = 1233;
}
);
note = h;
unicode = 104;
},
{
glyphname = i;
lastChange = "2026-05-14 19:09:42 +0000";
layers = (
{
layerId = m01;
shapes = (
{
closed = 1;
nodes = (
(673,0,l),
(894,1120,l),
(302,1120,l),
(274,977,l),
(681,977,l),
(489,0,l)
);
},
{
closed = 1;
nodes = (
(933,1323,l),
(978,1556,l),
(794,1556,l),
(749,1323,l)
);
}
);
userData = {
assembly = "NPUSHB[ ]	/* 55 values pushed */
10 5 11 12 11 13 5 12 12 11 8 5 1 2 1 7 5 2 2 1 58 12 144 10 8 137 0 141 6 2 137 10 143 4 4 11 3 5 0 9 8 7 6 6 14 13 10 1 3 2 1 12 32 11 14
SRP0[ ]	/* SetRefPoint0 */
MDRP[10100]	/* MoveDirectRelPt */
MIRP[00100]	/* MoveIndirectRelPt */
MDRP[10100]	/* MoveDirectRelPt */
MDRP[10100]	/* MoveDirectRelPt */
MDRP[00100]	/* MoveDirectRelPt */
SRP2[ ]	/* SetRefPoint2 */
IP[ ]	/* InterpolatePts */
IP[ ]	/* InterpolatePts */
SRP2[ ]	/* SetRefPoint2 */
SLOOP[ ]	/* SetLoopVariable */
IP[ ]	/* InterpolatePts */
SRP1[ ]	/* SetRefPoint1 */
SRP2[ ]	/* SetRefPoint2 */
IP[ ]	/* InterpolatePts */
IUP[1]	/* InterpolateUntPts */
SVTCA[0]	/* SetFreedomAndProjectionVectorToAxis */
MDAP[1]	/* MoveDirectAbsPt */
MIRP[01100]	/* MoveIndirectRelPt */
MIRP[01100]	/* MoveIndirectRelPt */
SHP[0]	/* ShiftPointByLastPoint */
MIRP[10100]	/* MoveIndirectRelPt */
MIRP[01100]	/* MoveIndirectRelPt */
SRP0[ ]	/* SetRefPoint0 */
MIRP[01110]	/* MoveIndirectRelPt */
IUP[0]	/* InterpolateUntPts */
MPPEM[ ]	/* MeasurePixelPerEm */
GTEQ[ ]	/* GreaterThanOrEqual */
IF[ ]	/* If */
SPVTL[1]	/* SetPVectorToLine */
SRP0[ ]	/* SetRefPoint0 */
SFVTCA[1]	/* SetFVectorToAxis */
MIRP[01101]	/* MoveIndirectRelPt */
SPVTL[1]	/* SetPVectorToLine */
SRP0[ ]	/* SetRefPoint0 */
SFVTCA[1]	/* SetFVectorToAxis */
MIRP[01101]	/* MoveIndirectRelPt */
SPVTL[1]	/* SetPVectorToLine */
SRP0[ ]	/* SetRefPoint0 */
SFVTCA[1]	/* SetFVectorToAxis */
MIRP[01101]	/* MoveIndirectRelPt */
SPVTL[1]	/* SetPVectorToLine */
SRP0[ ]	/* SetRefPoint0 */
SFVTCA[1]	/* SetFVectorToAxis */
MIRP[01101]	/* MoveIndirectRelPt */
EIF[ ]	/* EndIf */
CLEAR[ ]	/* ClearStack */";
};
width = 1233;
}
);
note = i;
unicode = 105;
},
{
glyphname = j;
lastChange = "2026-05-14 19:09:50 +0000";
layers = (
{
layerId = m01;
shapes = (
{
closed = 1;
nodes = (
(353,-270,o),
(258,-270,qs),
(25,-270,l),
(-6,-426,l),
(248,-426,ls),
(429,-426,o),
(631,-233,o),
(672,-20,qs),
(893,1120,l),
(391,1120,l),
(363,977,l),
(680,977,l),
(488,-20,ls),
(463,-151,o)
);
},
{
closed = 1;
nodes = (
(932,1323,l),
(977,1556,l),
(793,1556,l),
(748,1323,l)
);
}
);
userData = {
assembly = "NPUSHB[ ]	/* 64 values pushed */
14 5 15 16 15 17 5 16 16 15 1 5 4 5 4 11 12 13 3 10 0 5 5 5 4 58 5 0 10 1 16 144 14 10 135 8 1 137 3 141 8 142 14 143 18 17 14 11 10 9 8 5 3 2 1 0 11 18 4 16 32 4 15 18
SRP0[ ]	/* SetRefPoint0 */
MDRP[10100]	/* MoveDirectRelPt */
MDRP[00100]	/* MoveDirectRelPt */
MIRP[00100]	/* MoveIndirectRelPt */
SRP1[ ]	/* SetRefPoint1 */
SRP2[ ]	/* SetRefPoint2 */
SLOOP[ ]	/* SetLoopVariable */
IP[ ]	/* InterpolatePts */
IUP[1]	/* InterpolateUntPts */
SVTCA[0]	/* SetFreedomAndProjectionVectorToAxis */
SRP0[ ]	/* SetRefPoint0 */
MIRP[01100]	/* MoveIndirectRelPt */
MIRP[00100]	/* MoveIndirectRelPt */
MIRP[10100]	/* MoveIndirectRelPt */
MIRP[01100]	/* MoveIndirectRelPt */
SRP0[ ]	/* SetRefPoint0 */
MIRP[01110]	/* MoveIndirectRelPt */
SRP0[ ]	/* SetRefPoint0 */
MIRP[01110]	/* MoveIndirectRelPt */
SRP1[ ]	/* SetRefPoint1 */
SRP2[ ]	/* SetRefPoint2 */
IP[ ]	/* InterpolatePts */
IP[ ]	/* InterpolatePts */
IUP[0]	/* InterpolateUntPts */
MPPEM[ ]	/* MeasurePixelPerEm */
GTEQ[ ]	/* GreaterThanOrEqual */
IF[ ]	/* If */
SPVTL[1]	/* SetPVectorToLine */
SRP0[ ]	/* SetRefPoint0 */
SFVTCA[1]	/* SetFVectorToAxis */
MIRP[01101]	/* MoveIndirectRelPt */
SRP1[ ]	/* SetRefPoint1 */
SLOOP[ ]	/* SetLoopVariable */
IP[ ]	/* InterpolatePts */
SPVTL[1]	/* SetPVectorToLine */
SRP0[ ]	/* SetRefPoint0 */
SFVTCA[1]	/* SetFVectorToAxis */
MIRP[01101]	/* MoveIndirectRelPt */
SPVTL[1]	/* SetPVectorToLine */
SRP0[ ]	/* SetRefPoint0 */
SFVTCA[1]	/* SetFVectorToAxis */
MIRP[01101]	/* MoveIndirectRelPt */
SPVTL[1]	/* SetPVectorToLine */
SRP0[ ]	/* SetRefPoint0 */
SFVTCA[1]	/* SetFVectorToAxis */
MIRP[01101]	/* MoveIndirectRelPt */
EIF[ ]	/* EndIf */
CLEAR[ ]	/* ClearStack */";
};
width = 1233;
}
);
note = j;
unicode = 106;
},
{
glyphname = k;
layers = (
{
layerId = m01;
shapes = (
{
closed = 1;
nodes = (
(281,0,l),
(369,449,l),
(537,582,l),
(844,0,l),
(1057,0,l),
(684,698,l),
(1204,1120,l),
(963,1120,l),
(414,682,l),
(584,1556,l),
(393,1556,l),
(90,0,l)
);
}
);
userData = {
assembly = "NPUSHB[ ]	/* 58 values pushed */
8 33 5 6 5 7 33 6 6 5 10 5 0 11 9 5 8 9 0 11 2 5 3 2 11 0 11 1 5 0 0 11 58 8 5 2 3 3 141 0 139 10 6 10 11 8 7 6 5 2 1 6 0 4 0 1 11 12
SRP0[ ]	/* SetRefPoint0 */
MDRP[10100]	/* MoveDirectRelPt */
MIRP[00100]	/* MoveIndirectRelPt */
MDRP[01100]	/* MoveDirectRelPt */
SRP1[ ]	/* SetRefPoint1 */
SLOOP[ ]	/* SetLoopVariable */
IP[ ]	/* InterpolatePts */
SRP2[ ]	/* SetRefPoint2 */
IP[ ]	/* InterpolatePts */
IUP[1]	/* InterpolateUntPts */
SVTCA[0]	/* SetFreedomAndProjectionVectorToAxis */
MDAP[1]	/* MoveDirectAbsPt */
ALIGNRP[ ]	/* AlignRelativePt */
MIRP[01100]	/* MoveIndirectRelPt */
MIRP[00100]	/* MoveIndirectRelPt */
SLOOP[ ]	/* SetLoopVariable */
IP[ ]	/* InterpolatePts */
IUP[0]	/* InterpolateUntPts */
MPPEM[ ]	/* MeasurePixelPerEm */
GTEQ[ ]	/* GreaterThanOrEqual */
IF[ ]	/* If */
SPVTL[1]	/* SetPVectorToLine */
SRP0[ ]	/* SetRefPoint0 */
SFVTCA[1]	/* SetFVectorToAxis */
MIRP[01101]	/* MoveIndirectRelPt */
SPVTL[1]	/* SetPVectorToLine */
SRP0[ ]	/* SetRefPoint0 */
SFVTL[0]	/* SetFVectorToLine */
MIRP[01101]	/* MoveIndirectRelPt */
SPVTL[1]	/* SetPVectorToLine */
SFVTL[0]	/* SetFVectorToLine */
MIRP[01101]	/* MoveIndirectRelPt */
SPVTL[1]	/* SetPVectorToLine */
SFVTCA[1]	/* SetFVectorToAxis */
MIRP[01101]	/* MoveIndirectRelPt */
SPVTL[1]	/* SetPVectorToLine */
SRP0[ ]	/* SetRefPoint0 */
SFVTCA[1]	/* SetFVectorToAxis */
MIRP[01101]	/* MoveIndirectRelPt */
SPVTL[1]	/* SetPVectorToLine */
SRP0[ ]	/* SetRefPoint0 */
SFVTCA[1]	/* SetFVectorToAxis */
MIRP[01101]	/* MoveIndirectRelPt */
EIF[ ]	/* EndIf */
CLEAR[ ]	/* ClearStack */
PUSHB[ ]	/* 3 values pushed */
119 2 1
SVTCA[0]	/* SetFreedomAndProjectionVectorToAxis */
DELTAP1[ ]	/* DeltaExceptionP1 */
PUSHB[ ]	/* 8 values pushed */
118 2 125 3 2 112 2 1
DELTAP1[ ]	/* DeltaExceptionP1 */
SVTCA[1]	/* SetFreedomAndProjectionVectorToAxis */
DELTAP1[ ]	/* DeltaExceptionP1 */";
};
width = 1233;
}
);
note = k;
unicode = 107;
},
{
glyphname = l;
lastChange = "2026-05-14 15:10:41 +0000";
layers = (
{
guides = (
{
angle = 78.3008;
pos = (720,988);
},
{
angle = 258.2113;
pos = (522,918);
}
);
layerId = m01;
shapes = (
{
closed = 1;
nodes = (
(338,1556,l),
(309,1412,l),
(625,1412,l),
(416,412,ls),
(406,366,o),
(397,286,o),
(397,258,qs),
(397,127,o),
(566,0,o),
(739,0,qs),
(946,0,l),
(977,156,l),
(766,156,ls),
(675,156,o),
(586,228,o),
(586,301,qs),
(586,319,o),
(593,373,o),
(600,408,qs),
(838,1556,l)
);
}
);
userData = {
assembly = "NPUSHB[ ]	/* 47 values pushed */
6 5 4 3 2 1 6 7 0 5 15 16 15 19 5 16 16 15 58 0 15 6 16 137 18 143 6 137 8 17 18 20 0 15 12 19 8 7 3 12 6 9 7 16 16 12 20
SRP0[ ]	/* SetRefPoint0 */
MDRP[10100]	/* MoveDirectRelPt */
MDRP[00100]	/* MoveDirectRelPt */
SRP0[ ]	/* SetRefPoint0 */
MDRP[00000]	/* MoveDirectRelPt */
MDRP[00000]	/* MoveDirectRelPt */
MDRP[00000]	/* MoveDirectRelPt */
SRP2[ ]	/* SetRefPoint2 */
IP[ ]	/* InterpolatePts */
SRP2[ ]	/* SetRefPoint2 */
IP[ ]	/* InterpolatePts */
IP[ ]	/* InterpolatePts */
SRP2[ ]	/* SetRefPoint2 */
IP[ ]	/* InterpolatePts */
IP[ ]	/* InterpolatePts */
SRP1[ ]	/* SetRefPoint1 */
IP[ ]	/* InterpolatePts */
IP[ ]	/* InterpolatePts */
IUP[1]	/* InterpolateUntPts */
SVTCA[0]	/* SetFreedomAndProjectionVectorToAxis */
MDAP[1]	/* MoveDirectAbsPt */
MIRP[01100]	/* MoveIndirectRelPt */
MIRP[11100]	/* MoveIndirectRelPt */
MIRP[01100]	/* MoveIndirectRelPt */
SRP1[ ]	/* SetRefPoint1 */
IP[ ]	/* InterpolatePts */
IP[ ]	/* InterpolatePts */
IUP[0]	/* InterpolateUntPts */
MPPEM[ ]	/* MeasurePixelPerEm */
GTEQ[ ]	/* GreaterThanOrEqual */
IF[ ]	/* If */
SPVTL[1]	/* SetPVectorToLine */
SRP0[ ]	/* SetRefPoint0 */
SFVTCA[1]	/* SetFVectorToAxis */
MIRP[01101]	/* MoveIndirectRelPt */
SPVTL[1]	/* SetPVectorToLine */
SRP0[ ]	/* SetRefPoint0 */
SFVTCA[1]	/* SetFVectorToAxis */
MIRP[01101]	/* MoveIndirectRelPt */
SRP1[ ]	/* SetRefPoint1 */
SLOOP[ ]	/* SetLoopVariable */
IP[ ]	/* InterpolatePts */
EIF[ ]	/* EndIf */
CLEAR[ ]	/* ClearStack */";
};
width = 1233;
}
);
note = l;
unicode = 108;
},
{
glyphname = m;
layers = (
{
layerId = m01;
shapes = (
{
closed = 1;
nodes = (
(646,1147,o),
(571,1147,qs),
(507,1147,o),
(396,1084,o),
(352,1024,q),
(371,1120,l),
(203,1120,l),
(-14,0,l),
(154,0,l),
(279,641,ls),
(324,874,o),
(405,993,o),
(479,993,qs),
(528,993,o),
(575,935,o),
(575,874,qs),
(575,851,o),
(558,738,o),
(539,641,qs),
(414,0,l),
(582,0,l),
(707,641,ls),
(750,864,o),
(834,993,o),
(909,993,qs),
(960,993,o),
(1006,937,o),
(1006,874,qs),
(1006,850,o),
(987,733,o),
(969,641,qs),
(844,0,l),
(1012,0,l),
(1139,649,ls),
(1160,756,o),
(1178,892,o),
(1178,946,qs),
(1178,1038,o),
(1075,1147,o),
(989,1147,qs),
(912,1147,o),
(787,1074,o),
(748,1006,q),
(738,1072,o)
);
}
);
userData = {
assembly = "NPUSHB[ ]	/* 101 values pushed */
29 28 27 26 25 5 30 24 5 21 22 21 23 5 22 22 21 17 16 15 14 13 5 18 12 5 9 10 9 11 5 10 10 9 36 5 37 34 37 35 5 34 34 37 58 33 24 21 12 4 10 0 38 36 9 10 30 18 135 41 3 134 36 141 34 22 10 36 34 24 23 37 22 9 6 12 11 10 0 38 33 34 27 37 21 22 15 10 0 35 6 31 10 37 20 34 0 31 10 22 44
SRP0[ ]	/* SetRefPoint0 */
MDRP[10100]	/* MoveDirectRelPt */
MDRP[00100]	/* MoveDirectRelPt */
MIRP[01100]	/* MoveIndirectRelPt */
MDRP[10100]	/* MoveDirectRelPt */
MIRP[00100]	/* MoveIndirectRelPt */
SRP0[ ]	/* SetRefPoint0 */
MIRP[01110]	/* MoveIndirectRelPt */
MDAP[0]	/* MoveDirectAbsPt */
SRP1[ ]	/* SetRefPoint1 */
SRP2[ ]	/* SetRefPoint2 */
IP[ ]	/* InterpolatePts */
SRP2[ ]	/* SetRefPoint2 */
IP[ ]	/* InterpolatePts */
SRP1[ ]	/* SetRefPoint1 */
IP[ ]	/* InterpolatePts */
SRP2[ ]	/* SetRefPoint2 */
IP[ ]	/* InterpolatePts */
IP[ ]	/* InterpolatePts */
SRP1[ ]	/* SetRefPoint1 */
SRP2[ ]	/* SetRefPoint2 */
IP[ ]	/* InterpolatePts */
IP[ ]	/* InterpolatePts */
SRP1[ ]	/* SetRefPoint1 */
IP[ ]	/* InterpolatePts */
SRP1[ ]	/* SetRefPoint1 */
SRP2[ ]	/* SetRefPoint2 */
IP[ ]	/* InterpolatePts */
IP[ ]	/* InterpolatePts */
SRP1[ ]	/* SetRefPoint1 */
IP[ ]	/* InterpolatePts */
IUP[1]	/* InterpolateUntPts */
SVTCA[0]	/* SetFreedomAndProjectionVectorToAxis */
MDAP[1]	/* MoveDirectAbsPt */
ALIGNRP[ ]	/* AlignRelativePt */
ALIGNRP[ ]	/* AlignRelativePt */
MIRP[00110]	/* MoveIndirectRelPt */
MIRP[10110]	/* MoveIndirectRelPt */
ALIGNRP[ ]	/* AlignRelativePt */
MIRP[01110]	/* MoveIndirectRelPt */
SHP[0]	/* ShiftPointByLastPoint */
SRP1[ ]	/* SetRefPoint1 */
IP[ ]	/* InterpolatePts */
SRP1[ ]	/* SetRefPoint1 */
IP[ ]	/* InterpolatePts */
IP[ ]	/* InterpolatePts */
SRP1[ ]	/* SetRefPoint1 */
SLOOP[ ]	/* SetLoopVariable */
IP[ ]	/* InterpolatePts */
IUP[0]	/* InterpolateUntPts */
MPPEM[ ]	/* MeasurePixelPerEm */
GTEQ[ ]	/* GreaterThanOrEqual */
IF[ ]	/* If */
SPVTL[1]	/* SetPVectorToLine */
SRP0[ ]	/* SetRefPoint0 */
SFVTCA[1]	/* SetFVectorToAxis */
MIRP[01101]	/* MoveIndirectRelPt */
SPVTL[1]	/* SetPVectorToLine */
SRP0[ ]	/* SetRefPoint0 */
SFVTCA[1]	/* SetFVectorToAxis */
MIRP[01101]	/* MoveIndirectRelPt */
SPVTL[1]	/* SetPVectorToLine */
SRP0[ ]	/* SetRefPoint0 */
SFVTCA[1]	/* SetFVectorToAxis */
MIRP[01101]	/* MoveIndirectRelPt */
SPVTL[1]	/* SetPVectorToLine */
SRP0[ ]	/* SetRefPoint0 */
SFVTCA[1]	/* SetFVectorToAxis */
MIRP[01101]	/* MoveIndirectRelPt */
SRP1[ ]	/* SetRefPoint1 */
SLOOP[ ]	/* SetLoopVariable */
IP[ ]	/* InterpolatePts */
SPVTL[1]	/* SetPVectorToLine */
SRP0[ ]	/* SetRefPoint0 */
SFVTCA[1]	/* SetFVectorToAxis */
MIRP[01101]	/* MoveIndirectRelPt */
SPVTL[1]	/* SetPVectorToLine */
SRP0[ ]	/* SetRefPoint0 */
SFVTCA[1]	/* SetFVectorToAxis */
MIRP[01101]	/* MoveIndirectRelPt */
SRP1[ ]	/* SetRefPoint1 */
SLOOP[ ]	/* SetLoopVariable */
IP[ ]	/* InterpolatePts */
EIF[ ]	/* EndIf */
CLEAR[ ]	/* ClearStack */
SVTCA[1]	/* SetFreedomAndProjectionVectorToAxis */
MPPEM[ ]	/* MeasurePixelPerEm */
PUSHB[ ]	/* 1 value pushed */
12
EQ[ ]	/* Equal */
IF[ ]	/* If */
PUSHW[ ]	/* 6 values pushed */
44 -64 1 44 44 64
SHPIX[ ]	/* ShiftZoneByPixel */
SRP1[ ]	/* SetRefPoint1 */
SHZ[1]	/* ShiftZoneByLastPoint */
SHPIX[ ]	/* ShiftZoneByPixel */
EIF[ ]	/* EndIf */";
};
width = 1233;
}
);
note = m;
unicode = 109;
},
{
glyphname = n;
layers = (
{
layerId = m01;
shapes = (
{
closed = 1;
nodes = (
(1096,840,o),
(1096,872,qs),
(1096,1002,o),
(942,1147,o),
(803,1147,qs),
(705,1147,o),
(530,1049,o),
(455,952,q),
(487,1120,l),
(303,1120,l),
(84,0,l),
(268,0,l),
(391,633,ls),
(424,801,o),
(602,987,o),
(729,987,qs),
(816,987,o),
(909,900,o),
(909,819,qs),
(909,780,o),
(894,709,qs),
(892,699,o),
(891,695,qs),
(756,0,l),
(940,0,l),
(1075,694,ls),
(1085,746,o)
);
}
);
userData = {
assembly = "NPUSHB[ ]	/* 82 values pushed */
10 9 8 7 6 5 4 7 11 3 5 0 1 0 2 5 1 1 0 14 5 15 16 15 10 11 12 3 9 13 5 16 15 21 20 19 3 22 18 5 16 15 17 5 16 16 15 58 13 18 3 0 3 1 10 135 21 134 16 141 14 1 14 16 15 0 24 17 13 7 3 2 5 18 16 1 31 24 16 20 15 27
SRP0[ ]	/* SetRefPoint0 */
MDRP[10100]	/* MoveDirectRelPt */
MIRP[00100]	/* MoveIndirectRelPt */
MDRP[10100]	/* MoveDirectRelPt */
MIRP[01100]	/* MoveIndirectRelPt */
SRP1[ ]	/* SetRefPoint1 */
IP[ ]	/* InterpolatePts */
SLOOP[ ]	/* SetLoopVariable */
IP[ ]	/* InterpolatePts */
SRP1[ ]	/* SetRefPoint1 */
IP[ ]	/* InterpolatePts */
SRP1[ ]	/* SetRefPoint1 */
SRP2[ ]	/* SetRefPoint2 */
IP[ ]	/* InterpolatePts */
IUP[1]	/* InterpolateUntPts */
SVTCA[0]	/* SetFreedomAndProjectionVectorToAxis */
MDAP[1]	/* MoveDirectAbsPt */
ALIGNRP[ ]	/* AlignRelativePt */
MIRP[00100]	/* MoveIndirectRelPt */
MIRP[10100]	/* MoveIndirectRelPt */
MIRP[01100]	/* MoveIndirectRelPt */
SRP1[ ]	/* SetRefPoint1 */
SLOOP[ ]	/* SetLoopVariable */
IP[ ]	/* InterpolatePts */
IP[ ]	/* InterpolatePts */
IUP[0]	/* InterpolateUntPts */
MPPEM[ ]	/* MeasurePixelPerEm */
GTEQ[ ]	/* GreaterThanOrEqual */
IF[ ]	/* If */
SPVTL[1]	/* SetPVectorToLine */
SRP0[ ]	/* SetRefPoint0 */
SFVTCA[1]	/* SetFVectorToAxis */
MIRP[01101]	/* MoveIndirectRelPt */
SPVTL[1]	/* SetPVectorToLine */
SFVTCA[1]	/* SetFVectorToAxis */
MIRP[01101]	/* MoveIndirectRelPt */
SRP1[ ]	/* SetRefPoint1 */
SLOOP[ ]	/* SetLoopVariable */
IP[ ]	/* InterpolatePts */
SPVTL[1]	/* SetPVectorToLine */
SFVTCA[1]	/* SetFVectorToAxis */
MIRP[01101]	/* MoveIndirectRelPt */
SRP1[ ]	/* SetRefPoint1 */
SLOOP[ ]	/* SetLoopVariable */
IP[ ]	/* InterpolatePts */
SPVTL[1]	/* SetPVectorToLine */
SRP0[ ]	/* SetRefPoint0 */
SFVTCA[1]	/* SetFVectorToAxis */
MIRP[01101]	/* MoveIndirectRelPt */
SPVTL[1]	/* SetPVectorToLine */
SRP0[ ]	/* SetRefPoint0 */
SFVTCA[1]	/* SetFVectorToAxis */
MIRP[01101]	/* MoveIndirectRelPt */
SPVTL[1]	/* SetPVectorToLine */
SRP0[ ]	/* SetRefPoint0 */
SFVTCA[1]	/* SetFVectorToAxis */
MIRP[01101]	/* MoveIndirectRelPt */
SRP1[ ]	/* SetRefPoint1 */
SLOOP[ ]	/* SetLoopVariable */
IP[ ]	/* InterpolatePts */
EIF[ ]	/* EndIf */
CLEAR[ ]	/* ClearStack */";
};
width = 1233;
}
);
note = n;
unicode = 110;
},
{
glyphname = o;
layers = (
{
layerId = m01;
shapes = (
{
closed = 1;
nodes = (
(920,862,o),
(920,733,qs),
(920,469,o),
(701,127,o),
(537,127,qs),
(425,127,o),
(313,256,o),
(313,385,qs),
(313,649,o),
(532,991,o),
(696,991,qs),
(808,991,o)
);
},
{
closed = 1;
nodes = (
(353,1027,o),
(274,911,qs),
(199,798,o),
(117,528,o),
(117,393,qs),
(117,190,o),
(319,-29,o),
(506,-29,qs),
(653,-29,o),
(879,89,o),
(958,207,qs),
(1032,316,o),
(1114,589,o),
(1114,727,qs),
(1114,933,o),
(909,1147,o),
(713,1147,qs),
(576,1147,o)
);
}
);
userData = {
assembly = "NPUSHB[ ]	/* 17 values pushed */
6 135 21 0 135 12 134 21 101 30 9 11 15 3 11 24 30
SRP0[ ]	/* SetRefPoint0 */
MDRP[10100]	/* MoveDirectRelPt */
MIRP[01100]	/* MoveIndirectRelPt */
MDRP[10100]	/* MoveDirectRelPt */
MIRP[01100]	/* MoveIndirectRelPt */
IUP[1]	/* InterpolateUntPts */
SVTCA[0]	/* SetFreedomAndProjectionVectorToAxis */
SRP0[ ]	/* SetRefPoint0 */
MIRP[00100]	/* MoveIndirectRelPt */
MIRP[10100]	/* MoveIndirectRelPt */
MIRP[01100]	/* MoveIndirectRelPt */
SRP0[ ]	/* SetRefPoint0 */
MIRP[01110]	/* MoveIndirectRelPt */
IUP[0]	/* InterpolateUntPts */";
};
width = 1233;
}
);
note = o;
unicode = 111;
},
{
glyphname = p;
layers = (
{
layerId = m01;
shapes = (
{
closed = 1;
nodes = (
(478,-29,o),
(578,-29,qs),
(700,-29,o),
(904,93,o),
(979,211,qs),
(1049,321,o),
(1128,609,o),
(1128,752,qs),
(1128,939,o),
(950,1147,o),
(788,1147,qs),
(688,1147,o),
(516,1059,o),
(455,977,q),
(483,1120,l),
(299,1120,l),
(-2,-426,l),
(182,-426,l),
(293,141,l),
(337,55,o)
);
},
{
closed = 1;
nodes = (
(354,260,o),
(354,383,qs),
(354,497,o),
(410,725,o),
(459,813,qs),
(507,901,o),
(644,991,o),
(729,991,qs),
(831,991,o),
(934,864,o),
(934,737,qs),
(934,624,o),
(878,393,o),
(829,301,qs),
(784,216,o),
(650,127,o),
(569,127,qs),
(466,127,o)
);
}
);
userData = {
assembly = "NPUSHB[ ]	/* 78 values pushed */
37 36 35 3 20 34 5 3 2 30 31 32 3 29 33 5 3 3 2 1 5 3 2 17 18 19 3 16 0 5 2 3 2 8 7 6 3 9 5 5 3 2 4 5 3 3 2 58 5 0 29 20 135 17 29 135 8 134 17 101 1 142 3 141 38 1 38 35 4 5 3 2 26 11 11 3 29 38
SRP0[ ]	/* SetRefPoint0 */
MIRP[00100]	/* MoveIndirectRelPt */
MDRP[10100]	/* MoveDirectRelPt */
MIRP[01100]	/* MoveIndirectRelPt */
MDAP[0]	/* MoveDirectAbsPt */
SRP1[ ]	/* SetRefPoint1 */
IP[ ]	/* InterpolatePts */
IP[ ]	/* InterpolatePts */
IP[ ]	/* InterpolatePts */
SRP2[ ]	/* SetRefPoint2 */
IP[ ]	/* InterpolatePts */
IUP[1]	/* InterpolateUntPts */
SVTCA[0]	/* SetFreedomAndProjectionVectorToAxis */
SRP0[ ]	/* SetRefPoint0 */
MIRP[00100]	/* MoveIndirectRelPt */
MIRP[00100]	/* MoveIndirectRelPt */
MIRP[00100]	/* MoveIndirectRelPt */
MIRP[10100]	/* MoveIndirectRelPt */
MIRP[01100]	/* MoveIndirectRelPt */
SRP0[ ]	/* SetRefPoint0 */
MIRP[01110]	/* MoveIndirectRelPt */
SRP1[ ]	/* SetRefPoint1 */
IP[ ]	/* InterpolatePts */
IP[ ]	/* InterpolatePts */
IUP[0]	/* InterpolateUntPts */
MPPEM[ ]	/* MeasurePixelPerEm */
GTEQ[ ]	/* GreaterThanOrEqual */
IF[ ]	/* If */
SPVTL[1]	/* SetPVectorToLine */
SRP0[ ]	/* SetRefPoint0 */
SFVTCA[1]	/* SetFVectorToAxis */
MIRP[01101]	/* MoveIndirectRelPt */
SPVTL[1]	/* SetPVectorToLine */
SFVTCA[1]	/* SetFVectorToAxis */
MIRP[01101]	/* MoveIndirectRelPt */
SRP1[ ]	/* SetRefPoint1 */
SLOOP[ ]	/* SetLoopVariable */
IP[ ]	/* InterpolatePts */
SPVTL[1]	/* SetPVectorToLine */
SRP0[ ]	/* SetRefPoint0 */
SFVTCA[1]	/* SetFVectorToAxis */
MIRP[01101]	/* MoveIndirectRelPt */
SRP1[ ]	/* SetRefPoint1 */
SLOOP[ ]	/* SetLoopVariable */
IP[ ]	/* InterpolatePts */
SPVTL[1]	/* SetPVectorToLine */
SFVTCA[1]	/* SetFVectorToAxis */
MIRP[01101]	/* MoveIndirectRelPt */
SPVTL[1]	/* SetPVectorToLine */
SRP0[ ]	/* SetRefPoint0 */
SFVTCA[1]	/* SetFVectorToAxis */
MIRP[01101]	/* MoveIndirectRelPt */
SRP1[ ]	/* SetRefPoint1 */
SLOOP[ ]	/* SetLoopVariable */
IP[ ]	/* InterpolatePts */
SPVTL[1]	/* SetPVectorToLine */
SFVTCA[1]	/* SetFVectorToAxis */
MIRP[01101]	/* MoveIndirectRelPt */
SRP1[ ]	/* SetRefPoint1 */
SLOOP[ ]	/* SetLoopVariable */
IP[ ]	/* InterpolatePts */
EIF[ ]	/* EndIf */
CLEAR[ ]	/* ClearStack */";
};
width = 1233;
}
);
note = p;
unicode = 112;
},
{
glyphname = q;
layers = (
{
layerId = m01;
shapes = (
{
closed = 1;
nodes = (
(848,-426,l),
(1147,1120,l),
(963,1120,l),
(936,977,l),
(901,1062,o),
(766,1147,o),
(666,1147,qs),
(536,1147,o),
(327,1027,o),
(252,909,qs),
(180,797,o),
(98,507,o),
(98,365,qs),
(98,178,o),
(282,-29,o),
(446,-29,qs),
(548,-29,o),
(713,57,o),
(774,141,q),
(664,-426,l)
);
},
{
closed = 1;
nodes = (
(874,860,o),
(874,737,qs),
(874,625,o),
(816,390,o),
(768,305,qs),
(718,218,o),
(580,127,o),
(498,127,qs),
(396,127,o),
(295,255,o),
(295,383,qs),
(295,491,o),
(352,723,o),
(401,817,qs),
(447,903,o),
(583,991,o),
(668,991,qs),
(767,991,o)
);
}
);
userData = {
assembly = "NPUSHB[ ]	/* 61 values pushed */
16 5 18 17 12 13 14 3 11 15 5 17 18 17 3 2 1 3 4 0 5 18 17 19 5 18 18 17 58 15 0 20 29 135 3 20 135 12 134 3 101 18 142 16 141 38 19 26 16 17 0 26 15 35 18 29 17 26 11 6 38
SRP0[ ]	/* SetRefPoint0 */
MDRP[10100]	/* MoveDirectRelPt */
MIRP[01100]	/* MoveIndirectRelPt */
MDRP[10100]	/* MoveDirectRelPt */
MIRP[00100]	/* MoveIndirectRelPt */
IP[ ]	/* InterpolatePts */
IP[ ]	/* InterpolatePts */
SRP1[ ]	/* SetRefPoint1 */
IP[ ]	/* InterpolatePts */
SRP1[ ]	/* SetRefPoint1 */
IP[ ]	/* InterpolatePts */
SRP1[ ]	/* SetRefPoint1 */
IP[ ]	/* InterpolatePts */
IUP[1]	/* InterpolateUntPts */
SVTCA[0]	/* SetFreedomAndProjectionVectorToAxis */
SRP0[ ]	/* SetRefPoint0 */
MIRP[00100]	/* MoveIndirectRelPt */
MIRP[00100]	/* MoveIndirectRelPt */
MIRP[00100]	/* MoveIndirectRelPt */
MIRP[10100]	/* MoveIndirectRelPt */
MIRP[01100]	/* MoveIndirectRelPt */
SRP0[ ]	/* SetRefPoint0 */
MIRP[01110]	/* MoveIndirectRelPt */
SRP1[ ]	/* SetRefPoint1 */
IP[ ]	/* InterpolatePts */
IP[ ]	/* InterpolatePts */
IUP[0]	/* InterpolateUntPts */
MPPEM[ ]	/* MeasurePixelPerEm */
GTEQ[ ]	/* GreaterThanOrEqual */
IF[ ]	/* If */
SPVTL[1]	/* SetPVectorToLine */
SRP0[ ]	/* SetRefPoint0 */
SFVTCA[1]	/* SetFVectorToAxis */
MIRP[01101]	/* MoveIndirectRelPt */
SPVTL[1]	/* SetPVectorToLine */
SFVTCA[1]	/* SetFVectorToAxis */
MIRP[01101]	/* MoveIndirectRelPt */
SRP1[ ]	/* SetRefPoint1 */
SLOOP[ ]	/* SetLoopVariable */
IP[ ]	/* InterpolatePts */
SPVTL[1]	/* SetPVectorToLine */
SRP0[ ]	/* SetRefPoint0 */
SFVTCA[1]	/* SetFVectorToAxis */
MIRP[01101]	/* MoveIndirectRelPt */
SRP1[ ]	/* SetRefPoint1 */
SLOOP[ ]	/* SetLoopVariable */
IP[ ]	/* InterpolatePts */
SPVTL[1]	/* SetPVectorToLine */
SFVTCA[1]	/* SetFVectorToAxis */
MIRP[01101]	/* MoveIndirectRelPt */
EIF[ ]	/* EndIf */
CLEAR[ ]	/* ClearStack */";
};
width = 1233;
}
);
note = q;
unicode = 113;
},
{
glyphname = r;
layers = (
{
layerId = m01;
shapes = (
{
closed = 1;
nodes = (
(1179,1110,o),
(1064,1147,o),
(993,1147,qs),
(858,1147,o),
(645,1021,o),
(578,901,q),
(618,1120,l),
(434,1120,l),
(217,0,l),
(401,0,l),
(508,549,ls),
(546,748,o),
(780,977,o),
(944,977,qs),
(1020,977,o),
(1139,933,o),
(1184,889,q),
(1219,1075,l)
);
}
);
userData = {
assembly = "NPUSHB[ ]	/* 55 values pushed */
7 5 8 9 8 3 4 5 3 2 6 5 9 8 14 13 12 3 15 11 5 9 8 10 5 9 9 8 58 6 7 11 3 0 17 3 99 14 134 9 141 7 11 10 0 6 4 17 7 9 17 9 20 8 18
SRP0[ ]	/* SetRefPoint0 */
MDRP[10100]	/* MoveDirectRelPt */
MIRP[00100]	/* MoveIndirectRelPt */
MDRP[01100]	/* MoveDirectRelPt */
SRP2[ ]	/* SetRefPoint2 */
IP[ ]	/* InterpolatePts */
SRP1[ ]	/* SetRefPoint1 */
SLOOP[ ]	/* SetLoopVariable */
IP[ ]	/* InterpolatePts */
IUP[1]	/* InterpolateUntPts */
SVTCA[0]	/* SetFreedomAndProjectionVectorToAxis */
MDAP[1]	/* MoveDirectAbsPt */
MIRP[00100]	/* MoveIndirectRelPt */
MIRP[10100]	/* MoveIndirectRelPt */
MIRP[01100]	/* MoveIndirectRelPt */
MDRP[10100]	/* MoveDirectRelPt */
MDRP[00100]	/* MoveDirectRelPt */
SRP1[ ]	/* SetRefPoint1 */
IP[ ]	/* InterpolatePts */
SRP1[ ]	/* SetRefPoint1 */
IP[ ]	/* InterpolatePts */
IUP[0]	/* InterpolateUntPts */
MPPEM[ ]	/* MeasurePixelPerEm */
GTEQ[ ]	/* GreaterThanOrEqual */
IF[ ]	/* If */
SPVTL[1]	/* SetPVectorToLine */
SRP0[ ]	/* SetRefPoint0 */
SFVTCA[1]	/* SetFVectorToAxis */
MIRP[01101]	/* MoveIndirectRelPt */
SPVTL[1]	/* SetPVectorToLine */
SFVTCA[1]	/* SetFVectorToAxis */
MIRP[01101]	/* MoveIndirectRelPt */
SRP1[ ]	/* SetRefPoint1 */
SLOOP[ ]	/* SetLoopVariable */
IP[ ]	/* InterpolatePts */
SPVTL[1]	/* SetPVectorToLine */
SFVTCA[1]	/* SetFVectorToAxis */
MIRP[01101]	/* MoveIndirectRelPt */
SRP1[ ]	/* SetRefPoint1 */
SLOOP[ ]	/* SetLoopVariable */
IP[ ]	/* InterpolatePts */
SPVTL[1]	/* SetPVectorToLine */
SRP0[ ]	/* SetRefPoint0 */
SFVTCA[1]	/* SetFVectorToAxis */
MIRP[01101]	/* MoveIndirectRelPt */
EIF[ ]	/* EndIf */
CLEAR[ ]	/* ClearStack */";
};
width = 1233;
}
);
note = r;
unicode = 114;
},
{
glyphname = s;
layers = (
{
layerId = m01;
shapes = (
{
closed = 1;
nodes = (
(842,1147,o),
(754,1147,qs),
(530,1147,o),
(266,946,o),
(266,776,qs),
(266,673,o),
(387,545,o),
(516,512,qs),
(583,494,ls),
(593,491,o),
(611,487,qs),
(807,435,o),
(807,336,qs),
(807,244,o),
(639,125,o),
(506,125,qs),
(423,125,o),
(246,178,o),
(152,231,q),
(115,41,l),
(214,6,o),
(390,-29,o),
(471,-29,qs),
(709,-29,o),
(997,194,o),
(997,375,qs),
(997,467,o),
(881,590,o),
(764,621,qs),
(692,639,ls),
(685,641,o),
(670,645,qs),
(449,701,o),
(449,799,qs),
(449,891,o),
(600,993,o),
(737,993,qs),
(814,993,o),
(971,946,o),
(1042,901,q),
(1077,1081,l),
(1004,1114,o)
);
}
);
userData = {
assembly = "NPUSHB[ ]	/* 59 values pushed */
14 13 2 15 12 5 33 32 8 9 10 3 7 11 5 32 33 32 58 11 12 32 33 4 22 0 87 1 90 4 21 87 22 90 25 135 18 4 135 39 134 18 101 42 32 11 33 12 28 7 1 0 28 7 15 7 7 36 42
SRP0[ ]	/* SetRefPoint0 */
MDRP[10100]	/* MoveDirectRelPt */
MIRP[01100]	/* MoveIndirectRelPt */
MDRP[10100]	/* MoveDirectRelPt */
MIRP[01100]	/* MoveIndirectRelPt */
MDRP[00000]	/* MoveDirectRelPt */
MDRP[00000]	/* MoveDirectRelPt */
SRP1[ ]	/* SetRefPoint1 */
SRP2[ ]	/* SetRefPoint2 */
IP[ ]	/* InterpolatePts */
IP[ ]	/* InterpolatePts */
IP[ ]	/* InterpolatePts */
IP[ ]	/* InterpolatePts */
IUP[1]	/* InterpolateUntPts */
SVTCA[0]	/* SetFreedomAndProjectionVectorToAxis */
SRP0[ ]	/* SetRefPoint0 */
MIRP[00100]	/* MoveIndirectRelPt */
MIRP[10100]	/* MoveIndirectRelPt */
MIRP[01100]	/* MoveIndirectRelPt */
SRP0[ ]	/* SetRefPoint0 */
MIRP[11110]	/* MoveIndirectRelPt */
MIRP[10101]	/* MoveIndirectRelPt */
MIRP[01110]	/* MoveIndirectRelPt */
SRP0[ ]	/* SetRefPoint0 */
MIRP[10101]	/* MoveIndirectRelPt */
MIRP[01110]	/* MoveIndirectRelPt */
SRP2[ ]	/* SetRefPoint2 */
SLOOP[ ]	/* SetLoopVariable */
IP[ ]	/* InterpolatePts */
IUP[0]	/* InterpolateUntPts */
MPPEM[ ]	/* MeasurePixelPerEm */
GTEQ[ ]	/* GreaterThanOrEqual */
IF[ ]	/* If */
SPVTL[1]	/* SetPVectorToLine */
SRP0[ ]	/* SetRefPoint0 */
SFVTPV[ ]	/* SetFVectorToPVector */
MIRP[01101]	/* MoveIndirectRelPt */
SRP1[ ]	/* SetRefPoint1 */
SLOOP[ ]	/* SetLoopVariable */
IP[ ]	/* InterpolatePts */
SPVTL[1]	/* SetPVectorToLine */
SFVTPV[ ]	/* SetFVectorToPVector */
MIRP[01101]	/* MoveIndirectRelPt */
SRP1[ ]	/* SetRefPoint1 */
SLOOP[ ]	/* SetLoopVariable */
IP[ ]	/* InterpolatePts */
EIF[ ]	/* EndIf */
CLEAR[ ]	/* ClearStack */
PUSHB[ ]	/* 3 values pushed */
24 23 1
SVTCA[0]	/* SetFreedomAndProjectionVectorToAxis */
DELTAP1[ ]	/* DeltaExceptionP1 */
NPUSHB[ ]	/* 96 values pushed */
20 20 20 21 20 22 20 23 43 0 43 1 39 21 39 22 57 0 57 1 73 0 73 1 68 21 68 22 89 0 89 1 89 2 89 41 105 0 105 1 105 2 105 41 121 0 121 1 121 2 116 21 116 22 121 41 154 0 154 1 154 2 154 41 32 28 20 31 21 31 22 27 23 39 0 32 0 39 1 32 1 47 21 47 22 53 0 53 1 71 0 71 1 118 23 15
DELTAP1[ ]	/* DeltaExceptionP1 */
SVTCA[1]	/* SetFreedomAndProjectionVectorToAxis */
DELTAP1[ ]	/* DeltaExceptionP1 */";
};
width = 1233;
}
);
note = s;
unicode = 115;
},
{
glyphname = t;
layers = (
{
layerId = m01;
shapes = (
{
closed = 1;
nodes = (
(522,1120,l),
(223,1120,l),
(195,977,l),
(494,977,l),
(375,369,ls),
(366,322,o),
(358,254,o),
(358,229,qs),
(358,111,o),
(515,0,o),
(682,0,qs),
(905,0,l),
(934,147,l),
(727,147,ls),
(625,147,o),
(547,200,o),
(547,266,qs),
(547,288,o),
(553,339,o),
(559,369,qs),
(678,977,l),
(1096,977,l),
(1124,1120,l),
(707,1120,l),
(768,1438,l),
(584,1438,l)
);
}
);
userData = {
assembly = "NPUSHB[ ]	/* 64 values pushed */
1 5 24 25 24 0 5 25 25 24 11 10 9 8 7 6 6 12 5 5 20 21 20 4 5 21 21 20 58 20 5 11 21 3 137 0 23 1 141 11 137 13 23 22 26 25 24 21 20 14 13 12 11 8 5 4 3 1 0 14 2 17 17 26
SRP0[ ]	/* SetRefPoint0 */
MDRP[00100]	/* MoveDirectRelPt */
SRP0[ ]	/* SetRefPoint0 */
MDRP[00000]	/* MoveDirectRelPt */
SLOOP[ ]	/* SetLoopVariable */
IP[ ]	/* InterpolatePts */
SRP2[ ]	/* SetRefPoint2 */
IP[ ]	/* InterpolatePts */
IP[ ]	/* InterpolatePts */
IUP[1]	/* InterpolateUntPts */
SVTCA[0]	/* SetFreedomAndProjectionVectorToAxis */
MDAP[1]	/* MoveDirectAbsPt */
MIRP[01100]	/* MoveIndirectRelPt */
MIRP[10100]	/* MoveIndirectRelPt */
ALIGNRP[ ]	/* AlignRelativePt */
MDRP[00100]	/* MoveDirectRelPt */
MIRP[01100]	/* MoveIndirectRelPt */
SHP[0]	/* ShiftPointByLastPoint */
SRP1[ ]	/* SetRefPoint1 */
IP[ ]	/* InterpolatePts */
IP[ ]	/* InterpolatePts */
IUP[0]	/* InterpolateUntPts */
MPPEM[ ]	/* MeasurePixelPerEm */
GTEQ[ ]	/* GreaterThanOrEqual */
IF[ ]	/* If */
SPVTL[1]	/* SetPVectorToLine */
SRP0[ ]	/* SetRefPoint0 */
SFVTCA[1]	/* SetFVectorToAxis */
MIRP[01101]	/* MoveIndirectRelPt */
SPVTL[1]	/* SetPVectorToLine */
SRP0[ ]	/* SetRefPoint0 */
SFVTCA[1]	/* SetFVectorToAxis */
MIRP[01101]	/* MoveIndirectRelPt */
SRP1[ ]	/* SetRefPoint1 */
SLOOP[ ]	/* SetLoopVariable */
IP[ ]	/* InterpolatePts */
SPVTL[1]	/* SetPVectorToLine */
SRP0[ ]	/* SetRefPoint0 */
SFVTCA[1]	/* SetFVectorToAxis */
MIRP[01101]	/* MoveIndirectRelPt */
SPVTL[1]	/* SetPVectorToLine */
SRP0[ ]	/* SetRefPoint0 */
SFVTCA[1]	/* SetFVectorToAxis */
MIRP[01101]	/* MoveIndirectRelPt */
EIF[ ]	/* EndIf */
CLEAR[ ]	/* ClearStack */";
};
width = 1233;
}
);
note = t;
unicode = 116;
},
{
glyphname = u;
layers = (
{
layerId = m01;
shapes = (
{
closed = 1;
nodes = (
(125,285,o),
(125,246,qs),
(125,120,o),
(277,-27,o),
(408,-27,qs),
(513,-27,o),
(691,70,o),
(764,168,q),
(731,0,l),
(915,0,l),
(1133,1120,l),
(948,1120,l),
(825,487,ls),
(792,318,o),
(616,133,o),
(489,133,qs),
(404,133,o),
(311,218,o),
(311,297,qs),
(311,321,o),
(319,389,o),
(326,426,qs),
(461,1120,l),
(276,1120,l),
(143,426,ls),
(134,378,o)
);
}
);
userData = {
assembly = "NPUSHB[ ]	/* 81 values pushed */
13 5 14 15 14 9 10 11 3 8 12 5 15 14 20 19 18 3 21 17 5 15 14 16 5 15 15 14 9 8 7 6 5 4 6 10 3 5 0 1 0 2 5 1 1 0 58 12 17 3 0 3 1 9 135 20 101 13 1 141 15 13 15 14 0 23 16 12 6 3 2 5 17 1 15 20 14 1 31 23 26
SRP0[ ]	/* SetRefPoint0 */
MDRP[10100]	/* MoveDirectRelPt */
MIRP[01100]	/* MoveIndirectRelPt */
MDRP[10100]	/* MoveDirectRelPt */
MIRP[00100]	/* MoveIndirectRelPt */
SRP1[ ]	/* SetRefPoint1 */
IP[ ]	/* InterpolatePts */
SLOOP[ ]	/* SetLoopVariable */
IP[ ]	/* InterpolatePts */
SRP2[ ]	/* SetRefPoint2 */
IP[ ]	/* InterpolatePts */
SRP1[ ]	/* SetRefPoint1 */
SRP2[ ]	/* SetRefPoint2 */
IP[ ]	/* InterpolatePts */
IUP[1]	/* InterpolateUntPts */
SVTCA[0]	/* SetFreedomAndProjectionVectorToAxis */
MDAP[1]	/* MoveDirectAbsPt */
MIRP[00100]	/* MoveIndirectRelPt */
SHP[0]	/* ShiftPointByLastPoint */
MIRP[10100]	/* MoveIndirectRelPt */
MIRP[01100]	/* MoveIndirectRelPt */
SRP1[ ]	/* SetRefPoint1 */
SLOOP[ ]	/* SetLoopVariable */
IP[ ]	/* InterpolatePts */
IP[ ]	/* InterpolatePts */
IUP[0]	/* InterpolateUntPts */
MPPEM[ ]	/* MeasurePixelPerEm */
GTEQ[ ]	/* GreaterThanOrEqual */
IF[ ]	/* If */
SPVTL[1]	/* SetPVectorToLine */
SRP0[ ]	/* SetRefPoint0 */
SFVTCA[1]	/* SetFVectorToAxis */
MIRP[01101]	/* MoveIndirectRelPt */
SPVTL[1]	/* SetPVectorToLine */
SRP0[ ]	/* SetRefPoint0 */
SFVTCA[1]	/* SetFVectorToAxis */
MIRP[01101]	/* MoveIndirectRelPt */
SRP1[ ]	/* SetRefPoint1 */
SLOOP[ ]	/* SetLoopVariable */
IP[ ]	/* InterpolatePts */
SPVTL[1]	/* SetPVectorToLine */
SRP0[ ]	/* SetRefPoint0 */
SFVTCA[1]	/* SetFVectorToAxis */
MIRP[01101]	/* MoveIndirectRelPt */
SPVTL[1]	/* SetPVectorToLine */
SFVTCA[1]	/* SetFVectorToAxis */
MIRP[01101]	/* MoveIndirectRelPt */
SRP1[ ]	/* SetRefPoint1 */
SLOOP[ ]	/* SetLoopVariable */
IP[ ]	/* InterpolatePts */
SPVTL[1]	/* SetPVectorToLine */
SFVTCA[1]	/* SetFVectorToAxis */
MIRP[01101]	/* MoveIndirectRelPt */
SRP1[ ]	/* SetRefPoint1 */
SLOOP[ ]	/* SetLoopVariable */
IP[ ]	/* InterpolatePts */
SPVTL[1]	/* SetPVectorToLine */
SRP0[ ]	/* SetRefPoint0 */
SFVTCA[1]	/* SetFVectorToAxis */
MIRP[01101]	/* MoveIndirectRelPt */
EIF[ ]	/* EndIf */
CLEAR[ ]	/* ClearStack */";
};
width = 1233;
}
);
note = u;
unicode = 117;
},
{
glyphname = v;
layers = (
{
layerId = m01;
shapes = (
{
closed = 1;
nodes = (
(600,0,l),
(1214,1120,l),
(1016,1120,l),
(514,164,l),
(360,1120,l),
(182,1120,l),
(362,0,l)
);
}
);
userData = {
assembly = "NPUSHB[ ]	/* 39 values pushed */
3 33 4 5 4 2 33 1 2 5 5 4 2 33 3 2 6 0 6 1 33 0 0 6 58 2 3 0 141 5 6 5 3 2 1 5 4 0 7
SRP0[ ]	/* SetRefPoint0 */
MDRP[10100]	/* MoveDirectRelPt */
MDRP[01100]	/* MoveDirectRelPt */
SLOOP[ ]	/* SetLoopVariable */
IP[ ]	/* InterpolatePts */
IUP[1]	/* InterpolateUntPts */
SVTCA[0]	/* SetFreedomAndProjectionVectorToAxis */
MDAP[1]	/* MoveDirectAbsPt */
MIRP[00100]	/* MoveIndirectRelPt */
SHP[0]	/* ShiftPointByLastPoint */
IP[ ]	/* InterpolatePts */
IUP[0]	/* InterpolateUntPts */
MPPEM[ ]	/* MeasurePixelPerEm */
GTEQ[ ]	/* GreaterThanOrEqual */
IF[ ]	/* If */
SPVTL[1]	/* SetPVectorToLine */
SRP0[ ]	/* SetRefPoint0 */
SFVTCA[1]	/* SetFVectorToAxis */
MIRP[01101]	/* MoveIndirectRelPt */
SPVTL[1]	/* SetPVectorToLine */
SRP0[ ]	/* SetRefPoint0 */
SFVTL[0]	/* SetFVectorToLine */
MIRP[01101]	/* MoveIndirectRelPt */
SPVTL[1]	/* SetPVectorToLine */
SRP0[ ]	/* SetRefPoint0 */
SFVTL[0]	/* SetFVectorToLine */
MIRP[01101]	/* MoveIndirectRelPt */
SPVTL[1]	/* SetPVectorToLine */
SRP0[ ]	/* SetRefPoint0 */
SFVTCA[1]	/* SetFVectorToAxis */
MIRP[01101]	/* MoveIndirectRelPt */
EIF[ ]	/* EndIf */
CLEAR[ ]	/* ClearStack */";
};
width = 1233;
}
);
note = v;
unicode = 118;
},
{
glyphname = w;
layers = (
{
layerId = m01;
shapes = (
{
closed = 1;
nodes = (
(307,0,l),
(604,623,l),
(664,0,l),
(829,0,l),
(1315,1120,l),
(1124,1120,l),
(762,215,l),
(713,793,l),
(551,793,l),
(283,215,l),
(268,1120,l),
(92,1120,l),
(141,0,l)
);
}
);
userData = {
assembly = "NPUSHB[ ]	/* 74 values pushed */
11 27 2 3 2 10 27 9 10 3 3 2 10 27 11 10 4 5 4 9 27 5 5 4 6 33 7 8 7 5 33 4 5 8 8 7 2 33 3 2 12 0 12 1 33 0 12 58 10 5 2 3 8 3 6 0 141 11 8 12 11 10 9 8 6 5 4 3 2 1 11 7 0 13
SRP0[ ]	/* SetRefPoint0 */
MDRP[10100]	/* MoveDirectRelPt */
MDRP[01100]	/* MoveDirectRelPt */
SLOOP[ ]	/* SetLoopVariable */
IP[ ]	/* InterpolatePts */
IUP[1]	/* InterpolateUntPts */
SVTCA[0]	/* SetFreedomAndProjectionVectorToAxis */
MDAP[1]	/* MoveDirectAbsPt */
ALIGNRP[ ]	/* AlignRelativePt */
MIRP[10100]	/* MoveIndirectRelPt */
ALIGNRP[ ]	/* AlignRelativePt */
MDRP[00100]	/* MoveDirectRelPt */
SRP1[ ]	/* SetRefPoint1 */
SLOOP[ ]	/* SetLoopVariable */
IP[ ]	/* InterpolatePts */
IUP[0]	/* InterpolateUntPts */
MPPEM[ ]	/* MeasurePixelPerEm */
GTEQ[ ]	/* GreaterThanOrEqual */
IF[ ]	/* If */
SPVTL[1]	/* SetPVectorToLine */
SFVTCA[1]	/* SetFVectorToAxis */
MIRP[01101]	/* MoveIndirectRelPt */
SPVTL[1]	/* SetPVectorToLine */
SRP0[ ]	/* SetRefPoint0 */
SFVTL[0]	/* SetFVectorToLine */
MIRP[01101]	/* MoveIndirectRelPt */
SPVTL[1]	/* SetPVectorToLine */
SRP0[ ]	/* SetRefPoint0 */
SFVTL[0]	/* SetFVectorToLine */
MIRP[01101]	/* MoveIndirectRelPt */
SPVTL[1]	/* SetPVectorToLine */
SRP0[ ]	/* SetRefPoint0 */
SFVTCA[1]	/* SetFVectorToAxis */
MIRP[01101]	/* MoveIndirectRelPt */
SPVTL[1]	/* SetPVectorToLine */
SRP0[ ]	/* SetRefPoint0 */
SFVTCA[1]	/* SetFVectorToAxis */
MIRP[01101]	/* MoveIndirectRelPt */
SPVTL[1]	/* SetPVectorToLine */
SRP0[ ]	/* SetRefPoint0 */
SFVTL[0]	/* SetFVectorToLine */
MIRP[01101]	/* MoveIndirectRelPt */
SPVTL[1]	/* SetPVectorToLine */
SRP0[ ]	/* SetRefPoint0 */
SFVTL[0]	/* SetFVectorToLine */
MIRP[01101]	/* MoveIndirectRelPt */
SPVTL[1]	/* SetPVectorToLine */
SRP0[ ]	/* SetRefPoint0 */
SFVTCA[1]	/* SetFVectorToAxis */
MIRP[01101]	/* MoveIndirectRelPt */
EIF[ ]	/* EndIf */
CLEAR[ ]	/* ClearStack */
PUSHB[ ]	/* 3 values pushed */
144 11 1
SVTCA[1]	/* SetFreedomAndProjectionVectorToAxis */
DELTAP1[ ]	/* DeltaExceptionP1 */
NPUSHB[ ]	/* 102 values pushed */
13 10 15 10 31 3 31 4 31 10 42 10 74 10 135 2 143 10 143 10 143 10 146 5 159 10 159 10 166 2 175 10 175 10 17 5 8 8 10 4 11 20 8 20 11 42 3 36 11 58 3 52 11 71 5 67 8 68 11 90 3 90 9 84 11 107 3 102 8 104 10 99 11 121 3 120 5 121 9 117 11 131 8 137 10 128 11 153 3 151 5 147 8 168 3 163 8 168 10 160 11 33
DELTAP1[ ]	/* DeltaExceptionP1 */
SVTCA[0]	/* SetFreedomAndProjectionVectorToAxis */
DELTAP1[ ]	/* DeltaExceptionP1 */";
};
width = 1233;
}
);
note = w;
unicode = 119;
},
{
glyphname = x;
layers = (
{
layerId = m01;
shapes = (
{
closed = 1;
nodes = (
(614,725,l),
(397,1120,l),
(201,1120,l),
(494,596,l),
(-70,0,l),
(156,0,l),
(573,444,l),
(817,0,l),
(1014,0,l),
(696,573,l),
(1208,1120,l),
(983,1120,l)
);
}
);
userData = {
assembly = "NPUSHB[ ]	/* 72 values pushed */
4 33 5 4 1 2 1 3 33 2 2 1 11 33 0 1 0 10 33 9 10 1 1 0 10 33 11 10 7 8 7 9 33 8 8 7 5 33 6 7 6 4 33 3 4 7 7 6 58 10 7 4 1 4 8 0 141 5 2 10 9 8 7 4 3 2 1 8 12 0 6 12
SRP0[ ]	/* SetRefPoint0 */
MDRP[10100]	/* MoveDirectRelPt */
MDRP[01100]	/* MoveDirectRelPt */
SRP1[ ]	/* SetRefPoint1 */
SLOOP[ ]	/* SetLoopVariable */
IP[ ]	/* InterpolatePts */
IUP[1]	/* InterpolateUntPts */
SVTCA[0]	/* SetFreedomAndProjectionVectorToAxis */
MDAP[1]	/* MoveDirectAbsPt */
ALIGNRP[ ]	/* AlignRelativePt */
MIRP[00100]	/* MoveIndirectRelPt */
SHP[0]	/* ShiftPointByLastPoint */
SLOOP[ ]	/* SetLoopVariable */
IP[ ]	/* InterpolatePts */
IUP[0]	/* InterpolateUntPts */
MPPEM[ ]	/* MeasurePixelPerEm */
GTEQ[ ]	/* GreaterThanOrEqual */
IF[ ]	/* If */
SPVTL[1]	/* SetPVectorToLine */
SRP0[ ]	/* SetRefPoint0 */
SFVTL[0]	/* SetFVectorToLine */
MIRP[01101]	/* MoveIndirectRelPt */
SPVTL[1]	/* SetPVectorToLine */
SRP0[ ]	/* SetRefPoint0 */
SFVTCA[1]	/* SetFVectorToAxis */
MIRP[01101]	/* MoveIndirectRelPt */
SPVTL[1]	/* SetPVectorToLine */
SRP0[ ]	/* SetRefPoint0 */
SFVTCA[1]	/* SetFVectorToAxis */
MIRP[01101]	/* MoveIndirectRelPt */
SPVTL[1]	/* SetPVectorToLine */
SRP0[ ]	/* SetRefPoint0 */
SFVTL[0]	/* SetFVectorToLine */
MIRP[01101]	/* MoveIndirectRelPt */
SPVTL[1]	/* SetPVectorToLine */
SRP0[ ]	/* SetRefPoint0 */
SFVTL[0]	/* SetFVectorToLine */
MIRP[01101]	/* MoveIndirectRelPt */
SPVTL[1]	/* SetPVectorToLine */
SRP0[ ]	/* SetRefPoint0 */
SFVTCA[1]	/* SetFVectorToAxis */
MIRP[01101]	/* MoveIndirectRelPt */
SPVTL[1]	/* SetPVectorToLine */
SRP0[ ]	/* SetRefPoint0 */
SFVTCA[1]	/* SetFVectorToAxis */
MIRP[01101]	/* MoveIndirectRelPt */
SPVTL[1]	/* SetPVectorToLine */
SRP0[ ]	/* SetRefPoint0 */
SFVTL[0]	/* SetFVectorToLine */
MIRP[01101]	/* MoveIndirectRelPt */
EIF[ ]	/* EndIf */
CLEAR[ ]	/* ClearStack */";
};
width = 1233;
}
);
note = x;
unicode = 120;
},
{
glyphname = y;
layers = (
{
layerId = m01;
shapes = (
{
closed = 1;
nodes = (
(1020,1120,l),
(537,258,l),
(365,1120,l),
(182,1120,l),
(399,18,l),
(356,-66,ls),
(296,-179,o),
(179,-272,o),
(98,-272,qs),
(-10,-272,l),
(-39,-426,l),
(109,-426,ls),
(205,-426,o),
(354,-352,o),
(412,-276,qs),
(466,-203,o),
(621,72,qs),
(724,253,o),
(786,360,qs),
(1225,1120,l)
);
}
);
userData = {
assembly = "NPUSHB[ ]	/* 70 values pushed */
14 33 2 3 2 10 11 12 3 9 13 33 3 3 2 18 33 19 0 19 17 33 16 17 0 0 19 17 33 18 17 14 15 14 16 33 15 15 14 58 17 15 13 20 0 15 9 135 7 142 18 15 141 20 18 17 16 15 14 13 10 0 7 9 19 9 20 19 8 20
SRP0[ ]	/* SetRefPoint0 */
MDRP[10100]	/* MoveDirectRelPt */
MDRP[01100]	/* MoveDirectRelPt */
SRP2[ ]	/* SetRefPoint2 */
IP[ ]	/* InterpolatePts */
SRP1[ ]	/* SetRefPoint1 */
SLOOP[ ]	/* SetLoopVariable */
IP[ ]	/* InterpolatePts */
IUP[1]	/* InterpolateUntPts */
SVTCA[0]	/* SetFreedomAndProjectionVectorToAxis */
SRP0[ ]	/* SetRefPoint0 */
MIRP[00100]	/* MoveIndirectRelPt */
SHP[0]	/* ShiftPointByLastPoint */
MIRP[10100]	/* MoveIndirectRelPt */
MIRP[01100]	/* MoveIndirectRelPt */
SRP1[ ]	/* SetRefPoint1 */
IP[ ]	/* InterpolatePts */
SRP1[ ]	/* SetRefPoint1 */
IP[ ]	/* InterpolatePts */
SRP2[ ]	/* SetRefPoint2 */
IP[ ]	/* InterpolatePts */
IUP[0]	/* InterpolateUntPts */
MPPEM[ ]	/* MeasurePixelPerEm */
GTEQ[ ]	/* GreaterThanOrEqual */
IF[ ]	/* If */
SPVTL[1]	/* SetPVectorToLine */
SRP0[ ]	/* SetRefPoint0 */
SFVTCA[1]	/* SetFVectorToAxis */
MIRP[01101]	/* MoveIndirectRelPt */
SPVTL[1]	/* SetPVectorToLine */
SRP0[ ]	/* SetRefPoint0 */
SFVTL[0]	/* SetFVectorToLine */
MIRP[01101]	/* MoveIndirectRelPt */
SPVTL[1]	/* SetPVectorToLine */
SRP0[ ]	/* SetRefPoint0 */
SFVTL[0]	/* SetFVectorToLine */
MIRP[01101]	/* MoveIndirectRelPt */
SPVTL[1]	/* SetPVectorToLine */
SRP0[ ]	/* SetRefPoint0 */
SFVTCA[1]	/* SetFVectorToAxis */
MIRP[01101]	/* MoveIndirectRelPt */
SPVTL[1]	/* SetPVectorToLine */
SRP0[ ]	/* SetRefPoint0 */
SFVTCA[1]	/* SetFVectorToAxis */
MIRP[01101]	/* MoveIndirectRelPt */
SRP1[ ]	/* SetRefPoint1 */
SLOOP[ ]	/* SetLoopVariable */
IP[ ]	/* InterpolatePts */
SPVTL[1]	/* SetPVectorToLine */
SRP0[ ]	/* SetRefPoint0 */
SFVTPV[ ]	/* SetFVectorToPVector */
MIRP[01101]	/* MoveIndirectRelPt */
EIF[ ]	/* EndIf */
CLEAR[ ]	/* ClearStack */";
};
width = 1233;
}
);
note = y;
unicode = 121;
},
{
glyphname = z;
layers = (
{
layerId = m01;
shapes = (
{
closed = 1;
nodes = (
(895,973,l),
(111,168,l),
(78,0,l),
(915,0,l),
(944,147,l),
(315,147,l),
(1100,952,l),
(1133,1120,l),
(319,1120,l),
(291,973,l)
);
}
);
userData = {
assembly = "NPUSHB[ ]	/* 28 values pushed */
3 33 7 8 7 8 33 2 3 2 58 8 137 0 141 3 137 5 9 8 5 4 3 0 6 1 6 10
SRP0[ ]	/* SetRefPoint0 */
MDRP[10100]	/* MoveDirectRelPt */
MDRP[01100]	/* MoveDirectRelPt */
SLOOP[ ]	/* SetLoopVariable */
IP[ ]	/* InterpolatePts */
IUP[1]	/* InterpolateUntPts */
SVTCA[0]	/* SetFreedomAndProjectionVectorToAxis */
MDAP[1]	/* MoveDirectAbsPt */
MIRP[01100]	/* MoveIndirectRelPt */
MIRP[10100]	/* MoveIndirectRelPt */
MIRP[01100]	/* MoveIndirectRelPt */
IUP[0]	/* InterpolateUntPts */
MPPEM[ ]	/* MeasurePixelPerEm */
GTEQ[ ]	/* GreaterThanOrEqual */
IF[ ]	/* If */
SPVTL[1]	/* SetPVectorToLine */
SRP0[ ]	/* SetRefPoint0 */
SFVTCA[1]	/* SetFVectorToAxis */
MIRP[01101]	/* MoveIndirectRelPt */
SPVTL[1]	/* SetPVectorToLine */
SRP0[ ]	/* SetRefPoint0 */
SFVTCA[1]	/* SetFVectorToAxis */
MIRP[01101]	/* MoveIndirectRelPt */
EIF[ ]	/* EndIf */
CLEAR[ ]	/* ClearStack */";
};
width = 1233;
}
);
note = z;
unicode = 122;
},
{
glyphname = braceleft;
layers = (
{
layerId = m01;
shapes = (
{
closed = 1;
nodes = (
(961,1556,o),
(823,1527,o),
(776,1493,qs),
(722,1454,o),
(650,1311,o),
(625,1188,qs),
(575,944,ls),
(545,794,o),
(419,684,o),
(274,684,qs),
(213,684,l),
(184,537,l),
(246,537,ls),
(359,537,o),
(457,462,o),
(457,377,qs),
(457,332,o),
(447,282,qs),
(445,273,o),
(444,270,qs),
(399,34,ls),
(392,-3,o),
(385,-71,o),
(385,-102,qs),
(385,-225,o),
(548,-334,o),
(735,-334,qs),
(807,-334,l),
(836,-190,l),
(758,-190,ls),
(661,-190,o),
(575,-133,o),
(575,-70,qs),
(576,-45,o),
(580,6,o),
(586,39,qs),
(633,283,ls),
(640,321,o),
(647,385,o),
(647,410,qs),
(647,485,o),
(567,588,o),
(494,606,q),
(605,627,o),
(725,772,o),
(758,932,qs),
(809,1184,ls),
(839,1334,o),
(933,1413,o),
(1069,1413,qs),
(1147,1413,l),
(1176,1556,l),
(1094,1556,ls)
);
}
);
userData = {
assembly = "NPUSHB[ ]	/* 102 values pushed */
8 7 2 9 6 5 45 46 45 3 4 2 2 5 5 46 46 45 21 20 19 18 17 5 22 16 5 31 32 31 10 11 12 13 14 5 9 15 5 32 32 31 58 32 53 39 45 5 1 9 41 31 15 16 3 39 22 6 46 41 1 22 126 24 145 41 126 39 145 1 126 0 103 53 41 40 53 52 46 32 31 25 24 23 22 16 15 12 9 6 5 2 1 16 0 36 45 19 0 28 28 53
SRP0[ ]	/* SetRefPoint0 */
MDRP[00100]	/* MoveDirectRelPt */
SRP0[ ]	/* SetRefPoint0 */
MDRP[00000]	/* MoveDirectRelPt */
MDRP[00000]	/* MoveDirectRelPt */
MDRP[00000]	/* MoveDirectRelPt */
MDRP[00000]	/* MoveDirectRelPt */
SRP2[ ]	/* SetRefPoint2 */
SLOOP[ ]	/* SetLoopVariable */
IP[ ]	/* InterpolatePts */
SRP2[ ]	/* SetRefPoint2 */
IP[ ]	/* InterpolatePts */
IP[ ]	/* InterpolatePts */
IUP[1]	/* InterpolateUntPts */
SVTCA[0]	/* SetFreedomAndProjectionVectorToAxis */
SRP0[ ]	/* SetRefPoint0 */
MIRP[11100]	/* MoveIndirectRelPt */
MIRP[01100]	/* MoveIndirectRelPt */
MIRP[11100]	/* MoveIndirectRelPt */
MIRP[11100]	/* MoveIndirectRelPt */
MIRP[11100]	/* MoveIndirectRelPt */
MIRP[01100]	/* MoveIndirectRelPt */
SRP1[ ]	/* SetRefPoint1 */
SRP2[ ]	/* SetRefPoint2 */
IP[ ]	/* InterpolatePts */
IP[ ]	/* InterpolatePts */
SRP1[ ]	/* SetRefPoint1 */
SRP2[ ]	/* SetRefPoint2 */
SLOOP[ ]	/* SetLoopVariable */
IP[ ]	/* InterpolatePts */
SRP1[ ]	/* SetRefPoint1 */
IP[ ]	/* InterpolatePts */
SRP2[ ]	/* SetRefPoint2 */
IP[ ]	/* InterpolatePts */
IP[ ]	/* InterpolatePts */
SRP1[ ]	/* SetRefPoint1 */
SRP2[ ]	/* SetRefPoint2 */
IP[ ]	/* InterpolatePts */
IUP[0]	/* InterpolateUntPts */
MPPEM[ ]	/* MeasurePixelPerEm */
GTEQ[ ]	/* GreaterThanOrEqual */
IF[ ]	/* If */
SPVTL[1]	/* SetPVectorToLine */
SRP0[ ]	/* SetRefPoint0 */
SFVTCA[1]	/* SetFVectorToAxis */
MIRP[01101]	/* MoveIndirectRelPt */
SRP1[ ]	/* SetRefPoint1 */
SLOOP[ ]	/* SetLoopVariable */
IP[ ]	/* InterpolatePts */
SPVTL[1]	/* SetPVectorToLine */
SRP0[ ]	/* SetRefPoint0 */
SFVTCA[1]	/* SetFVectorToAxis */
MIRP[01101]	/* MoveIndirectRelPt */
SRP1[ ]	/* SetRefPoint1 */
SLOOP[ ]	/* SetLoopVariable */
IP[ ]	/* InterpolatePts */
SPVTL[1]	/* SetPVectorToLine */
SRP0[ ]	/* SetRefPoint0 */
SFVTCA[1]	/* SetFVectorToAxis */
MIRP[01101]	/* MoveIndirectRelPt */
SRP1[ ]	/* SetRefPoint1 */
SLOOP[ ]	/* SetLoopVariable */
IP[ ]	/* InterpolatePts */
SPVTL[1]	/* SetPVectorToLine */
SRP0[ ]	/* SetRefPoint0 */
SFVTCA[1]	/* SetFVectorToAxis */
MIRP[01101]	/* MoveIndirectRelPt */
SRP1[ ]	/* SetRefPoint1 */
SLOOP[ ]	/* SetLoopVariable */
IP[ ]	/* InterpolatePts */
EIF[ ]	/* EndIf */
CLEAR[ ]	/* ClearStack */";
};
width = 1233;
}
);
note = braceleft;
unicode = 123;
},
{
glyphname = bar;
layers = (
{
layerId = m01;
shapes = (
{
closed = 1;
nodes = (
(530,-483,l),
(702,-483,l),
(702,1565,l),
(530,1565,l)
);
}
);
userData = {
assembly = "PUSHB[ ]	/* 8 values pushed */
1 0 146 4 0 6 2 4
SRP0[ ]	/* SetRefPoint0 */
MDRP[10100]	/* MoveDirectRelPt */
MIRP[01100]	/* MoveIndirectRelPt */
IUP[1]	/* InterpolateUntPts */
SVTCA[0]	/* SetFreedomAndProjectionVectorToAxis */
SRP0[ ]	/* SetRefPoint0 */
MIRP[11100]	/* MoveIndirectRelPt */
MDRP[01100]	/* MoveDirectRelPt */
IUP[0]	/* InterpolateUntPts */";
};
width = 1233;
}
);
note = bar;
unicode = 124;
},
{
glyphname = braceright;
layers = (
{
layerId = m01;
shapes = (
{
closed = 1;
nodes = (
(200,-334,o),
(338,-304,o),
(385,-270,qs),
(439,-231,o),
(511,-89,o),
(537,35,qs),
(584,279,ls),
(616,429,o),
(743,539,o),
(887,539,qs),
(948,539,l),
(977,686,l),
(915,686,ls),
(803,686,o),
(705,760,o),
(705,846,qs),
(705,891,o),
(715,940,qs),
(716,949,o),
(717,952,qs),
(762,1188,ls),
(769,1225,o),
(776,1293,o),
(776,1325,qs),
(776,1448,o),
(614,1556,o),
(426,1556,qs),
(352,1556,l),
(326,1413,l),
(403,1413,ls),
(501,1413,o),
(586,1356,o),
(586,1292,qs),
(586,1268,o),
(581,1217,o),
(575,1183,qs),
(528,940,ls),
(521,902,o),
(514,837,o),
(514,813,qs),
(514,737,o),
(594,635,o),
(668,616,q),
(556,596,o),
(436,451,o),
(403,291,qs),
(352,39,ls),
(322,-111,o),
(228,-190,o),
(92,-190,qs),
(14,-190,l),
(-14,-334,l),
(68,-334,ls)
);
}
);
userData = {
assembly = "NPUSHB[ ]	/* 101 values pushed */
8 7 2 9 6 5 45 46 45 3 4 2 2 5 5 46 46 45 21 20 19 18 17 5 22 16 5 31 32 31 10 11 12 13 14 5 9 15 5 32 32 31 58 45 53 41 32 16 22 9 41 15 31 39 22 5 6 46 3 41 1 126 0 145 39 126 41 145 22 126 24 103 53 52 46 1 32 31 25 24 23 22 19 16 15 12 9 6 5 2 17 53 41 40 39 42 40 28 0 28 53
SRP0[ ]	/* SetRefPoint0 */
MDRP[00100]	/* MoveDirectRelPt */
MDAP[0]	/* MoveDirectAbsPt */
SRP0[ ]	/* SetRefPoint0 */
MDRP[00000]	/* MoveDirectRelPt */
MDRP[00000]	/* MoveDirectRelPt */
MDRP[00000]	/* MoveDirectRelPt */
SRP2[ ]	/* SetRefPoint2 */
IP[ ]	/* InterpolatePts */
SRP2[ ]	/* SetRefPoint2 */
SLOOP[ ]	/* SetLoopVariable */
IP[ ]	/* InterpolatePts */
IUP[1]	/* InterpolateUntPts */
SVTCA[0]	/* SetFreedomAndProjectionVectorToAxis */
SRP0[ ]	/* SetRefPoint0 */
MIRP[11100]	/* MoveIndirectRelPt */
MIRP[01100]	/* MoveIndirectRelPt */
MIRP[11100]	/* MoveIndirectRelPt */
MIRP[11100]	/* MoveIndirectRelPt */
MIRP[11100]	/* MoveIndirectRelPt */
MIRP[01100]	/* MoveIndirectRelPt */
SRP1[ ]	/* SetRefPoint1 */
SLOOP[ ]	/* SetLoopVariable */
IP[ ]	/* InterpolatePts */
SRP1[ ]	/* SetRefPoint1 */
SRP2[ ]	/* SetRefPoint2 */
IP[ ]	/* InterpolatePts */
IP[ ]	/* InterpolatePts */
SRP1[ ]	/* SetRefPoint1 */
IP[ ]	/* InterpolatePts */
SRP1[ ]	/* SetRefPoint1 */
IP[ ]	/* InterpolatePts */
IP[ ]	/* InterpolatePts */
SRP1[ ]	/* SetRefPoint1 */
SRP2[ ]	/* SetRefPoint2 */
IP[ ]	/* InterpolatePts */
IUP[0]	/* InterpolateUntPts */
MPPEM[ ]	/* MeasurePixelPerEm */
GTEQ[ ]	/* GreaterThanOrEqual */
IF[ ]	/* If */
SPVTL[1]	/* SetPVectorToLine */
SRP0[ ]	/* SetRefPoint0 */
SFVTCA[1]	/* SetFVectorToAxis */
MIRP[01101]	/* MoveIndirectRelPt */
SRP1[ ]	/* SetRefPoint1 */
SLOOP[ ]	/* SetLoopVariable */
IP[ ]	/* InterpolatePts */
SPVTL[1]	/* SetPVectorToLine */
SRP0[ ]	/* SetRefPoint0 */
SFVTCA[1]	/* SetFVectorToAxis */
MIRP[01101]	/* MoveIndirectRelPt */
SRP1[ ]	/* SetRefPoint1 */
SLOOP[ ]	/* SetLoopVariable */
IP[ ]	/* InterpolatePts */
SPVTL[1]	/* SetPVectorToLine */
SRP0[ ]	/* SetRefPoint0 */
SFVTCA[1]	/* SetFVectorToAxis */
MIRP[01101]	/* MoveIndirectRelPt */
SRP1[ ]	/* SetRefPoint1 */
SLOOP[ ]	/* SetLoopVariable */
IP[ ]	/* InterpolatePts */
SPVTL[1]	/* SetPVectorToLine */
SRP0[ ]	/* SetRefPoint0 */
SFVTCA[1]	/* SetFVectorToAxis */
MIRP[01101]	/* MoveIndirectRelPt */
SRP1[ ]	/* SetRefPoint1 */
SLOOP[ ]	/* SetLoopVariable */
IP[ ]	/* InterpolatePts */
EIF[ ]	/* EndIf */
CLEAR[ ]	/* ClearStack */";
};
width = 1233;
}
);
note = braceright;
unicode = 125;
},
{
glyphname = asciitilde;
lastChange = "2026-05-14 15:09:36 +0000";
layers = (
{
layerId = m01;
shapes = (
{
closed = 1;
nodes = (
(934,663,o),
(864,663,qs),
(771,663,o),
(655,718,qs),
(634,728,o),
(622,733,qs),
(548,764,o),
(448,786,o),
(395,786,qs),
(312,786,o),
(166,732,o),
(88,672,q),
(88,498,l),
(161,561,o),
(302,620,o),
(381,620,qs),
(432,620,o),
(535,596,o),
(612,563,qs),
(623,559,o),
(645,549,qs),
(758,498,o),
(848,498,qs),
(927,498,o),
(1070,553,o),
(1145,612,q),
(1145,786,l),
(1071,724,o)
);
}
);
userData = {
assembly = "NPUSHB[ ]	/* 18 values pushed */
1 11 4 15 0 14 4 108 25 18 0 108 11 28 0 14 21 28
SRP0[ ]	/* SetRefPoint0 */
MIRP[11100]	/* MoveIndirectRelPt */
MDRP[00100]	/* MoveDirectRelPt */
IUP[1]	/* InterpolateUntPts */
SVTCA[0]	/* SetFreedomAndProjectionVectorToAxis */
SRP0[ ]	/* SetRefPoint0 */
MDRP[10100]	/* MoveDirectRelPt */
MIRP[11100]	/* MoveIndirectRelPt */
ALIGNRP[ ]	/* AlignRelativePt */
MDRP[10100]	/* MoveDirectRelPt */
MIRP[01100]	/* MoveIndirectRelPt */
SHP[0]	/* ShiftPointByLastPoint */
SRP2[ ]	/* SetRefPoint2 */
IP[ ]	/* InterpolatePts */
SRP1[ ]	/* SetRefPoint1 */
SRP2[ ]	/* SetRefPoint2 */
IP[ ]	/* InterpolatePts */
IUP[0]	/* InterpolateUntPts */";
};
width = 1233;
}
);
note = asciitilde;
unicode = 126;
},
{
glyphname = Aring;
layers = (
{
layerId = m01;
shapes = (
{
closed = 1;
nodes = (
(835,1475,o),
(772,1475,qs),
(708,1475,o),
(621,1563,o),
(621,1626,qs),
(621,1691,o),
(708,1778,o),
(772,1778,qs),
(835,1778,o),
(924,1689,o),
(924,1626,qs),
(924,1563,o)
);
},
{
closed = 1;
nodes = (
(371,551,l),
(735,1325,l),
(801,551,l)
);
},
{
closed = 1;
nodes = (
(111,0,l),
(295,389,l),
(815,389,l),
(850,0,l),
(1051,0,l),
(897,1386,l),
(967,1418,o),
(1047,1545,o),
(1047,1626,qs),
(1047,1740,o),
(886,1901,o),
(772,1901,qs),
(657,1901,o),
(498,1740,o),
(498,1626,qs),
(498,1557,o),
(549,1450,o),
(600,1415,q),
(-106,0,l)
);
}
);
userData = {
assembly = "NPUSHB[ ]	/* 81 values pushed */
12 5 13 12 27 28 27 14 5 28 27 30 5 28 27 29 5 28 28 27 32 5 15 33 31 5 15 33 13 5 33 15 33 12 5 14 12 15 15 33 58 12 27 15 9 30 99 13 3 147 21 9 91 13 121 32 28 32 31 13 3 34 15 18 30 29 14 12 4 27 6 0 34 24 28 6 34 18 28 33 34
SRP0[ ]	/* SetRefPoint0 */
MDRP[10100]	/* MoveDirectRelPt */
MDRP[00100]	/* MoveDirectRelPt */
MDRP[10100]	/* MoveDirectRelPt */
MIRP[01100]	/* MoveIndirectRelPt */
SRP0[ ]	/* SetRefPoint0 */
MDRP[10100]	/* MoveDirectRelPt */
MIRP[01110]	/* MoveIndirectRelPt */
SRP1[ ]	/* SetRefPoint1 */
IP[ ]	/* InterpolatePts */
SLOOP[ ]	/* SetLoopVariable */
IP[ ]	/* InterpolatePts */
SRP2[ ]	/* SetRefPoint2 */
IP[ ]	/* InterpolatePts */
SRP1[ ]	/* SetRefPoint1 */
SLOOP[ ]	/* SetLoopVariable */
IP[ ]	/* InterpolatePts */
IUP[1]	/* InterpolateUntPts */
SVTCA[0]	/* SetFreedomAndProjectionVectorToAxis */
MDAP[1]	/* MoveDirectAbsPt */
ALIGNRP[ ]	/* AlignRelativePt */
MIRP[00110]	/* MoveIndirectRelPt */
MIRP[00110]	/* MoveIndirectRelPt */
MDRP[10110]	/* MoveDirectRelPt */
MIRP[01110]	/* MoveIndirectRelPt */
SRP0[ ]	/* SetRefPoint0 */
MIRP[01110]	/* MoveIndirectRelPt */
SRP2[ ]	/* SetRefPoint2 */
IP[ ]	/* InterpolatePts */
IP[ ]	/* InterpolatePts */
IP[ ]	/* InterpolatePts */
IUP[0]	/* InterpolateUntPts */
MPPEM[ ]	/* MeasurePixelPerEm */
GTEQ[ ]	/* GreaterThanOrEqual */
IF[ ]	/* If */
SPVTL[1]	/* SetPVectorToLine */
SRP0[ ]	/* SetRefPoint0 */
SFVTL[0]	/* SetFVectorToLine */
MIRP[01101]	/* MoveIndirectRelPt */
SPVTL[1]	/* SetPVectorToLine */
SRP0[ ]	/* SetRefPoint0 */
SFVTCA[1]	/* SetFVectorToAxis */
MIRP[01101]	/* MoveIndirectRelPt */
SPVTL[1]	/* SetPVectorToLine */
SFVTCA[1]	/* SetFVectorToAxis */
MIRP[01101]	/* MoveIndirectRelPt */
SPVTL[1]	/* SetPVectorToLine */
SFVTCA[1]	/* SetFVectorToAxis */
MIRP[01101]	/* MoveIndirectRelPt */
SPVTL[1]	/* SetPVectorToLine */
SRP0[ ]	/* SetRefPoint0 */
SFVTCA[1]	/* SetFVectorToAxis */
MIRP[01101]	/* MoveIndirectRelPt */
SPVTL[1]	/* SetPVectorToLine */
SFVTCA[1]	/* SetFVectorToAxis */
MIRP[01101]	/* MoveIndirectRelPt */
SPVTL[1]	/* SetPVectorToLine */
SFVTCA[1]	/* SetFVectorToAxis */
MIRP[01101]	/* MoveIndirectRelPt */
SPVTL[1]	/* SetPVectorToLine */
SRP0[ ]	/* SetRefPoint0 */
SFVTL[0]	/* SetFVectorToLine */
MIRP[01101]	/* MoveIndirectRelPt */
EIF[ ]	/* EndIf */
CLEAR[ ]	/* ClearStack */";
};
width = 1233;
}
);
note = Aring;
unicode = 197;
},
{
glyphname = dagger;
layers = (
{
layerId = m01;
shapes = (
{
closed = 1;
nodes = (
(225,1073,l),
(195,920,l),
(563,920,l),
(346,-197,l),
(520,-197,l),
(737,920,l),
(1104,920,l),
(1135,1073,l),
(768,1073,l),
(850,1493,l),
(674,1493,l),
(592,1073,l)
);
}
);
userData = {
assembly = "NPUSHB[ ]	/* 48 values pushed */
2 5 0 7 1 5 0 0 7 6 5 7 0 7 5 5 0 0 7 58 8 4 135 10 2 0 81 6 148 12 9 10 12 6 7 11 5 4 2 1 0 6 3 8 8 20 7 12
SRP0[ ]	/* SetRefPoint0 */
MDRP[10100]	/* MoveDirectRelPt */
MIRP[00100]	/* MoveIndirectRelPt */
SRP0[ ]	/* SetRefPoint0 */
MDRP[00000]	/* MoveDirectRelPt */
SLOOP[ ]	/* SetLoopVariable */
IP[ ]	/* InterpolatePts */
SRP2[ ]	/* SetRefPoint2 */
IP[ ]	/* InterpolatePts */
SRP1[ ]	/* SetRefPoint1 */
IP[ ]	/* InterpolatePts */
IP[ ]	/* InterpolatePts */
IUP[1]	/* InterpolateUntPts */
SVTCA[0]	/* SetFreedomAndProjectionVectorToAxis */
SRP0[ ]	/* SetRefPoint0 */
MIRP[00100]	/* MoveIndirectRelPt */
MIRP[10100]	/* MoveIndirectRelPt */
MDRP[10100]	/* MoveDirectRelPt */
ALIGNRP[ ]	/* AlignRelativePt */
MIRP[01100]	/* MoveIndirectRelPt */
SHP[0]	/* ShiftPointByLastPoint */
IUP[0]	/* InterpolateUntPts */
MPPEM[ ]	/* MeasurePixelPerEm */
GTEQ[ ]	/* GreaterThanOrEqual */
IF[ ]	/* If */
SPVTL[1]	/* SetPVectorToLine */
SRP0[ ]	/* SetRefPoint0 */
SFVTCA[1]	/* SetFVectorToAxis */
MIRP[01101]	/* MoveIndirectRelPt */
SPVTL[1]	/* SetPVectorToLine */
SRP0[ ]	/* SetRefPoint0 */
SFVTCA[1]	/* SetFVectorToAxis */
MIRP[01101]	/* MoveIndirectRelPt */
SPVTL[1]	/* SetPVectorToLine */
SRP0[ ]	/* SetRefPoint0 */
SFVTCA[1]	/* SetFVectorToAxis */
MIRP[01101]	/* MoveIndirectRelPt */
SPVTL[1]	/* SetPVectorToLine */
SFVTCA[1]	/* SetFVectorToAxis */
MIRP[01101]	/* MoveIndirectRelPt */
EIF[ ]	/* EndIf */
CLEAR[ ]	/* ClearStack */";
};
width = 1233;
}
);
note = dagger;
unicode = 8224;
},
{
glyphname = degree;
layers = (
{
layerId = m01;
shapes = (
{
closed = 1;
nodes = (
(299,1334,o),
(299,1200,qs),
(299,1065,o),
(479,885,o),
(614,885,qs),
(748,885,o),
(934,1068,o),
(934,1200,qs),
(934,1266,o),
(887,1380,o),
(842,1425,qs),
(798,1471,o),
(681,1520,o),
(616,1520,qs),
(483,1520,o)
);
},
{
closed = 1;
nodes = (
(807,1279,o),
(807,1200,qs),
(807,1122,o),
(694,1012,o),
(614,1012,qs),
(535,1012,o),
(426,1120,o),
(426,1200,qs),
(426,1280,o),
(537,1391,o),
(616,1391,qs),
(695,1391,o)
);
}
);
userData = {
assembly = "NPUSHB[ ]	/* 17 values pushed */
21 149 9 150 15 149 0 97 27 24 35 6 36 18 35 12 27
SRP0[ ]	/* SetRefPoint0 */
MDRP[10100]	/* MoveDirectRelPt */
MIRP[01100]	/* MoveIndirectRelPt */
MIRP[11100]	/* MoveIndirectRelPt */
MIRP[01100]	/* MoveIndirectRelPt */
IUP[1]	/* InterpolateUntPts */
SVTCA[0]	/* SetFreedomAndProjectionVectorToAxis */
SRP0[ ]	/* SetRefPoint0 */
MIRP[10100]	/* MoveIndirectRelPt */
MIRP[01100]	/* MoveIndirectRelPt */
MIRP[11100]	/* MoveIndirectRelPt */
MIRP[01100]	/* MoveIndirectRelPt */
IUP[0]	/* InterpolateUntPts */";
};
width = 1233;
}
);
note = degree;
unicode = 176;
},
{
glyphname = cent;
layers = (
{
layerId = m01;
shapes = (
{
closed = 1;
nodes = (
(900,1142,o),
(840,1145,q),
(895,1432,l),
(793,1432,l),
(737,1145,l),
(651,1139,o),
(496,1085,o),
(426,1036,qs),
(285,940,o),
(123,616,o),
(123,430,qs),
(123,235,o),
(327,-7,o),
(510,-27,q),
(455,-313,l),
(557,-313,l),
(612,-27,l),
(675,-23,o),
(812,10,o),
(887,41,q),
(920,213,l),
(845,173,o),
(706,128,o),
(641,123,q),
(811,993,l),
(883,987,o),
(1006,943,o),
(1055,905,q),
(1087,1077,l),
(1025,1108,o)
);
},
{
closed = 1;
nodes = (
(315,292,o),
(315,422,qs),
(315,647,o),
(544,976,o),
(709,991,q),
(541,127,l),
(432,139,o)
);
}
);
userData = {
assembly = "NPUSHB[ ]	/* 51 values pushed */
30 8 5 31 4 0 87 1 89 4 9 87 8 89 5 135 12 4 135 25 27 24 134 15 12 101 13 37 31 30 27 26 25 14 13 12 9 8 5 4 1 13 0 15 24 0 34 34 11 18 37
SRP0[ ]	/* SetRefPoint0 */
MDRP[10100]	/* MoveDirectRelPt */
MIRP[01100]	/* MoveIndirectRelPt */
SRP0[ ]	/* SetRefPoint0 */
MDRP[00000]	/* MoveDirectRelPt */
MDRP[00000]	/* MoveDirectRelPt */
MDRP[00000]	/* MoveDirectRelPt */
SRP2[ ]	/* SetRefPoint2 */
SLOOP[ ]	/* SetLoopVariable */
IP[ ]	/* InterpolatePts */
IUP[1]	/* InterpolateUntPts */
SVTCA[0]	/* SetFreedomAndProjectionVectorToAxis */
SRP0[ ]	/* SetRefPoint0 */
MDRP[00100]	/* MoveDirectRelPt */
MIRP[00100]	/* MoveIndirectRelPt */
SHP[0]	/* ShiftPointByLastPoint */
MIRP[10100]	/* MoveIndirectRelPt */
ALIGNRP[ ]	/* AlignRelativePt */
MDRP[00100]	/* MoveDirectRelPt */
MIRP[01100]	/* MoveIndirectRelPt */
SRP0[ ]	/* SetRefPoint0 */
MIRP[11110]	/* MoveIndirectRelPt */
MIRP[10100]	/* MoveIndirectRelPt */
MIRP[01110]	/* MoveIndirectRelPt */
SRP0[ ]	/* SetRefPoint0 */
MIRP[10101]	/* MoveIndirectRelPt */
MIRP[01110]	/* MoveIndirectRelPt */
SRP2[ ]	/* SetRefPoint2 */
IP[ ]	/* InterpolatePts */
SRP1[ ]	/* SetRefPoint1 */
SRP2[ ]	/* SetRefPoint2 */
IP[ ]	/* InterpolatePts */
IUP[0]	/* InterpolateUntPts */";
};
width = 1233;
}
);
note = cent;
unicode = 162;
},
{
glyphname = sterling;
layers = (
{
layerId = m01;
shapes = (
{
closed = 1;
nodes = (
(1027,1520,o),
(967,1520,qs),
(739,1520,o),
(477,1276,o),
(426,1016,qs),
(379,778,l),
(180,778,l),
(154,635,l),
(352,635,l),
(262,170,l),
(25,170,l),
(-8,0,l),
(965,0,l),
(997,170,l),
(461,170,l),
(551,635,l),
(922,635,l),
(950,778,l),
(580,778,l),
(623,995,ls),
(661,1196,o),
(815,1366,o),
(954,1366,qs),
(1017,1366,o),
(1138,1321,o),
(1192,1278,q),
(1229,1462,l),
(1157,1491,o)
);
}
);
userData = {
assembly = "NPUSHB[ ]	/* 70 values pushed */
8 5 21 22 21 5 6 2 4 7 5 22 22 21 12 5 17 21 17 11 5 21 21 17 58 7 22 1 18 10 137 20 8 12 1 87 0 113 4 135 25 97 16 12 99 14 16 28 19 18 17 22 14 13 12 11 10 9 8 7 1 10 0 21 19 20 21 17 15 28
SRP0[ ]	/* SetRefPoint0 */
MDRP[10100]	/* MoveDirectRelPt */
MDRP[10100]	/* MoveDirectRelPt */
MDRP[10100]	/* MoveDirectRelPt */
MDRP[10100]	/* MoveDirectRelPt */
MDRP[00100]	/* MoveDirectRelPt */
SRP0[ ]	/* SetRefPoint0 */
MDRP[00000]	/* MoveDirectRelPt */
SLOOP[ ]	/* SetLoopVariable */
IP[ ]	/* InterpolatePts */
SRP2[ ]	/* SetRefPoint2 */
IP[ ]	/* InterpolatePts */
SRP1[ ]	/* SetRefPoint1 */
SRP2[ ]	/* SetRefPoint2 */
IP[ ]	/* InterpolatePts */
IUP[1]	/* InterpolateUntPts */
SVTCA[0]	/* SetFreedomAndProjectionVectorToAxis */
MDAP[1]	/* MoveDirectAbsPt */
MIRP[01100]	/* MoveIndirectRelPt */
SHP[0]	/* ShiftPointByLastPoint */
MIRP[10100]	/* MoveIndirectRelPt */
MIRP[01100]	/* MoveIndirectRelPt */
MIRP[10100]	/* MoveIndirectRelPt */
MIRP[01100]	/* MoveIndirectRelPt */
SRP0[ ]	/* SetRefPoint0 */
MDRP[10100]	/* MoveDirectRelPt */
ALIGNRP[ ]	/* AlignRelativePt */
MIRP[01110]	/* MoveIndirectRelPt */
SHP[0]	/* ShiftPointByLastPoint */
SRP2[ ]	/* SetRefPoint2 */
IP[ ]	/* InterpolatePts */
IP[ ]	/* InterpolatePts */
IUP[0]	/* InterpolateUntPts */
MPPEM[ ]	/* MeasurePixelPerEm */
GTEQ[ ]	/* GreaterThanOrEqual */
IF[ ]	/* If */
SPVTL[1]	/* SetPVectorToLine */
SRP0[ ]	/* SetRefPoint0 */
SFVTCA[1]	/* SetFVectorToAxis */
MIRP[01101]	/* MoveIndirectRelPt */
SPVTL[1]	/* SetPVectorToLine */
SRP0[ ]	/* SetRefPoint0 */
SFVTCA[1]	/* SetFVectorToAxis */
MIRP[01101]	/* MoveIndirectRelPt */
SPVTL[1]	/* SetPVectorToLine */
SRP0[ ]	/* SetRefPoint0 */
SFVTCA[1]	/* SetFVectorToAxis */
MIRP[01101]	/* MoveIndirectRelPt */
SRP1[ ]	/* SetRefPoint1 */
SLOOP[ ]	/* SetLoopVariable */
IP[ ]	/* InterpolatePts */
SPVTL[1]	/* SetPVectorToLine */
SRP0[ ]	/* SetRefPoint0 */
SFVTCA[1]	/* SetFVectorToAxis */
MIRP[01101]	/* MoveIndirectRelPt */
EIF[ ]	/* EndIf */
CLEAR[ ]	/* ClearStack */";
};
width = 1233;
}
);
note = sterling;
unicode = 163;
},
{
glyphname = section;
layers = (
{
layerId = m01;
shapes = (
{
closed = 1;
nodes = (
(847,1511,o),
(776,1511,qs),
(590,1511,o),
(350,1316,o),
(350,1167,qs),
(350,1114,o),
(387,1034,o),
(428,997,q),
(310,934,o),
(182,762,o),
(182,666,qs),
(182,593,o),
(262,482,o),
(387,397,qs),
(461,346,l),
(474,337,ls),
(657,213,o),
(657,115,qs),
(657,37,o),
(524,-57,o),
(412,-57,qs),
(351,-57,o),
(207,-18,o),
(133,18,q),
(100,-143,l),
(183,-172,o),
(336,-201,o),
(406,-201,qs),
(605,-201,o),
(848,-5,o),
(848,152,qs),
(848,207,o),
(807,297,o),
(766,332,q),
(880,385,o),
(1012,565,o),
(1012,666,qs),
(1012,735,o),
(927,852,o),
(803,938,qs),
(717,997,ls),
(700,1009,o),
(669,1029,qs),
(535,1119,o),
(535,1198,qs),
(535,1270,o),
(667,1368,o),
(770,1368,qs),
(828,1368,o),
(965,1328,o),
(1036,1290,q),
(1069,1454,l),
(994,1483,o)
);
},
{
closed = 1;
nodes = (
(433,562,o),
(348,658,o),
(348,709,qs),
(348,764,o),
(434,876,o),
(516,928,q),
(596,877,ls),
(743,783,o),
(850,671,o),
(850,618,qs),
(850,563,o),
(762,452,o),
(678,401,q),
(559,479,ls)
);
}
);
userData = {
assembly = "NPUSHB[ ]	/* 69 values pushed */
36 37 31 66 60 59 53 38 12 6 18 37 44 11 4 1 28 88 27 151 31 152 24 1 88 0 151 4 152 50 97 24 67 36 37 53 11 12 18 4 34 21 60 37 38 44 4 47 66 59 34 7 1 0 15 7 37 47 34 37 21 56 37 15 47 63 37 41 67
SRP0[ ]	/* SetRefPoint0 */
MDRP[10100]	/* MoveDirectRelPt */
MIRP[01100]	/* MoveIndirectRelPt */
MDRP[00100]	/* MoveDirectRelPt */
MDRP[10100]	/* MoveDirectRelPt */
MIRP[01100]	/* MoveIndirectRelPt */
MDRP[10100]	/* MoveDirectRelPt */
MIRP[01100]	/* MoveIndirectRelPt */
SRP0[ ]	/* SetRefPoint0 */
MIRP[01110]	/* MoveIndirectRelPt */
SRP0[ ]	/* SetRefPoint0 */
MDRP[00000]	/* MoveDirectRelPt */
MDRP[00000]	/* MoveDirectRelPt */
SRP1[ ]	/* SetRefPoint1 */
SRP2[ ]	/* SetRefPoint2 */
IP[ ]	/* InterpolatePts */
IP[ ]	/* InterpolatePts */
SRP2[ ]	/* SetRefPoint2 */
SLOOP[ ]	/* SetLoopVariable */
IP[ ]	/* InterpolatePts */
SRP1[ ]	/* SetRefPoint1 */
SRP2[ ]	/* SetRefPoint2 */
SLOOP[ ]	/* SetLoopVariable */
IP[ ]	/* InterpolatePts */
SRP1[ ]	/* SetRefPoint1 */
IP[ ]	/* InterpolatePts */
IUP[1]	/* InterpolateUntPts */
SVTCA[0]	/* SetFreedomAndProjectionVectorToAxis */
SRP0[ ]	/* SetRefPoint0 */
MDRP[00100]	/* MoveDirectRelPt */
MIRP[10100]	/* MoveIndirectRelPt */
MIRP[01100]	/* MoveIndirectRelPt */
MIRP[10100]	/* MoveIndirectRelPt */
MIRP[01100]	/* MoveIndirectRelPt */
SRP0[ ]	/* SetRefPoint0 */
MIRP[01110]	/* MoveIndirectRelPt */
MIRP[10110]	/* MoveIndirectRelPt */
MIRP[01110]	/* MoveIndirectRelPt */
SRP1[ ]	/* SetRefPoint1 */
SLOOP[ ]	/* SetLoopVariable */
IP[ ]	/* InterpolatePts */
SLOOP[ ]	/* SetLoopVariable */
IP[ ]	/* InterpolatePts */
SRP1[ ]	/* SetRefPoint1 */
SRP2[ ]	/* SetRefPoint2 */
IP[ ]	/* InterpolatePts */
IUP[0]	/* InterpolateUntPts */";
};
width = 1233;
}
);
note = section;
unicode = 167;
},
{
glyphname = bullet;
layers = (
{
layerId = m01;
shapes = (
{
closed = 1;
nodes = (
(490,465,o),
(614,465,qs),
(739,465,o),
(913,638,o),
(913,762,qs),
(913,885,o),
(740,1057,o),
(616,1057,qs),
(491,1057,o),
(319,886,o),
(319,762,qs),
(319,636,o)
);
}
);
userData = {
assembly = "PUSHB[ ]	/* 8 values pushed */
9 153 3 12 6 38 0 12
SRP0[ ]	/* SetRefPoint0 */
MDRP[10100]	/* MoveDirectRelPt */
MIRP[01100]	/* MoveIndirectRelPt */
IUP[1]	/* InterpolateUntPts */
SVTCA[0]	/* SetFreedomAndProjectionVectorToAxis */
SRP0[ ]	/* SetRefPoint0 */
MDRP[10100]	/* MoveDirectRelPt */
MIRP[00100]	/* MoveIndirectRelPt */
IUP[0]	/* InterpolateUntPts */";
};
width = 1233;
}
);
note = bullet;
unicode = 8226;
},
{
glyphname = paragraph;
layers = (
{
layerId = m01;
shapes = (
{
closed = 1;
nodes = (
(125,1213,o),
(125,1004,qs),
(125,843,o),
(329,653,o),
(506,649,q),
(342,-197,l),
(483,-197,l),
(786,1370,l),
(977,1370,l),
(674,-197,l),
(813,-197,l),
(1141,1493,l),
(735,1493,ls),
(471,1493,o)
);
}
);
userData = {
assembly = "NPUSHB[ ]	/* 48 values pushed */
10 9 2 11 8 5 6 5 7 6 6 5 2 3 4 3 1 4 4 3 58 8 2 4 0 81 6 2 14 7 11 6 2 5 4 8 6 0 5 3 1 4 4 3 5 6 11 14
SRP0[ ]	/* SetRefPoint0 */
MDRP[10100]	/* MoveDirectRelPt */
MDRP[10100]	/* MoveDirectRelPt */
MDRP[00100]	/* MoveDirectRelPt */
MDRP[10100]	/* MoveDirectRelPt */
MDRP[00100]	/* MoveDirectRelPt */
SRP0[ ]	/* SetRefPoint0 */
MDRP[00000]	/* MoveDirectRelPt */
SRP1[ ]	/* SetRefPoint1 */
SRP2[ ]	/* SetRefPoint2 */
IP[ ]	/* InterpolatePts */
SRP2[ ]	/* SetRefPoint2 */
IP[ ]	/* InterpolatePts */
SRP1[ ]	/* SetRefPoint1 */
SRP2[ ]	/* SetRefPoint2 */
IP[ ]	/* InterpolatePts */
SRP1[ ]	/* SetRefPoint1 */
SRP2[ ]	/* SetRefPoint2 */
IP[ ]	/* InterpolatePts */
IUP[1]	/* InterpolateUntPts */
SVTCA[0]	/* SetFreedomAndProjectionVectorToAxis */
SRP0[ ]	/* SetRefPoint0 */
MDRP[00100]	/* MoveDirectRelPt */
SHP[0]	/* ShiftPointByLastPoint */
MIRP[10100]	/* MoveIndirectRelPt */
MDRP[01100]	/* MoveDirectRelPt */
SRP1[ ]	/* SetRefPoint1 */
IP[ ]	/* InterpolatePts */
IUP[0]	/* InterpolateUntPts */
MPPEM[ ]	/* MeasurePixelPerEm */
GTEQ[ ]	/* GreaterThanOrEqual */
IF[ ]	/* If */
SPVTL[1]	/* SetPVectorToLine */
SRP0[ ]	/* SetRefPoint0 */
SFVTCA[1]	/* SetFVectorToAxis */
MDRP[01001]	/* MoveDirectRelPt */
SPVTL[1]	/* SetPVectorToLine */
SRP0[ ]	/* SetRefPoint0 */
SFVTCA[1]	/* SetFVectorToAxis */
MDRP[01001]	/* MoveDirectRelPt */
SPVTL[1]	/* SetPVectorToLine */
SRP0[ ]	/* SetRefPoint0 */
SFVTCA[1]	/* SetFVectorToAxis */
MDRP[01001]	/* MoveDirectRelPt */
SPVTL[1]	/* SetPVectorToLine */
SRP0[ ]	/* SetRefPoint0 */
SFVTCA[1]	/* SetFVectorToAxis */
MDRP[01001]	/* MoveDirectRelPt */
SRP1[ ]	/* SetRefPoint1 */
SLOOP[ ]	/* SetLoopVariable */
IP[ ]	/* InterpolatePts */
EIF[ ]	/* EndIf */
CLEAR[ ]	/* ClearStack */";
};
width = 1233;
}
);
note = paragraph;
unicode = 182;
},
